<svg width="44" height="25" fill="none" xmlns="http://www.w3.org/2000/svg"><path d="M18.165 16.733H.772v7.392h17.393m0-7.392v7.392m0-7.392v-1.305m0 8.697h2.609v-5.218h1.74v5.218h2.608m0 0v-7.392m0 7.392h1.74m-1.74-7.392v-1.305m0 1.305h18.263v7.392h-9.132m-16.088-8.697H.772V6.732h.87m16.523 8.696V11.08m0-4.348v-.87h6.957v.87m-6.957 0v4.348m0-4.348H1.642m16.523 4.348H3.38m21.741 0h14.784m-14.784 0V6.732m0 4.348v4.348m0-8.696h17.393m-17.393 8.696h18.263V6.732h-.87m-40.873 0V5.428h-.87v-1.74l3.044 1.305h14.349V2.819l1.304.434 1.305-1.304-.87-.87h3.479l-.87.87 1.305 1.304 1.304-.434v2.174H40.34l3.044-1.305v1.74h-.87v1.304m-20.872-1.74V3.254M4.251 9.776v-1.74m2.174 1.74v-1.74m2.174 1.74v-1.74m2.174 1.74v-1.74m2.174 1.74v-1.74m-8.696 6.088v-1.74m2.174 1.74v-1.74m2.174 1.74v-1.74m2.174 1.74v-1.74m2.174 1.74v-1.74m17.393 1.74v-1.74m2.174 1.74v-1.74m2.174 1.74v-1.74m2.174 1.74v-1.74m2.174 1.74v-1.74M30.34 9.777v-1.74m2.174 1.74v-1.74m2.174 1.74v-1.74m2.174 1.74v-1.74m2.174 1.74v-1.74M26.861 24.125v-3.479c0-2.609 4.348-2.609 4.348 0v3.479h1.74m-6.088 0h6.088m0 0h1.304m-1.304 0v-3.913h1.304v3.913m-1.304-5.653h-.435 2.174M4.251 21.951v-3.044m2.174 3.044v-3.044m2.174 3.044v-3.044m2.174 3.044v-3.044m2.174 3.044v-3.044m8.696-7.392V8.471m0 7.827v-3.044m14.35 9.132v-3.914h5.652v3.914h-5.652z" stroke="#C8134A" stroke-width="1.102"/></svg>