<svg width="49" height="21" fill="none" xmlns="http://www.w3.org/2000/svg"><path d="M.574 14.196v5.452h1.999m-2-5.452h2m-2 0V11.86m46.979 2.336v5.452h-2m2-5.452h-2m2 0V11.86m-44.98 2.336v5.452m0-5.452h2m-2 5.452h2m0 0v-5.452m0 5.452H6.57m-2-5.452h2m0 5.452v-5.452m0 5.452h2m-2-5.452h2m0 0v5.452m0-5.452h1.999M8.57 19.648h1.999m0-5.452v5.452m0-5.452h5.997m-5.997 5.452h11.994m22.99-5.452v5.452m0-5.452h-2m2 5.452h-2m0 0v-5.452m0 5.452h-1.999m2-5.452h-2m0 0v5.452m0-5.452h-1.999m2 5.452h-2m0 0v-5.452m0 5.452h-1.999m2-5.452h-2m0 0v5.452m0-5.452H31.56m5.997 5.452H26.062m-9.496-5.452V11.86m0 2.336h5.997m8.996 0V11.86m0 2.336h-5.497m5.497-2.336V9.783h-3.498m3.498 2.077h15.993m0 0V2.09L28.06 1.086M16.566 11.86V9.783h3.998m-3.998 2.077H.574m0 0V2.09l19.99-1.003m0 8.696V1.087m0 8.696h2m-2-8.696v2.004h7.497V1.087m0 8.696V1.087m0 8.696h-2m-3.498 0V5.63h3.499v4.153m-3.499 0h3.499m0 4.413v5.452m0-5.452h-3.499m3.499 5.452h-3.499m0-5.452v5.452" stroke="#C8134A" stroke-width="1.105"/></svg>