<svg width="54" height="22" fill="none" xmlns="http://www.w3.org/2000/svg"><path d="M17.848 4.833L27.016.75l9.168 4.082m-18.336 0h2.037m-2.037 0v3.826m18.336-3.826h-2.037m2.037 0v3.826m-18.336 3.826h8.15m-8.15 0h16.299V4.833m-16.3 7.652h-4.074m4.075 0V8.66m2.037 3.826V4.833m0 0h2.037m0 0v7.652h2.038V4.833m-2.038 0h2.038m0 0h2.037m0 0v7.652m0-7.652h2.038m-2.038 7.652h4.075m-2.037 0V4.833m0 0h2.037m0 0v7.652m0-7.652h2.037m-2.037 7.652h6.112V8.66m-4.075 3.826V4.833m0 0h2.038M14.283 20.648v-8.163h25.466v8.163m-25.467 0H39.75m-25.467 0H5.114m34.635 0h9.168m-31.579-.51v-3.572c0-1.53 3.056-1.53 3.056 0v3.572m2.547 0v-3.572c0-1.53 3.056-1.53 3.056 0v3.572m2.038 0v-3.572c0-1.53 3.055-1.53 3.055 0v3.572m2.547 0v-3.572c0-1.53 3.056-1.53 3.056 0v3.572M17.848 8.658h-5.603m-7.13 11.99V8.658h7.13m-7.13 11.99H1.04V6.363h9.168l2.037 2.296m36.672 11.989V8.658h-7.13m7.13 11.99h4.075V6.363h-9.168L41.786 8.66m-5.602 0h5.602M3.077 11.465v2.04m0 3.061v2.041m4.075-7.142v2.04m2.037-2.04v2.04m2.037-2.04v2.04m-4.074 3.061v2.041m2.037-2.04v2.04m2.037-2.04v2.04m31.58-7.142v2.04m2.036-2.04v2.04m2.038-2.04v2.04m4.074-2.04v2.04m-8.149 3.061v2.041m2.037-2.04v2.04m2.038-2.04v2.04m4.074-2.04v2.04" stroke="#C8134A" stroke-width="1.105"/></svg>