<svg width="59" height="26" fill="none" xmlns="http://www.w3.org/2000/svg"><path d="M5.042 25.135l6.97-16.552m-6.97 16.552l8.87-6.87m-8.87 6.87H2.507l2.535-5.518m6.97-11.034l.633.832m-.633-.832H10.11l-.383.832m4.185 8.85v-6.559m0 6.558h4.118m11.089 6.87l-7.603-16.55m7.604 16.552l-9.505-6.87m9.505 6.87h2.218l-2.746-5.518M21.516 8.583l-.633.832m.633-.832h1.585m-3.485 9.681H18.03m1.585 0v-6.558m-4.12 6.246v-3.123c0-1.25.635-1.25 1.268-1.25.634 0 1.267-.16 1.267 1.25v3.435m-4.118-6.558v-.625l-1.268-1.666m1.268 2.29h1.267m4.436 0v-.624l1.267-1.666m-1.267 2.29h-1.268m-5.702-2.29h1.9m6.337 0h-1.901m-4.436 0l.634 2.29m-.634-2.29h1.585m-.951 2.29h1.267m0 0l-.316-2.29m.316 2.29h.634m-.95-2.29h.633m.317 2.29l.317-2.29m-.317 2.29h1.267m-.95-2.29h1.584m-1.584 0h-.634m1.584 2.29l.634-2.29m4.119-.832l1.243 2.498M23.1 8.583h8.871M5.041 19.617H1.558v-8.536h.95m2.535 8.536l3.921-8.536m0 0H2.507m6.456 0l.765-1.666m-7.22 1.666V9.415m0 0h7.22m-7.22 0l-.951-1.457h14.89l.317 1.457m11.828 10.202h8.448m-8.448 0l-4.248-8.536m12.696 8.536v-8.536m0 8.536l8.871 3.02m-8.87-11.556H24.343m12.696 0l-2.85-2.498H31.97m0 0V6.709l13.94-5.622m0 0v21.55m0-21.55h1.901v7.496m-1.9 14.053h1.9v-3.019m0-7.755l7.92 7.755m-7.92-7.755v7.755m0-7.755v-3.28m7.92 11.035h-7.92m7.92 0H57l-2.852-2.844M48.13 10.77l.94.937m0 0l5.08.156m-5.08-.156l5.08 5.067m0-4.911v4.911m0-4.911l-6.337-3.28" stroke="#C8134A" stroke-width=".935"/></svg>