<svg width="44" height="44" fill="none" xmlns="http://www.w3.org/2000/svg"><g fill-rule="evenodd" clip-rule="evenodd" fill="#CFC8B7"><path d="M22.535.37C10.741.37 1.181 9.93 1.181 21.723c0 11.793 9.56 21.354 21.354 21.354 11.794 0 21.354-9.56 21.354-21.355C43.89 9.93 34.33.37 22.535.37zM17.84 10.402c1.215-.055 1.603-.069 4.696-.069h-.003c3.094 0 3.48.014 4.695.069 1.213.056 2.04.247 2.767.53.75.29 1.383.679 2.017 1.313a5.588 5.588 0 011.314 2.017c.28.724.472 1.552.53 2.764.054 1.215.068 1.603.068 4.696s-.014 3.48-.069 4.696c-.057 1.212-.249 2.04-.529 2.764a5.59 5.59 0 01-1.314 2.017 5.572 5.572 0 01-2.016 1.314c-.725.282-1.554.474-2.766.53-1.215.055-1.602.069-4.695.069s-3.481-.014-4.696-.07c-1.212-.055-2.04-.247-2.764-.529a5.577 5.577 0 01-2.017-1.314 5.58 5.58 0 01-1.314-2.017c-.281-.725-.473-1.552-.529-2.765-.055-1.215-.069-1.602-.069-4.695s.014-3.481.069-4.696c.054-1.212.246-2.04.529-2.764a5.588 5.588 0 011.314-2.018 5.575 5.575 0 012.018-1.313c.724-.282 1.552-.473 2.764-.529z"/><path d="M21.515 12.387h1.022c3.04 0 3.4.01 4.602.065 1.11.05 1.713.236 2.114.392.532.207.91.454 1.309.852.399.399.645.778.852 1.31.156.4.342 1.004.392 2.114.055 1.2.067 1.561.067 4.6 0 3.04-.012 3.4-.067 4.602-.05 1.11-.236 1.713-.392 2.114a3.52 3.52 0 01-.852 1.308 3.521 3.521 0 01-1.309.852c-.4.156-1.004.341-2.114.392-1.201.055-1.562.067-4.603.067-3.04 0-3.401-.012-4.602-.067-1.11-.051-1.713-.237-2.115-.392a3.53 3.53 0 01-1.31-.852 3.53 3.53 0 01-.852-1.31c-.155-.4-.341-1.003-.392-2.114-.054-1.2-.065-1.56-.065-4.602 0-3.041.01-3.4.065-4.6.051-1.111.236-1.714.392-2.115.207-.532.454-.912.853-1.31a3.535 3.535 0 011.31-.852c.4-.157 1.004-.342 2.114-.393 1.05-.048 1.458-.062 3.58-.064v.003zm7.1 1.89a1.366 1.366 0 100 2.734 1.366 1.366 0 000-2.734zm-11.928 7.447a5.849 5.849 0 1111.697 0 5.849 5.849 0 01-11.698 0z"/><path d="M22.536 17.927a3.796 3.796 0 110 7.592 3.796 3.796 0 010-7.592z"/></g></svg>