<svg width="44" height="44" fill="none" xmlns="http://www.w3.org/2000/svg"><g fill-rule="evenodd" clip-rule="evenodd" fill="#CFC8B7"><path d="M0 21.724C0 9.93 9.56.369 21.354.369 33.148.37 42.71 9.93 42.71 21.724c0 11.793-9.56 21.354-21.355 21.354C9.561 43.078 0 33.518 0 21.723zm21.34.342c3.149 0 5.708-2.471 5.708-5.51 0-3.038-2.56-5.51-5.708-5.51s-5.709 2.472-5.709 5.51c0 3.039 2.56 5.51 5.709 5.51zm5.64 3.172a10.915 10.915 0 01-3.316 1.325l3.191 3.08c.654.63.654 1.653 0 2.284-.653.63-1.711.63-2.364 0l-3.137-3.028-3.135 3.028a1.702 1.702 0 01-1.184.472 1.7 1.7 0 01-1.182-.472 1.576 1.576 0 010-2.283l3.191-3.081a10.932 10.932 0 01-3.315-1.325c-.781-.476-1.016-1.472-.523-2.226.49-.756 1.523-.984 2.305-.508a7.47 7.47 0 007.686 0c.783-.476 1.815-.248 2.306.508.493.754.257 1.75-.524 2.226z"/><path d="M21.34 14.275c1.304 0 2.364 1.024 2.364 2.282 0 1.257-1.06 2.28-2.363 2.28s-2.364-1.023-2.364-2.28c0-1.258 1.061-2.282 2.364-2.282z"/></g></svg>