<svg width="44" height="46" fill="none" xmlns="http://www.w3.org/2000/svg"><path fill-rule="evenodd" clip-rule="evenodd" d="M21.354 1.99C9.561 1.99 0 11.55 0 23.345c0 11.793 9.56 21.354 21.354 21.354 11.794 0 21.355-9.56 21.355-21.354 0-11.794-9.56-21.355-21.355-21.355zm-.595 18.097l-.044-.739c-.135-1.915 1.045-3.664 2.912-4.343.687-.241 1.853-.271 2.614-.06.299.09.867.392 1.27.663l.732.498.806-.256c.448-.136 1.046-.362 1.315-.513.254-.136.478-.211.478-.166 0 .257-.553 1.131-1.016 1.614-.627.678-.448.739.822.286.762-.256.776-.256.627.03-.09.151-.553.679-1.046 1.162-.836.829-.88.92-.88 1.613 0 1.07-.509 3.302-1.017 4.524-.94 2.292-2.957 4.66-4.974 5.85-2.838 1.675-6.617 2.097-9.798 1.117-1.06-.332-2.883-1.176-2.883-1.327 0-.045.553-.106 1.225-.12a8.41 8.41 0 004.003-1.117l.807-.482-.927-.317c-1.314-.452-2.494-1.493-2.793-2.473-.09-.317-.06-.332.777-.332l.866-.015-.732-.347c-.866-.437-1.658-1.176-2.046-1.93-.284-.543-.642-1.915-.538-2.02.03-.046.344.045.702.165 1.03.377 1.165.287.568-.347-1.12-1.146-1.464-2.85-.926-4.463l.254-.724.986.98c2.016 1.976 4.391 3.152 7.11 3.499l.746.09z" fill="#CFC8B7"/></svg>