<svg width="44" height="44" fill="none" xmlns="http://www.w3.org/2000/svg"><path fill-rule="evenodd" clip-rule="evenodd" d="M22.535.747c-11.794 0-21.354 9.56-21.354 21.355 0 11.793 9.56 21.354 21.354 21.354 11.794 0 21.354-9.56 21.354-21.355C43.89 10.309 34.33.748 22.535.748zm1.739 27.383c-.21.222-.622.267-.622.267h-1.361s-3.004.177-5.65-2.526c-2.885-2.95-5.433-8.801-5.433-8.801s-.147-.384.012-.569c.18-.209.669-.222.669-.222l3.254-.02s.306.049.526.207c.181.131.283.375.283.375s.526 1.306 1.222 2.487c1.36 2.306 1.993 2.81 2.454 2.563.673-.36.471-3.26.471-3.26s.013-1.052-.338-1.52c-.272-.364-.784-.47-1.01-.5-.184-.024.116-.441.506-.628.586-.281 1.62-.298 2.842-.286.953.01 1.227.068 1.599.157.863.204.837.86.778 2.275-.017.423-.037.914-.037 1.481 0 .128-.004.263-.008.403-.02.725-.043 1.555.443 1.864.25.158.86.023 2.385-2.518.723-1.206 1.264-2.622 1.264-2.622s.12-.252.303-.36c.188-.111.442-.077.442-.077l3.425-.02s1.03-.122 1.195.335c.175.478-.384 1.595-1.783 3.426-1.328 1.737-1.974 2.377-1.914 2.942.043.413.463.787 1.269 1.52 1.682 1.534 2.133 2.34 2.24 2.534l.021.036c.755 1.228-.836 1.324-.836 1.324l-3.043.042s-.653.126-1.513-.453c-.45-.304-.89-.8-1.31-1.271-.64-.72-1.232-1.387-1.737-1.23-.848.265-.822 2.058-.822 2.058s.007.384-.186.587z" fill="#CFC8B7"/></svg>