<svg width="49" height="21" viewBox="0 0 49 21" fill="none" xmlns="http://www.w3.org/2000/svg">
<path d="M0.57373 14.1963V19.6477H2.57279M0.57373 14.1963H2.57279M0.57373 14.1963V11.86M47.5516 14.1963V19.6477H45.5525M47.5516 14.1963H45.5525M47.5516 14.1963V11.86M2.57279 14.1963V19.6477M2.57279 14.1963H4.57185M2.57279 19.6477H4.57185M4.57185 19.6477V14.1963M4.57185 19.6477H6.5709M4.57185 14.1963H6.5709M6.5709 19.6477V14.1963M6.5709 19.6477H8.56996M6.5709 14.1963H8.56996M8.56996 14.1963V19.6477M8.56996 14.1963H10.569M8.56996 19.6477H10.569M10.569 14.1963V19.6477M10.569 14.1963H16.5662M10.569 19.6477H22.5634M45.5525 14.1963V19.6477M45.5525 14.1963H43.5535M45.5525 19.6477H43.5535M43.5535 19.6477V14.1963M43.5535 19.6477H41.5544M43.5535 14.1963H41.5544M41.5544 14.1963V19.6477M41.5544 14.1963H39.5554M41.5544 19.6477H39.5554M39.5554 19.6477V14.1963M39.5554 19.6477H37.5563M39.5554 14.1963H37.5563M37.5563 14.1963V19.6477M37.5563 14.1963H31.5591M37.5563 19.6477H26.0617M16.5662 14.1963V11.86M16.5662 14.1963H22.5634M31.5591 14.1963V11.86M31.5591 14.1963H26.0617M31.5591 11.86V9.78324H28.0608M31.5591 11.86H47.5516M47.5516 11.86V2.0892L28.0608 1.08722M16.5662 11.86V9.78324H20.5643M16.5662 11.86H0.57373M0.57373 11.86V2.0892L20.5643 1.08722M20.5643 9.78324V1.08722M20.5643 9.78324H22.5634M20.5643 1.08722V3.09118H28.0608V1.08722M28.0608 9.78324V1.08722M28.0608 9.78324H26.0617M22.5634 9.78324V5.62976H26.0617V9.78324M22.5634 9.78324H26.0617M26.0617 14.1963V19.6477M26.0617 14.1963H22.5634M26.0617 19.6477H22.5634M22.5634 14.1963V19.6477" stroke="#C8134A" stroke-width="1.10536"/>
</svg>
