<svg width="41" height="26" viewBox="0 0 41 26" fill="none" xmlns="http://www.w3.org/2000/svg">
<path d="M0.978271 22.7869V9.42713M0.978271 22.7869H11.8536M0.978271 22.7869V24.7909H11.8536M0.978271 9.42713H2.67754M0.978271 9.42713V4.75121L2.67754 2.74725V9.42713M4.37681 9.42713V11.4311H8.45505V9.42713M4.37681 9.42713V4.75121H8.45505V9.42713M4.37681 9.42713H2.67754M8.45505 9.42713H10.1543M11.8536 9.42713V5.4192M11.8536 9.42713H10.1543M11.8536 9.42713V4.75121L10.1543 2.74725V9.42713M11.8536 22.7869V17.443M11.8536 22.7869H21.3695M11.8536 22.7869V24.7909M21.3695 22.7869H32.2448M21.3695 22.7869V17.443M21.3695 22.7869V24.7909M21.3695 9.42713V5.4192M21.3695 9.42713H23.0688M21.3695 9.42713V4.75121L23.0688 2.74725V9.42713M24.768 9.42713V11.4311H28.8463V9.42713M24.768 9.42713V4.75121H28.8463V9.42713M24.768 9.42713H23.0688M28.8463 9.42713H30.5455M32.2448 9.42713V22.7869M32.2448 9.42713H30.5455M32.2448 9.42713V4.75121M32.2448 22.7869V24.7909M11.8536 15.439H10.4942V17.443H11.8536M11.8536 15.439H21.3695M11.8536 15.439V5.4192M11.8536 17.443H21.3695M21.3695 15.439H22.7289V17.443H21.3695M21.3695 15.439V5.4192M13.8927 14.771V12.7671M16.6115 14.771V12.7671M19.3304 14.771V12.7671M13.8927 21.4509V18.779M16.6115 21.4509V18.779M19.3304 21.4509V18.779M32.2448 24.7909H21.3695M32.2448 24.7909H34.2839M21.3695 24.7909H11.8536M3.01739 21.4509V18.779M5.73622 21.4509V18.779M8.45505 21.4509V18.779M3.01739 15.439V12.7671M5.73622 15.439V12.7671M8.45505 15.439V12.7671M24.768 15.439V12.7671M27.4869 15.439V12.7671M30.2057 15.439V12.7671M24.768 21.4509V18.779M27.4869 21.4509V18.779M30.2057 21.4509V18.779M11.8536 5.4192H21.3695M30.5455 9.42713V2.74725L32.2448 4.75121M32.2448 4.75121H39.7216L39.0419 6.08719V24.7909H34.2839M6.41593 9.42713V6.75518M26.8071 9.42713V6.75518M11.8536 10.7631H21.3695M13.8927 9.42713V6.75518M16.6115 9.42713V6.75518M19.3304 9.42713V6.75518M34.2839 24.7909V19.447L35.6433 17.443L37.0028 19.447V24.1229M35.6433 15.439V12.0991M35.6433 10.0951V6.75518M4.37681 2.74725H8.45505V0.743286H4.37681V2.74725ZM24.768 2.74725H28.8463V0.743286H24.768V2.74725Z" stroke="#C8134A" stroke-width="1.10218"/>
</svg>
