<svg width="44" height="25" viewBox="0 0 44 25" fill="none" xmlns="http://www.w3.org/2000/svg">
<path d="M18.1649 16.7329H0.771973V23.6901V24.1249H18.1649M18.1649 16.7329V24.1249M18.1649 16.7329V15.4284M18.1649 24.1249H20.7738V18.907H22.5131V24.1249H25.122M25.122 24.1249V16.7329M25.122 24.1249H26.8613M25.122 16.7329V15.4284M25.122 16.7329H43.3846V24.1249H34.2533M18.1649 15.4284H0.771973V6.73198H1.64162M18.1649 15.4284V11.0802M18.1649 6.73198V5.86233H25.122V6.73198M18.1649 6.73198V11.0802M18.1649 6.73198H1.64162M18.1649 11.0802H3.38091M25.122 11.0802H39.906M25.122 11.0802V6.73198M25.122 11.0802V15.4284M25.122 6.73198H42.5149M25.122 15.4284H43.3846V6.73198H42.5149M1.64162 6.73198V5.42751H0.771973V3.68822L3.81573 4.99269H18.1649V2.81857L19.4693 3.2534L20.7738 1.94893L19.9042 1.07928H23.3827L22.5131 1.94893L23.8176 3.2534L25.122 2.81857V4.99269H40.3408L43.3846 3.68822V5.42751H42.5149V6.73198M21.6434 4.99269V3.2534M4.25055 9.77573V8.03644M6.42466 9.77573V8.03644M8.59878 9.77573V8.03644M10.7729 9.77573V8.03644M12.947 9.77573V8.03644M4.25055 14.124V12.3847M6.42466 14.124V12.3847M8.59878 14.124V12.3847M10.7729 14.124V12.3847M12.947 14.124V12.3847M30.3399 14.124V12.3847M32.514 14.124V12.3847M34.6881 14.124V12.3847M36.8622 14.124V12.3847M39.0363 14.124V12.3847M30.3399 9.77573V8.03644M32.514 9.77573V8.03644M34.6881 9.77573V8.03644M36.8622 9.77573V8.03644M39.0363 9.77573V8.03644M26.8613 24.1249C26.8613 23.2552 26.8613 22.7334 26.8613 20.6463C26.8613 18.0374 31.2095 18.0374 31.2095 20.6463C31.2095 22.7334 31.2095 23.4002 31.2095 24.1249H32.9488M26.8613 24.1249H32.9488M32.9488 24.1249H34.2533M32.9488 24.1249V20.2115H34.2533V24.1249M32.9488 18.4722H32.514H34.6881M4.25055 21.9508V18.907M6.42466 21.9508V18.907M8.59878 21.9508V18.907M10.7729 21.9508V18.907M12.947 21.9508V18.907M21.6434 11.515V8.47127M21.6434 16.2981V13.2543M35.9926 22.3856V18.4722H41.6453V22.3856H35.9926Z" stroke="#9C7043" stroke-width="1.10218"/>
</svg>
