<svg width="54" height="22" viewBox="0 0 54 22" fill="none" xmlns="http://www.w3.org/2000/svg">
<path d="M17.8478 4.83255L27.0158 0.751221L36.1838 4.83255M17.8478 4.83255H19.8851M17.8478 4.83255V8.65881M36.1838 4.83255H34.1465M36.1838 4.83255V8.65881M17.8478 12.4851H25.9971M17.8478 12.4851H34.1465V4.83255M17.8478 12.4851H13.7731M17.8478 12.4851V8.65881M19.8851 12.4851V4.83255M19.8851 4.83255H21.9225M21.9225 4.83255V12.4851H23.9598V4.83255M21.9225 4.83255H23.9598M23.9598 4.83255H25.9971M25.9971 4.83255V12.4851M25.9971 4.83255H28.0345M25.9971 12.4851H30.0718M28.0345 12.4851V4.83255M28.0345 4.83255H30.0718M30.0718 4.83255V12.4851M30.0718 4.83255H32.1091M30.0718 12.4851H36.1838V8.65881M32.1091 12.4851V4.83255M32.1091 4.83255H34.1465M14.2825 20.6477V12.4851H39.7491V20.6477M14.2825 20.6477H39.7491M14.2825 20.6477H5.11446M39.7491 20.6477H48.9171M17.3385 20.1376V16.5664C17.3385 15.0359 20.3945 15.0359 20.3945 16.5664V20.1376M22.9411 20.1376V16.5664C22.9411 15.0359 25.9971 15.0359 25.9971 16.5664V20.1376M28.0345 20.1376V16.5664C28.0345 15.0359 31.0905 15.0359 31.0905 16.5664V20.1376M33.6371 20.1376V16.5664C33.6371 15.0359 36.6931 15.0359 36.6931 16.5664V20.1376M17.8478 8.65881H12.2451M5.11446 20.6477V8.65881H12.2451M5.11446 20.6477H1.03979V6.36306H10.2078L12.2451 8.65881M48.9171 20.6477V8.65881H41.7865M48.9171 20.6477H52.9918V6.36306H43.8238L41.7865 8.65881M36.1838 8.65881H41.7865M3.07713 11.4647V13.5054M3.07713 16.5664V18.6071M7.15179 11.4647V13.5054M9.18913 11.4647V13.5054M11.2265 11.4647V13.5054M7.15179 16.5664V18.6071M9.18913 16.5664V18.6071M11.2265 16.5664V18.6071M42.8051 11.4647V13.5054M44.8424 11.4647V13.5054M46.8798 11.4647V13.5054M50.9544 11.4647V13.5054M42.8051 16.5664V18.6071M44.8424 16.5664V18.6071M46.8798 16.5664V18.6071M50.9544 16.5664V18.6071" stroke="#C8134A" stroke-width="1.10536"/>
</svg>
