<svg width="43" height="22" viewBox="0 0 43 22" fill="none" xmlns="http://www.w3.org/2000/svg">
<path d="M22.8978 11.9948H21.7247L20.845 14.0278H22.8978M22.8978 11.9948V10.3684V8.742V7.1156V5.08259M22.8978 11.9948H28.2418M22.8978 5.08259L19.2239 7.1156V11.109M22.8978 5.08259L30.5787 0.935914M38.9296 11.9948H40.1026L41.2757 14.0278H38.9296M38.9296 11.9948V4.67599L30.9134 0.755188L30.5787 0.935914M38.9296 11.9948H33.5854M38.9296 14.0278V21.1288H32.673M38.9296 14.0278H34.2536M22.8978 21.1288V14.4344V14.0278M22.8978 21.1288H29.1538M22.8978 21.1288L19.2239 18.1229M22.8978 14.0278H27.5738M29.1538 21.1288V16.1189H32.673V21.1288M29.1538 21.1288H32.673M30.9137 9.43903H33.5854V6.43309H30.9137M30.9137 9.43903H28.2418V6.43309H30.9137M30.9137 9.43903V6.43309M25.9038 19.1249V17.4549M35.9236 19.1249V17.4549M27.5738 14.0278L28.2418 11.9948M27.5738 14.0278H34.2536M28.2418 11.9948H33.5854M33.5854 11.9948L34.2536 14.0278M19.2239 18.1229V11.109M19.2239 18.1229H2.19021V11.109M30.5787 0.935914L16.218 6.76708H3.52619L1.18823 11.109H2.19021M19.2239 11.109H2.19021M5.86415 15.6978V14.0278M15.884 15.6978V14.0278M9.20409 9.10504H12.21M9.44819 17.7018V13.447H12.21V17.7018H9.44819Z" stroke="#277649" stroke-width="1.10218"/>
</svg>
