<svg width="66" height="21" viewBox="0 0 66 21" fill="none" xmlns="http://www.w3.org/2000/svg">
<path d="M29.5711 5.79659H26.4353L26.1701 6.72627M29.5711 5.79659L29.1445 7.65594M29.5711 5.79659L31.7732 7.65594M44.0636 1.42712H47.5384L48.1361 3.65834M44.0636 1.42712L45.5857 7.65594M44.0636 1.42712L43.3839 7.65594M26.9686 17.1386L26.4353 19.4628H22.5367L22.8815 18.2542M26.9686 17.1386L28.3979 10.9098M26.9686 17.1386H34.402M47.9028 17.1386L48.4707 19.4628H52.3693L52.0456 18.2542M47.9028 17.1386L46.3808 10.9098M47.9028 17.1386H41.1524M45.5857 7.65594L46.3808 10.9098M45.5857 7.65594H43.3839M29.1445 7.65594L28.3979 10.9098M29.1445 7.65594H31.7732M28.3979 10.9098H33.6392M46.3808 10.9098H41.9448M33.6392 10.9098L34.402 7.65594M33.6392 10.9098H34.402M34.402 7.65594H41.1821M34.402 7.65594H31.7732M41.1821 7.65594L41.9448 10.9098M41.1821 7.65594H43.3839M41.9448 10.9098H41.1821M34.402 10.9098V17.1386M34.402 10.9098H41.1821M34.402 17.1386H41.1524M41.1821 10.9098L41.1524 17.1386M25.9049 7.65594L9.9935 9.70123L2.02686 18.2542M25.9049 7.65594L26.1701 6.72627M25.9049 7.65594L22.8815 18.2542M2.02686 18.2542L9.9935 7.65594L26.1701 6.72627M2.02686 18.2542H22.8815M48.1361 3.65834L52.3693 5.79659L64.1497 18.2542H52.0456M48.1361 3.65834L52.0456 18.2542" stroke="#8c8c8d" stroke-width="1.08214"/>
</svg>
