<svg width="59" height="26" viewBox="0 0 59 26" fill="none" xmlns="http://www.w3.org/2000/svg">
<path d="M5.04187 25.1348L12.0119 8.58257M5.04187 25.1348L13.9128 18.2641M5.04187 25.1348H2.50734L5.04187 19.6174M12.0119 8.58257L12.6455 9.41538M12.0119 8.58257H10.1109L9.72838 9.41538M13.9128 18.2641V17.3271V11.7056M13.9128 18.2641H18.0314M29.12 25.1348L21.5164 8.58257M29.12 25.1348L19.6155 18.2641M29.12 25.1348H31.3377L28.592 19.6174M21.5164 8.58257L20.8827 9.41538M21.5164 8.58257H23.1005M19.6155 18.2641H18.0314M19.6155 18.2641V11.7056M15.4968 17.9517C15.4968 17.0148 15.4968 16.0779 15.4968 14.8287C15.4968 13.5795 16.1305 13.5795 16.7641 13.5795C17.3977 13.5795 18.0314 13.4199 18.0314 14.8287C18.0314 16.2375 18.0314 17.1189 18.0314 18.2641M13.9128 11.7056V11.081L12.6455 9.41538M13.9128 11.7056H15.18M19.6155 11.7056V11.081L20.8827 9.41538M19.6155 11.7056H18.3482M12.6455 9.41538H14.5464M20.8827 9.41538H18.9818M14.5464 9.41538L15.18 11.7056M14.5464 9.41538H16.1305M15.18 11.7056H16.4473M16.4473 11.7056L16.1305 9.41538M16.4473 11.7056H17.0809M16.1305 9.41538H16.7641M17.0809 11.7056L17.3977 9.41538M17.0809 11.7056H18.3482M17.3977 9.41538H18.9818M17.3977 9.41538H16.7641M18.3482 11.7056L18.9818 9.41538M23.1005 8.58257L24.3438 11.081M23.1005 8.58257H31.9713M5.04187 19.6174H1.55688V11.081H2.50734M5.04187 19.6174L8.96323 11.081M8.96323 11.081H2.50734M8.96323 11.081L9.72838 9.41538M2.50734 11.081V9.41538M2.50734 9.41538H9.72838M2.50734 9.41538L1.55688 7.95795H16.4473L16.7641 9.41538M28.592 19.6174H37.0404M28.592 19.6174L24.3438 11.081M37.0404 19.6174V11.081M37.0404 19.6174L45.9113 22.6363M37.0404 11.081H24.3438M37.0404 11.081L34.1891 8.58257H31.9713M31.9713 8.58257V6.70873L45.9113 1.08722M45.9113 1.08722V22.6363M45.9113 1.08722H47.8122V8.58257M45.9113 22.6363H47.8122V19.6174M47.8122 11.8618L55.7326 19.6174M47.8122 11.8618V19.6174M47.8122 11.8618V8.58257M55.7326 19.6174H47.8122M55.7326 19.6174H56.9999L54.1485 16.7732M48.129 10.7687L49.0683 11.7056M49.0683 11.7056L54.1485 11.8618M49.0683 11.7056L54.1485 16.7732M54.1485 11.8618V16.7732M54.1485 11.8618L47.8122 8.58257" stroke="#C8134A" stroke-width="0.935183"/>
</svg>
