<svg width="135" height="53" viewBox="0 0 135 53" fill="none" xmlns="http://www.w3.org/2000/svg">
<path d="M44.0294 11.4615L67.5 1L90.9706 11.4615M44.0294 11.4615H49.2451M44.0294 11.4615V21.2692M90.9706 11.4615H85.7549M90.9706 11.4615V21.2692M44.0294 31.0769H64.8922M44.0294 31.0769H85.7549V11.4615M44.0294 31.0769H33.598M44.0294 31.0769V21.2692M49.2451 31.0769V11.4615M49.2451 11.4615H54.4608M54.4608 11.4615V31.0769H59.6765V11.4615M54.4608 11.4615H59.6765M59.6765 11.4615H64.8922M64.8922 11.4615V31.0769M64.8922 11.4615H70.1078M64.8922 31.0769H75.3235M70.1078 31.0769V11.4615M70.1078 11.4615H75.3235M75.3235 11.4615V31.0769M75.3235 11.4615H80.5392M75.3235 31.0769H90.9706V21.2692M80.5392 31.0769V11.4615M80.5392 11.4615H85.7549M34.902 52V31.0769H100.098V52M34.902 52H100.098M34.902 52H11.4314M100.098 52H123.569M42.7255 50.6923V41.5385C42.7255 37.6154 50.549 37.6154 50.549 41.5385V50.6923M57.0686 50.6923V41.5385C57.0686 37.6154 64.8922 37.6154 64.8922 41.5385V50.6923M70.1078 50.6923V41.5385C70.1078 37.6154 77.9314 37.6154 77.9314 41.5385V50.6923M84.451 50.6923V41.5385C84.451 37.6154 92.2745 37.6154 92.2745 41.5385V50.6923M44.0294 21.2692H29.6863M11.4314 52V21.2692H29.6863M11.4314 52H1V15.3846H24.4706L29.6863 21.2692M123.569 52V21.2692H105.314M123.569 52H134V15.3846H110.529L105.314 21.2692M90.9706 21.2692H105.314M6.21569 28.4615V33.6923M6.21569 41.5385V46.7692M16.6471 28.4615V33.6923M21.8627 28.4615V33.6923M27.0784 28.4615V33.6923M16.6471 41.5385V46.7692M21.8627 41.5385V46.7692M27.0784 41.5385V46.7692M107.922 28.4615V33.6923M113.137 28.4615V33.6923M118.353 28.4615V33.6923M128.784 28.4615V33.6923M107.922 41.5385V46.7692M113.137 41.5385V46.7692M118.353 41.5385V46.7692M128.784 41.5385V46.7692" stroke="#B6B6B6" stroke-width="1.65476"/>
</svg>
