<svg width="11" height="11" viewBox="0 0 11 11" fill="none" xmlns="http://www.w3.org/2000/svg">
<path d="M10.0833 5.9585C9.96169 5.9585 9.84511 6.00678 9.75916 6.09274C9.67321 6.17869 9.62492 6.29527 9.62492 6.41683V9.16683C9.62492 9.28839 9.57663 9.40497 9.49067 9.49092C9.40472 9.57687 9.28814 9.62516 9.16658 9.62516H1.83325C1.71169 9.62516 1.59512 9.57687 1.50916 9.49092C1.42321 9.40497 1.37492 9.28839 1.37492 9.16683V1.8335C1.37492 1.71194 1.42321 1.59536 1.50916 1.50941C1.59512 1.42345 1.71169 1.37516 1.83325 1.37516H4.58325C4.70481 1.37516 4.82139 1.32687 4.90734 1.24092C4.9933 1.15497 5.04158 1.03839 5.04158 0.916829C5.04158 0.795272 4.9933 0.678693 4.90734 0.592739C4.82139 0.506785 4.70481 0.458496 4.58325 0.458496H1.83325C1.46858 0.458496 1.11884 0.603362 0.86098 0.861224C0.603118 1.11909 0.458252 1.46882 0.458252 1.8335V9.16683C0.458252 9.5315 0.603118 9.88124 0.86098 10.1391C1.11884 10.397 1.46858 10.5418 1.83325 10.5418H9.16658C9.53126 10.5418 9.88099 10.397 10.1389 10.1391C10.3967 9.88124 10.5416 9.5315 10.5416 9.16683V6.41683C10.5416 6.29527 10.4933 6.17869 10.4073 6.09274C10.3214 6.00678 10.2048 5.9585 10.0833 5.9585Z" fill="#CFC8B7"/>
<path d="M9.16668 0.458496H7.33335C7.21179 0.458496 7.09521 0.506785 7.00926 0.592739C6.9233 0.678693 6.87502 0.795272 6.87502 0.916829C6.87502 1.03839 6.9233 1.15497 7.00926 1.24092C7.09521 1.32687 7.21179 1.37516 7.33335 1.37516H8.85043L4.45043 5.77975C4.39819 5.81953 4.35511 5.87006 4.3241 5.92794C4.2931 5.98582 4.27489 6.04968 4.27071 6.11521C4.26652 6.18073 4.27647 6.24639 4.29987 6.30774C4.32327 6.36909 4.35958 6.42469 4.40634 6.47079C4.4531 6.51688 4.50922 6.55239 4.57089 6.57492C4.63257 6.59744 4.69836 6.60645 4.76382 6.60133C4.82928 6.59621 4.89288 6.57709 4.95031 6.54526C5.00773 6.51343 5.05765 6.46963 5.09668 6.41683L9.62502 1.89766V3.66683C9.62502 3.78839 9.6733 3.90497 9.75926 3.99092C9.84521 4.07687 9.96179 4.12516 10.0833 4.12516C10.2049 4.12516 10.3215 4.07687 10.4074 3.99092C10.4934 3.90497 10.5417 3.78839 10.5417 3.66683V1.8335C10.5417 1.46882 10.3968 1.11909 10.139 0.861224C9.88109 0.603362 9.53135 0.458496 9.16668 0.458496Z" fill="#CFC8B7"/>
</svg>
