<svg width="15" height="15" viewBox="0 0 15 15" fill="none" xmlns="http://www.w3.org/2000/svg">
<path fill-rule="evenodd" clip-rule="evenodd" d="M12.0107 3.2402H11.4321V2.6616C11.4321 2.50815 11.3711 2.36098 11.2626 2.25247C11.1541 2.14397 11.0069 2.08301 10.8535 2.08301C10.7 2.08301 10.5528 2.14397 10.4443 2.25247C10.3358 2.36098 10.2749 2.50815 10.2749 2.6616V3.2402H4.48891V2.6616C4.48891 2.50815 4.42795 2.36098 4.31944 2.25247C4.21094 2.14397 4.06377 2.08301 3.91032 2.08301C3.75686 2.08301 3.60969 2.14397 3.50119 2.25247C3.39268 2.36098 3.33172 2.50815 3.33172 2.6616V3.2402H2.75312C2.29276 3.2402 1.85126 3.42308 1.52573 3.7486C1.20021 4.07413 1.01733 4.51563 1.01733 4.97599V11.9191C1.01733 12.3795 1.20021 12.821 1.52573 13.1465C1.85126 13.4721 2.29276 13.6549 2.75312 13.6549H12.0107C12.471 13.6549 12.9125 13.4721 13.2381 13.1465C13.5636 12.821 13.7465 12.3795 13.7465 11.9191V4.97599C13.7465 4.51563 13.5636 4.07413 13.2381 3.7486C12.9125 3.42308 12.471 3.2402 12.0107 3.2402ZM2.17453 4.97599C2.17453 4.82254 2.23549 4.67537 2.34399 4.56686C2.4525 4.45835 2.59967 4.39739 2.75312 4.39739H12.0107C12.1641 4.39739 12.3113 4.45835 12.4198 4.56686C12.5283 4.67537 12.5893 4.82254 12.5893 4.97599V5.55459H2.17453V4.97599ZM12.5893 11.9191C12.5893 12.0726 12.5283 12.2198 12.4198 12.3283C12.3113 12.4368 12.1641 12.4977 12.0107 12.4977H2.75312C2.59967 12.4977 2.4525 12.4368 2.34399 12.3283C2.23549 12.2198 2.17453 12.0726 2.17453 11.9191V6.71178H12.5893V11.9191Z" fill="#C8134A"/>
<path d="M4.6047 7.8689H3.79466C3.53902 7.8689 3.33179 8.07613 3.33179 8.33177V9.14181C3.33179 9.39745 3.53902 9.60469 3.79466 9.60469H4.6047C4.86034 9.60469 5.06758 9.39745 5.06758 9.14181V8.33177C5.06758 8.07613 4.86034 7.8689 4.6047 7.8689Z" fill="#C8134A"/>
<path d="M7.49752 7.8689H6.68749C6.43185 7.8689 6.22461 8.07613 6.22461 8.33177V9.14181C6.22461 9.39745 6.43185 9.60469 6.68749 9.60469H7.49752C7.75316 9.60469 7.9604 9.39745 7.9604 9.14181V8.33177C7.9604 8.07613 7.75316 7.8689 7.49752 7.8689Z" fill="#C8134A"/>
</svg>
