<svg width="7" height="5" viewBox="0 0 7 5" fill="none" xmlns="http://www.w3.org/2000/svg">
<path d="M3.11957 4.08637C3.24241 4.19706 3.40191 4.25832 3.56726 4.25832C3.73262 4.25832 3.89211 4.19706 4.01495 4.08637L6.44682 1.77056C6.54977 1.66701 6.60755 1.52692 6.60755 1.38091C6.60755 1.23489 6.54977 1.09481 6.44682 0.991256C6.39544 0.939452 6.33431 0.898335 6.26696 0.870275C6.19961 0.842215 6.12737 0.827768 6.05441 0.827768C5.98144 0.827768 5.9092 0.842215 5.84185 0.870275C5.7745 0.898335 5.71337 0.939452 5.66199 0.991256L3.63358 2.90359C3.60837 2.92575 3.57595 2.93796 3.54239 2.93796C3.50883 2.93796 3.47641 2.92575 3.45119 2.90359L1.16855 0.919405C1.05787 0.822659 0.913303 0.773839 0.766637 0.783686C0.61997 0.793533 0.483223 0.86124 0.386477 0.971911C0.28973 1.08258 0.240911 1.22715 0.250758 1.37382C0.260605 1.52049 0.328311 1.65723 0.438983 1.75398L3.11957 4.08637Z" fill="#C8134A"/>
</svg>
