<svg width="15" height="25" viewBox="0 0 15 25" fill="none" xmlns="http://www.w3.org/2000/svg">
<path d="M1.41014 20.9585C1.22596 21.1692 1.08508 21.4141 0.995551 21.6792C0.906019 21.9443 0.869586 22.2245 0.888332 22.5037C0.907077 22.7829 0.980635 23.0557 1.1048 23.3065C1.22897 23.5573 1.40132 23.7812 1.61201 23.9653C2.03752 24.3373 2.59336 24.525 3.15726 24.4872C3.43647 24.4684 3.70926 24.3948 3.96005 24.2707C4.21084 24.1465 4.43471 23.9742 4.61889 23.7635L13.5864 13.4572C14.012 12.9849 14.2475 12.3717 14.2475 11.736C14.2475 11.1002 14.012 10.487 13.5864 10.0147L4.68264 0.664719C4.28449 0.268935 3.74591 0.0467834 3.18451 0.0467834C2.62312 0.0467834 2.08453 0.268935 1.68639 0.664719C1.48722 0.862265 1.32913 1.09729 1.22124 1.35624C1.11336 1.61519 1.05782 1.89294 1.05782 2.17347C1.05782 2.45399 1.11336 2.73174 1.22124 2.99069C1.32913 3.24964 1.48722 3.48467 1.68639 3.68222L9.18764 11.566C9.27281 11.6629 9.31978 11.7875 9.31978 11.9166C9.31978 12.0456 9.27281 12.1703 9.18764 12.2672L1.41014 20.9585Z" fill="white"/>
</svg>
