<svg width="14" height="25" viewBox="0 0 14 25" fill="none" xmlns="http://www.w3.org/2000/svg">
<path d="M9.62861 23.8272C10.0268 24.223 10.5653 24.4452 11.1267 24.4452C11.6881 24.4452 12.2267 24.223 12.6249 23.8272C12.824 23.6297 12.9821 23.3946 13.09 23.1357C13.1979 22.8767 13.2534 22.599 13.2534 22.3185C13.2534 22.0379 13.1979 21.7602 13.09 21.5012C12.9821 21.2423 12.824 21.0073 12.6249 20.8097L5.20861 13.011C5.12344 12.914 5.07647 12.7894 5.07647 12.6603C5.07647 12.5313 5.12344 12.4067 5.20861 12.3097L12.8374 3.53347C13.2093 3.10796 13.397 2.55212 13.3592 1.98822C13.3213 1.42432 13.061 0.89856 12.6355 0.526594C12.4248 0.342415 12.1799 0.201537 11.9148 0.112006C11.6496 0.022474 11.3695 -0.0139592 11.0902 0.0047866C10.5263 0.0426455 10.0006 0.302962 9.62861 0.728468L0.661113 11.0347C0.235527 11.507 0 12.1202 0 12.756C0 13.3917 0.235527 14.0049 0.661113 14.4772L9.62861 23.8272Z" fill="white"/>
</svg>
