<svg width="19" height="13" viewBox="0 0 19 13" fill="none" xmlns="http://www.w3.org/2000/svg">
<path fill-rule="evenodd" clip-rule="evenodd" d="M5.09576 1.27029L1.26287 6.05647C1.17076 6.14783 1.09765 6.25653 1.04775 6.37629C0.997855 6.49605 0.972167 6.62451 0.972167 6.75425C0.972167 6.88399 0.997855 7.01245 1.04775 7.13221C1.09765 7.25197 1.17076 7.36067 1.26287 7.45203L5.09575 12.2382C5.26476 12.4173 5.49482 12.5264 5.74041 12.5439C5.986 12.5614 6.22923 12.4862 6.42197 12.333C6.61472 12.1797 6.74293 11.9598 6.78125 11.7166C6.81957 11.4733 6.7652 11.2246 6.62891 11.0196L3.97537 7.77635L17.6558 7.77635C17.9165 7.77635 18.1664 7.67281 18.3507 7.4885C18.5351 7.30419 18.6386 7.05422 18.6386 6.79356C18.6386 6.53291 18.5351 6.28294 18.3507 6.09863C18.1664 5.91432 17.9165 5.81077 17.6558 5.81077L3.97537 5.81077L6.62891 2.48894C6.72232 2.38998 6.79417 2.27269 6.83989 2.14451C6.88561 2.01633 6.90421 1.88005 6.89451 1.74431C6.88482 1.60856 6.84703 1.47631 6.78356 1.35593C6.72008 1.23555 6.63229 1.12966 6.52576 1.04498C6.41922 0.960301 6.29626 0.898668 6.16466 0.863989C6.03307 0.829309 5.8957 0.822339 5.76127 0.843519C5.62683 0.8647 5.49826 0.913569 5.38371 0.987032C5.26915 1.06049 5.17109 1.15695 5.09576 1.27029Z" fill="#C8134A"/>
</svg>
