<svg width="18" height="13" viewBox="0 0 18 13" fill="none" xmlns="http://www.w3.org/2000/svg">
<path fill-rule="evenodd" clip-rule="evenodd" d="M13.8764 12.1728L17.7093 7.38665C17.8014 7.29528 17.8745 7.18659 17.9244 7.06682C17.9743 6.94706 18 6.81861 18 6.68887C18 6.55913 17.9743 6.43067 17.9244 6.31091C17.8745 6.19115 17.8014 6.08245 17.7093 5.99109L13.8764 1.2049C13.7074 1.02585 13.4773 0.916763 13.2318 0.899219C12.9862 0.881675 12.7429 0.956954 12.5502 1.11016C12.3574 1.26337 12.2292 1.48334 12.1909 1.72656C12.1526 1.96977 12.207 2.21851 12.3433 2.42356L14.9968 5.66676L1.31636 5.66676C1.05571 5.66676 0.805731 5.77031 0.621422 5.95462C0.437113 6.13892 0.333571 6.3889 0.333571 6.64955C0.333571 6.9102 0.437113 7.16018 0.621422 7.34449C0.805731 7.5288 1.05571 7.63234 1.31636 7.63234L14.9968 7.63234L12.3433 10.9542C12.2498 11.0531 12.178 11.1704 12.1323 11.2986C12.0866 11.4268 12.068 11.5631 12.0777 11.6988C12.0874 11.8346 12.1251 11.9668 12.1886 12.0872C12.2521 12.2076 12.3399 12.3135 12.4464 12.3981C12.5529 12.4828 12.6759 12.5444 12.8075 12.5791C12.9391 12.6138 13.0765 12.6208 13.2109 12.5996C13.3453 12.5784 13.4739 12.5295 13.5885 12.4561C13.703 12.3826 13.8011 12.2862 13.8764 12.1728Z" fill="#C8134A"/>
</svg>
