<svg width="12" height="8" viewBox="0 0 12 8" fill="none" xmlns="http://www.w3.org/2000/svg">
<path d="M5.42999 6.83999C5.65225 7.04027 5.94082 7.1511 6.23999 7.1511C6.53917 7.1511 6.82774 7.04027 7.04999 6.83999L11.45 2.64999C11.6362 2.46263 11.7408 2.20918 11.7408 1.94499C11.7408 1.68081 11.6362 1.42736 11.45 1.23999C11.357 1.14626 11.2464 1.07187 11.1246 1.0211C11.0027 0.970333 10.872 0.944195 10.74 0.944195C10.608 0.944195 10.4773 0.970333 10.3554 1.0211C10.2336 1.07187 10.123 1.14626 10.03 1.23999L6.35999 4.69999C6.31437 4.74007 6.25572 4.76218 6.19499 4.76218C6.13427 4.76218 6.07561 4.74007 6.02999 4.69999L1.89999 1.10999C1.69975 0.93495 1.43818 0.846621 1.17282 0.864437C0.907454 0.882253 0.660036 1.00475 0.484993 1.20499C0.30995 1.40523 0.221621 1.6668 0.239437 1.93217C0.257253 2.19753 0.379755 2.44495 0.579993 2.61999L5.42999 6.83999Z" fill="#C8134A"/>
</svg>
