<svg width="9" height="5" viewBox="0 0 9 5" fill="none" xmlns="http://www.w3.org/2000/svg">
<path d="M3.79521 4.36893C3.95765 4.51531 4.16855 4.59631 4.3872 4.59631C4.60586 4.59631 4.81676 4.51531 4.9792 4.36893L8.19498 1.30664C8.3311 1.1697 8.40751 0.984464 8.40751 0.791381C8.40751 0.598299 8.3311 0.413061 8.19498 0.276126C8.12704 0.207624 8.0462 0.153252 7.95714 0.116147C7.86808 0.0790427 7.77255 0.0599392 7.67607 0.0599392C7.57959 0.0599392 7.48406 0.0790427 7.395 0.116147C7.30593 0.153252 7.2251 0.207624 7.15716 0.276126L4.47491 2.8049C4.44156 2.83419 4.3987 2.85034 4.35432 2.85034C4.30993 2.85034 4.26707 2.83419 4.23372 2.8049L1.21528 0.181114C1.06893 0.0531826 0.877761 -0.0113733 0.683817 0.00164762C0.489874 0.0146686 0.309046 0.1042 0.181115 0.250546C0.053183 0.396892 -0.0113733 0.588064 0.00164762 0.782008C0.0146686 0.975951 0.1042 1.15678 0.250546 1.28471L3.79521 4.36893Z" fill="white"/>
</svg>
