<svg width="11" height="11" fill="none" xmlns="http://www.w3.org/2000/svg"><path d="M10.083 5.958a.458.458 0 00-.458.459v2.75a.458.458 0 01-.458.458H1.833a.458.458 0 01-.458-.458V1.834a.458.458 0 01.458-.459h2.75a.458.458 0 100-.917h-2.75A1.375 1.375 0 00.458 1.833v7.334a1.375 1.375 0 001.375 1.375h7.334a1.375 1.375 0 001.375-1.375v-2.75a.458.458 0 00-.459-.458z" fill="#CFC8B7"/><path d="M9.167.458H7.333a.458.458 0 100 .917H8.85L4.45 5.78a.458.458 0 10.647.637l4.528-4.52v1.77a.458.458 0 10.917 0V1.834A1.375 1.375 0 009.167.458z" fill="#CFC8B7"/></svg>