<svg width="15" height="15" fill="none" xmlns="http://www.w3.org/2000/svg"><path fill-rule="evenodd" clip-rule="evenodd" d="M12.01 3.24h-.578v-.578a.579.579 0 00-1.157 0v.578H4.489v-.578a.579.579 0 00-1.157 0v.578h-.579a1.736 1.736 0 00-1.736 1.736v6.943a1.736 1.736 0 001.736 1.736h9.258a1.736 1.736 0 001.736-1.736V4.976A1.736 1.736 0 0012.01 3.24zM2.176 4.976a.579.579 0 01.578-.579h9.258a.579.579 0 01.578.579v.579H2.175v-.579zm10.414 6.943a.579.579 0 01-.578.579H2.753a.579.579 0 01-.578-.579V6.712h10.414v5.207z" fill="#C8134A"/><path d="M4.605 7.869h-.81a.463.463 0 00-.463.463v.81c0 .255.207.463.463.463h.81a.463.463 0 00.463-.463v-.81a.463.463 0 00-.463-.463zm2.893 0h-.81a.463.463 0 00-.463.463v.81c0 .255.207.463.462.463h.81a.463.463 0 00.463-.463v-.81a.463.463 0 00-.462-.463z" fill="#C8134A"/></svg>