<svg width="15" height="15" viewBox="0 0 15 15" fill="none" xmlns="http://www.w3.org/2000/svg">
<path fill-rule="evenodd" clip-rule="evenodd" d="M0 13.7845C0 14.0487 0.104542 14.3022 0.290792 14.4895C0.478155 14.6758 0.731607 14.7803 0.995793 14.7803C1.25998 14.7803 1.51343 14.6758 1.70079 14.4895L7.36078 8.82956L13.0208 14.4896C13.1104 14.5943 13.2208 14.6793 13.3448 14.7393C13.4689 14.7993 13.604 14.833 13.7417 14.8384C13.8795 14.8437 14.0168 14.8205 14.1451 14.7702C14.2734 14.7199 14.39 14.6437 14.4874 14.5462C14.5849 14.4488 14.6612 14.3322 14.7114 14.2039C14.7617 14.0756 14.7849 13.9382 14.7796 13.8005C14.7743 13.6628 14.7405 13.5277 14.6805 13.4036C14.6205 13.2795 14.5355 13.1692 14.4308 13.0796L8.77078 7.41956L14.4308 1.75954C14.5355 1.6699 14.6205 1.55958 14.6805 1.43551C14.7405 1.31145 14.7743 1.17632 14.7796 1.0386C14.7849 0.900878 14.7617 0.763546 14.7114 0.635221C14.6612 0.506896 14.5849 0.390348 14.4874 0.292893C14.39 0.195439 14.2734 0.119181 14.1451 0.0689062C14.0168 0.0186316 13.8795 -0.00457431 13.7417 0.000745179C13.604 0.00606467 13.4689 0.0397948 13.3448 0.0998181C13.2208 0.159841 13.1104 0.244862 13.0208 0.349543L7.36078 6.00956L1.70079 0.349569C1.51343 0.163318 1.25998 0.0587769 0.995793 0.0587769C0.731607 0.0587769 0.478155 0.163318 0.290792 0.349569C0.104542 0.536932 0 0.790384 0 1.05457C0 1.31876 0.104542 1.57221 0.290792 1.75957L5.95078 7.41956L0.290792 13.0795C0.104542 13.2669 0 13.5204 0 13.7845Z" fill="white"/>
</svg>
