<svg xmlns="http://www.w3.org/2000/svg" viewBox="0 0 60 46" width="512" height="512"><path d="M53.335 46H6.725A6.703 6.703 0 01.03 39.305V6.695A6.703 6.703 0 016.725 0h46.61a6.702 6.702 0 016.695 6.695v32.61A6.702 6.702 0 0153.335 46zM6.725 2A4.7 4.7 0 002.03 6.695v32.61A4.7 4.7 0 006.725 44h46.61a4.7 4.7 0 004.695-4.695V6.695A4.7 4.7 0 0053.335 2H6.725z"/><path d="M39.03 22c-3.308 0-6-2.691-6-6s2.692-6 6-6c3.309 0 6 2.691 6 6s-2.692 6-6 6zm0-10c-2.206 0-4 1.794-4 4s1.794 4 4 4 4-1.794 4-4-1.795-4-4-4zm14.305 34H30.474a1 1 0 01-.747-1.664l15.556-17.5c.379-.427 1.115-.427 1.495 0l12.521 14.086a1 1 0 01.168 1.066A6.696 6.696 0 0153.335 46zm-20.634-2h20.634c1.654 0 3.17-.871 4.013-2.262L46.03 29.005 32.701 44z"/><path d="M30.474 46H6.724a6.703 6.703 0 01-6.695-6.695v-6.18c0-.245.09-.481.253-.665l17-19.125c.379-.427 1.115-.427 1.495 0l20 22.5a1 1 0 010 1.329l-7.556 8.5a.996.996 0 01-.747.336zM2.03 33.505v5.8A4.7 4.7 0 006.725 44h23.301l6.667-7.5L18.03 15.505l-16 18z"/></svg>