<svg width="21" height="21" fill="none" xmlns="http://www.w3.org/2000/svg"><path d="M6.408 14.915a55.889 55.889 0 003.182 4.501.982.982 0 001.55 0 55.903 55.903 0 003.182-4.5 26.022 26.022 0 001.797-3.298 7.881 7.881 0 00.825-3.075 6.71 6.71 0 00-6.595-6.817A6.71 6.71 0 003.77 8.593a7.881 7.881 0 00.825 3.074 26.025 26.025 0 001.813 3.248zm3.957-11.54a5.061 5.061 0 014.946 5.168 6.413 6.413 0 01-.692 2.399 24.722 24.722 0 01-1.69 3.149c-.915 1.45-1.937 2.82-2.564 3.652-.626-.825-1.649-2.201-2.564-3.693-.634-.979-1.199-2-1.69-3.059a6.413 6.413 0 01-.692-2.398 5.062 5.062 0 014.946-5.17v-.049z" fill="#fff"/><path d="M10.365 10.019a1.649 1.649 0 100-3.298 1.649 1.649 0 000 3.298z" fill="#fff"/></svg>