<svg width="14" height="13" fill="none" xmlns="http://www.w3.org/2000/svg"><path fill-rule="evenodd" clip-rule="evenodd" d="M5.953 0C7.03 0 8.086.303 8.996.872a5.602 5.602 0 012.09 2.344c.456.961.623 2.03.483 3.082a5.528 5.528 0 01-1.276 2.854l2.705 2.654a.698.698 0 01.154.762.717.717 0 01-1.16.227l-2.725-2.702a5.664 5.664 0 01-3.3 1.051A5.713 5.713 0 011.96 9.512 5.526 5.526 0 01.3 5.572c0-1.478.598-2.895 1.66-3.94A5.713 5.713 0 015.967 0h-.014zm0 9.751a4.3 4.3 0 002.36-.704 4.195 4.195 0 001.565-1.876 4.116 4.116 0 00.242-2.414 4.158 4.158 0 00-1.163-2.14A4.271 4.271 0 006.78 1.473a4.314 4.314 0 00-2.454.238 4.234 4.234 0 00-1.907 1.54 4.13 4.13 0 00-.716 2.321c0 1.109.448 2.172 1.244 2.955a4.285 4.285 0 003.005 1.224z" fill="#fff"/></svg>