<svg width="36" height="21" fill="none" xmlns="http://www.w3.org/2000/svg"><path d="M12.676 6.165c-2.62 0-4.753 2.176-4.753 4.85 0 2.676 2.132 4.852 4.753 4.852s4.754-2.176 4.754-4.851-2.133-4.851-4.754-4.851zm0 8.01c-1.706 0-3.095-1.417-3.095-3.16 0-1.741 1.389-3.158 3.095-3.158 1.707 0 3.095 1.417 3.095 3.159 0 1.742-1.388 3.159-3.095 3.159zm12.077-8.01C22.132 6.165 20 8.34 20 11.015c0 2.676 2.132 4.852 4.753 4.852 2.62 0 4.753-2.176 4.753-4.851s-2.132-4.851-4.753-4.851zm0 8.01c-1.707 0-3.095-1.417-3.095-3.16 0-1.741 1.388-3.158 3.095-3.158 1.706 0 3.095 1.417 3.095 3.159 0 1.742-1.389 3.159-3.095 3.159z" fill="#fff"/><path d="M18.756 8.59c-1.088 0-2.114.612-2.747 1.636l1.404.902c.33-.537.82-.846 1.343-.845.479 0 .926.264 1.258.743l1.353-.979c-.643-.926-1.594-1.457-2.611-1.457zm12.822 1.495h-2.901v1.692h2.901v-1.692zm-22.854 0h-2.79v1.692h2.79v-1.692z" fill="#fff"/></svg>