<svg width="137" height="18" fill="none" xmlns="http://www.w3.org/2000/svg"><g clip-path="url(#clip0)" fill-rule="evenodd" clip-rule="evenodd" fill="#CFC8B7"><path d="M0 1.286v15.03h3.282v-6.289h.63c1.783 0 2.457 1.293 2.957 2.988.348 1.115.63 2.275 1.13 3.3h3.565c-.695-1.493-1.174-3.121-1.695-4.727C9.26 9.782 8.412 8.444 6.52 7.953l5.108-6.667h-4.02L3.565 7.53h-.283V1.286H0zm12.108 0h3.738l2.13 5.285c.392 1.07.696 1.962 1.022 2.876h.066c.195-.646.434-1.65.804-2.92l1.587-5.241h3.478l-2.74 7.292c-.89 2.341-1.803 4.616-2.89 5.998-.957 1.227-2.174 1.985-3.891 1.985-.761 0-1.218-.09-1.63-.245l.239-2.72c.26.066.608.11 1.086.11 1.022 0 1.718-.713 1.979-1.404.13-.246.065-.446-.044-.692L12.108 1.286zm14.955 0h9.869v15.03h-3.305V4.073h-3.325v3.568c0 3.858-.479 6.824-2.696 8.162-.739.423-1.739.736-2.913.736l-.413-2.743c.718-.09 1.305-.402 1.674-.803.892-.937 1.109-2.854 1.109-5.129V1.286zm12.76 0h3.304v5.218a19.11 19.11 0 011.782-.112c3.152 0 5.826 1.539 5.826 4.884 0 1.427-.457 2.498-1.174 3.278-1.413 1.472-3.87 1.918-6.152 1.918-1.63 0-2.847-.112-3.586-.223V1.286zm3.282 7.805v4.75c.37.066.76.089 1.239.089 1.608 0 2.913-.803 2.913-2.498 0-1.717-1.283-2.43-2.87-2.43-.478 0-.87.044-1.282.089zm10.651 7.225V4.14h-3.934V1.286h11.26V4.14h-4v12.176h-3.326zm8.26-15.03l4.935 10.324c.108.246.174.446.043.692-.26.691-.956 1.405-1.978 1.405-.478 0-.826-.045-1.087-.112l-.239 2.72c.413.157.87.246 1.63.246 1.718 0 2.935-.758 3.891-1.985 1.087-1.382 2-3.657 2.891-5.998l2.74-7.292h-3.479l-1.587 5.24c-.369 1.271-.608 2.275-.804 2.921h-.065c-.326-.914-.63-1.806-1.022-2.876l-2.13-5.285h-3.739zm14.151 15.03V1.486c1.022-.178 2.457-.312 4.478-.312 2.043 0 3.5.402 4.478 1.204.935.759 1.565 2.007 1.565 3.48 0 1.471-.478 2.72-1.348 3.567-1.13 1.093-2.804 1.583-4.76 1.583-.435 0-.826-.022-1.13-.066v5.374h-3.283zM79.45 3.873V8.31c.282.067.63.09 1.108.09 1.76 0 2.848-.915 2.848-2.454 0-1.382-.935-2.207-2.587-2.207-.674 0-1.13.067-1.37.134zm15.629 8.585h-4.196l-1.043 3.858h-3.434l4.477-15.03h4.348l4.543 15.03h-3.565l-1.13-3.858zm-3.717-2.542H94.6l-.912-3.19c-.261-.891-.522-2.006-.74-2.898h-.043c-.217.892-.435 2.03-.674 2.899l-.87 3.189zm11.955 6.645c1.174 0 1.956-.87 1.956-2.052 0-1.226-.782-2.074-1.934-2.074s-1.957.87-1.957 2.074c0 1.182.805 2.052 1.935 2.052zm4.225-.32V1.412c1.022-.178 2.457-.312 4.478-.312 2.043 0 3.5.401 4.478 1.204.935.758 1.565 2.007 1.565 3.479 0 1.471-.478 2.72-1.348 3.568-1.13 1.092-2.804 1.583-4.76 1.583a8.06 8.06 0 01-1.13-.067v5.374h-3.283zm3.283-12.443v4.438c.282.067.63.089 1.108.089 1.761 0 2.848-.914 2.848-2.453 0-1.383-.935-2.208-2.587-2.208-.674 0-1.13.067-1.369.134zm14.89-3.211h3.108v1.316c3.108.223 6.239 2.096 6.239 6.779 0 4.638-3.044 6.511-6.282 6.823v1.36h-3.109v-1.36c-3.174-.245-6.239-2.096-6.239-6.712 0-4.75 3.457-6.645 6.283-6.89V.587zm-.022 12.555v-8.92c-1.283.178-2.935 1.338-2.935 4.504 0 2.944 1.631 4.237 2.935 4.415zm3.108-8.92v8.92c1.283-.157 2.935-1.272 2.935-4.46 0-3.167-1.565-4.282-2.935-4.46z"/></g><defs><clipPath id="clip0"><path fill="#fff" d="M0 0h136.144v17.605H0z"/></clipPath></defs></svg>