<svg width="49" height="20" fill="none" xmlns="http://www.w3.org/2000/svg"><g clip-path="url(#clip0)" fill="#C8134A"><path d="M9.949 6.601h4.619v4.296h-4.62V6.6zm19.401 4.317h-4.662V6.651h4.662v4.267zm-24.7 9.068H.013V15.69H4.65v4.296zM9.914 6.279V2.207h4.664v4.072H9.914zm14.78-4.097h4.65v4.091h-4.65V2.182zm-9.72 4.44h4.457v4.273h-4.457V6.623zm4.853 0h4.471V10.9h-4.47V6.622zm14.429.034v4.228H29.76V6.656h4.496zm4.829 4.262h-4.462v-4.28h4.462v4.28zM4.664 15.354H0v-4.078h4.664v4.078zm.361 4.591v-4.228h4.498v4.228H5.025zM44.111 20h-4.43v-4.296h4.43V20zm.426-4.312H49v4.26h-4.463v-4.26zM14.96 6.286V2.2h4.487v4.086H14.96zm4.888-4.108h4.464v4.087h-4.464V2.178zm14.382.02v4.09h-4.464v-4.09h4.463zm4.853 4.09h-4.458V2.196h4.458v4.092zm-29.56 9.066H5.054v-4.078h4.47v4.078zm34.617.003h-4.465v-4.099h4.466v4.1zm4.856-.003h-4.455v-4.092h4.455v4.091zM9.473 10.779H5.18C5.146 8.71 7.09 6.912 9.473 6.82v3.958zm30.185-3.978c2.42.18 4.291 1.873 4.317 3.953h-4.317V6.8zM20.586 1.684C21.905 1.08 22.987.558 24.097.091A1.33 1.33 0 0125 .068a26.015 26.015 0 013.25 1.61l-7.664.006zm18.518 9.624v2.907l-3.14-2.907h3.14zm-28.987-.001h3.082l-3.082 2.756v-2.756z"/></g><defs><clipPath id="clip0"><path fill="#fff" d="M0 0h49v20H0z"/></clipPath></defs></svg>