<svg xmlns="http://www.w3.org/2000/svg" xmlns:xlink="http://www.w3.org/1999/xlink"><symbol id="action" viewBox="0 0 11 11">
<path d="M10.0833 5.9585C9.96169 5.9585 9.84511 6.00678 9.75916 6.09274C9.67321 6.17869 9.62492 6.29527 9.62492 6.41683V9.16683C9.62492 9.28839 9.57663 9.40497 9.49067 9.49092C9.40472 9.57687 9.28814 9.62516 9.16658 9.62516H1.83325C1.71169 9.62516 1.59512 9.57687 1.50916 9.49092C1.42321 9.40497 1.37492 9.28839 1.37492 9.16683V1.8335C1.37492 1.71194 1.42321 1.59536 1.50916 1.50941C1.59512 1.42345 1.71169 1.37516 1.83325 1.37516H4.58325C4.70481 1.37516 4.82139 1.32687 4.90734 1.24092C4.9933 1.15497 5.04158 1.03839 5.04158 0.916829C5.04158 0.795272 4.9933 0.678693 4.90734 0.592739C4.82139 0.506785 4.70481 0.458496 4.58325 0.458496H1.83325C1.46858 0.458496 1.11884 0.603362 0.86098 0.861224C0.603118 1.11909 0.458252 1.46882 0.458252 1.8335V9.16683C0.458252 9.5315 0.603118 9.88124 0.86098 10.1391C1.11884 10.397 1.46858 10.5418 1.83325 10.5418H9.16658C9.53126 10.5418 9.88099 10.397 10.1389 10.1391C10.3967 9.88124 10.5416 9.5315 10.5416 9.16683V6.41683C10.5416 6.29527 10.4933 6.17869 10.4073 6.09274C10.3214 6.00678 10.2048 5.9585 10.0833 5.9585Z" fill="#CFC8B7"/>
<path d="M9.16668 0.458496H7.33335C7.21179 0.458496 7.09521 0.506785 7.00926 0.592739C6.9233 0.678693 6.87502 0.795272 6.87502 0.916829C6.87502 1.03839 6.9233 1.15497 7.00926 1.24092C7.09521 1.32687 7.21179 1.37516 7.33335 1.37516H8.85043L4.45043 5.77975C4.39819 5.81953 4.35511 5.87006 4.3241 5.92794C4.2931 5.98582 4.27489 6.04968 4.27071 6.11521C4.26652 6.18073 4.27647 6.24639 4.29987 6.30774C4.32327 6.36909 4.35958 6.42469 4.40634 6.47079C4.4531 6.51688 4.50922 6.55239 4.57089 6.57492C4.63257 6.59744 4.69836 6.60645 4.76382 6.60133C4.82928 6.59621 4.89288 6.57709 4.95031 6.54526C5.00773 6.51343 5.05765 6.46963 5.09668 6.41683L9.62502 1.89766V3.66683C9.62502 3.78839 9.6733 3.90497 9.75926 3.99092C9.84521 4.07687 9.96179 4.12516 10.0833 4.12516C10.2049 4.12516 10.3215 4.07687 10.4074 3.99092C10.4934 3.90497 10.5417 3.78839 10.5417 3.66683V1.8335C10.5417 1.46882 10.3968 1.11909 10.139 0.861224C9.88109 0.603362 9.53135 0.458496 9.16668 0.458496Z" fill="#CFC8B7"/>
</symbol><symbol id="arrow_left_pink" viewBox="0 0 13 32">
<path d="M0 16L10.5 1L12.5 0L13 1.5C10.3333 5.16667 6 11.2 6 16C6 20.8 10.3333 26.8333 13 30.5L12.5 32L10.5 31L0 16Z" fill="#C8134A"/>
</symbol><symbol id="arrow_right_pink" viewBox="0 0 13 33">
<path d="M13 16.2285L2.5 31.2285L0.5 32.2285L-1.31134e-07 30.7285C2.66667 27.0618 7 21.0285 7 16.2285C7 11.4285 2.66666 5.39518 -2.66639e-06 1.72852L0.499997 0.228517L2.5 1.22852L13 16.2285Z" fill="#C8134A"/>
</symbol><symbol id="calendar-icon" viewBox="0 0 15 15">
<path fill-rule="evenodd" clip-rule="evenodd" d="M12.0107 3.2402H11.4321V2.6616C11.4321 2.50815 11.3711 2.36098 11.2626 2.25247C11.1541 2.14397 11.0069 2.08301 10.8535 2.08301C10.7 2.08301 10.5528 2.14397 10.4443 2.25247C10.3358 2.36098 10.2749 2.50815 10.2749 2.6616V3.2402H4.48891V2.6616C4.48891 2.50815 4.42795 2.36098 4.31944 2.25247C4.21094 2.14397 4.06377 2.08301 3.91032 2.08301C3.75686 2.08301 3.60969 2.14397 3.50119 2.25247C3.39268 2.36098 3.33172 2.50815 3.33172 2.6616V3.2402H2.75312C2.29276 3.2402 1.85126 3.42308 1.52573 3.7486C1.20021 4.07413 1.01733 4.51563 1.01733 4.97599V11.9191C1.01733 12.3795 1.20021 12.821 1.52573 13.1465C1.85126 13.4721 2.29276 13.6549 2.75312 13.6549H12.0107C12.471 13.6549 12.9125 13.4721 13.2381 13.1465C13.5636 12.821 13.7465 12.3795 13.7465 11.9191V4.97599C13.7465 4.51563 13.5636 4.07413 13.2381 3.7486C12.9125 3.42308 12.471 3.2402 12.0107 3.2402ZM2.17453 4.97599C2.17453 4.82254 2.23549 4.67537 2.34399 4.56686C2.4525 4.45835 2.59967 4.39739 2.75312 4.39739H12.0107C12.1641 4.39739 12.3113 4.45835 12.4198 4.56686C12.5283 4.67537 12.5893 4.82254 12.5893 4.97599V5.55459H2.17453V4.97599ZM12.5893 11.9191C12.5893 12.0726 12.5283 12.2198 12.4198 12.3283C12.3113 12.4368 12.1641 12.4977 12.0107 12.4977H2.75312C2.59967 12.4977 2.4525 12.4368 2.34399 12.3283C2.23549 12.2198 2.17453 12.0726 2.17453 11.9191V6.71178H12.5893V11.9191Z" fill="#C8134A"/>
<path d="M4.6047 7.8689H3.79466C3.53902 7.8689 3.33179 8.07613 3.33179 8.33177V9.14181C3.33179 9.39745 3.53902 9.60469 3.79466 9.60469H4.6047C4.86034 9.60469 5.06758 9.39745 5.06758 9.14181V8.33177C5.06758 8.07613 4.86034 7.8689 4.6047 7.8689Z" fill="#C8134A"/>
<path d="M7.49752 7.8689H6.68749C6.43185 7.8689 6.22461 8.07613 6.22461 8.33177V9.14181C6.22461 9.39745 6.43185 9.60469 6.68749 9.60469H7.49752C7.75316 9.60469 7.9604 9.39745 7.9604 9.14181V8.33177C7.9604 8.07613 7.75316 7.8689 7.49752 7.8689Z" fill="#C8134A"/>
</symbol><symbol id="cross" viewBox="0 0 15 15">
<path fill-rule="evenodd" clip-rule="evenodd" d="M0 13.7845C0 14.0487 0.104542 14.3022 0.290792 14.4895C0.478155 14.6758 0.731607 14.7803 0.995793 14.7803C1.25998 14.7803 1.51343 14.6758 1.70079 14.4895L7.36078 8.82956L13.0208 14.4896C13.1104 14.5943 13.2208 14.6793 13.3448 14.7393C13.4689 14.7993 13.604 14.833 13.7417 14.8384C13.8795 14.8437 14.0168 14.8205 14.1451 14.7702C14.2734 14.7199 14.39 14.6437 14.4874 14.5462C14.5849 14.4488 14.6612 14.3322 14.7114 14.2039C14.7617 14.0756 14.7849 13.9382 14.7796 13.8005C14.7743 13.6628 14.7405 13.5277 14.6805 13.4036C14.6205 13.2795 14.5355 13.1692 14.4308 13.0796L8.77078 7.41956L14.4308 1.75954C14.5355 1.6699 14.6205 1.55958 14.6805 1.43551C14.7405 1.31145 14.7743 1.17632 14.7796 1.0386C14.7849 0.900878 14.7617 0.763546 14.7114 0.635221C14.6612 0.506896 14.5849 0.390348 14.4874 0.292893C14.39 0.195439 14.2734 0.119181 14.1451 0.0689062C14.0168 0.0186316 13.8795 -0.00457431 13.7417 0.000745179C13.604 0.00606467 13.4689 0.0397948 13.3448 0.0998181C13.2208 0.159841 13.1104 0.244862 13.0208 0.349543L7.36078 6.00956L1.70079 0.349569C1.51343 0.163318 1.25998 0.0587769 0.995793 0.0587769C0.731607 0.0587769 0.478155 0.163318 0.290792 0.349569C0.104542 0.536932 0 0.790384 0 1.05457C0 1.31876 0.104542 1.57221 0.290792 1.75957L5.95078 7.41956L0.290792 13.0795C0.104542 13.2669 0 13.5204 0 13.7845Z" fill="white"/>
</symbol><symbol id="dislike" viewBox="0 0 22 26">
<path d="M19.3125 0.916504H7.21875C6.10789 0.916504 5.14937 1.58838 4.74625 2.55588L0.688124 12.0338C0.571638 12.3384 0.5 12.6609 0.5 13.0103V15.2499C0.5 16.2353 1.30625 17.0415 2.29164 17.0415H11.5814L10.3899 22.73C10.363 22.8644 10.3452 23.0078 10.3452 23.151C10.3452 23.7064 10.5691 24.2081 10.9364 24.5754L12.3608 25.9998L21.2116 17.1489C21.6954 16.6652 22 15.9933 22 15.2498V3.604C22 2.11698 20.7996 0.916504 19.3125 0.916504Z" fill="#CFC8B7"/>
</symbol><symbol id="lang-arrow" viewBox="0 0 7 5">
<path d="M3.11957 4.08637C3.24241 4.19706 3.40191 4.25832 3.56726 4.25832C3.73262 4.25832 3.89211 4.19706 4.01495 4.08637L6.44682 1.77056C6.54977 1.66701 6.60755 1.52692 6.60755 1.38091C6.60755 1.23489 6.54977 1.09481 6.44682 0.991256C6.39544 0.939452 6.33431 0.898335 6.26696 0.870275C6.19961 0.842215 6.12737 0.827768 6.05441 0.827768C5.98144 0.827768 5.9092 0.842215 5.84185 0.870275C5.7745 0.898335 5.71337 0.939452 5.66199 0.991256L3.63358 2.90359C3.60837 2.92575 3.57595 2.93796 3.54239 2.93796C3.50883 2.93796 3.47641 2.92575 3.45119 2.90359L1.16855 0.919405C1.05787 0.822659 0.913303 0.773839 0.766637 0.783686C0.61997 0.793533 0.483223 0.86124 0.386477 0.971911C0.28973 1.08258 0.240911 1.22715 0.250758 1.37382C0.260605 1.52049 0.328311 1.65723 0.438983 1.75398L3.11957 4.08637Z" fill="#C8134A"/>
</symbol><symbol id="like" viewBox="0 0 22 26">
<path d="M21.5 10.75C21.5 9.76461 20.6938 8.95836 19.7084 8.95836H10.4185L11.61 3.26985C11.6369 3.13547 11.6548 2.99211 11.6548 2.84883C11.6548 2.29345 11.4308 1.79172 11.0635 1.42446L9.63914 0L0.788361 8.85086C0.304611 9.33461 0 10.0065 0 10.75V22.3959C0 23.883 1.20039 25.0834 2.6875 25.0834H14.7812C15.8921 25.0834 16.8506 24.4115 17.2537 23.444L21.3119 13.9661C21.4284 13.6615 21.5 13.339 21.5 12.9896V10.75Z" fill="#CFC8B7"/>
</symbol><symbol id="map-pin" viewBox="0 0 21 21">
<path d="M6.40833 14.9153C7.73553 17.0256 9.16165 18.8722 9.59031 19.4162C9.68201 19.5343 9.7995 19.6299 9.9338 19.6957C10.0681 19.7615 10.2157 19.7956 10.3652 19.7956C10.5147 19.7956 10.6623 19.7615 10.7966 19.6957C10.9309 19.6299 11.0484 19.5343 11.1401 19.4162C11.5687 18.8722 12.9949 17.0256 14.3221 14.9153C14.9997 13.8609 15.6003 12.7589 16.1191 11.6179C16.6002 10.6597 16.8807 9.61342 16.9435 8.54307C16.9722 6.76476 16.2936 5.04781 15.0571 3.76949C13.8205 2.49117 12.127 1.75607 10.3487 1.72572C9.46533 1.74284 8.59404 1.93425 7.78483 2.28896C6.97562 2.64367 6.24443 3.1547 5.63322 3.79271C5.02201 4.43073 4.54282 5.18317 4.22315 6.00685C3.90348 6.83053 3.74962 7.70924 3.77041 8.59253C3.83317 9.66288 4.11367 10.7092 4.59476 11.6674C5.12103 12.7919 5.7271 13.8773 6.40833 14.9153ZM10.3652 3.37441C11.7062 3.40469 12.9804 3.96606 13.9078 4.9352C14.8352 5.90434 15.34 7.20199 15.3113 8.54307C15.2398 9.38033 15.0046 10.1954 14.6188 10.9419C14.1322 12.031 13.5674 13.0834 12.9289 14.0909C12.0139 15.5418 10.9917 16.9102 10.3652 17.7428C9.73869 16.9184 8.7165 15.5418 7.80147 14.0497C7.16676 13.0714 6.60205 12.0494 6.11156 10.9914C5.72582 10.2449 5.49055 9.42979 5.41911 8.59253C5.39037 7.25145 5.89514 5.95381 6.82255 4.98466C7.74996 4.01552 9.02415 3.45415 10.3652 3.42387V3.37441Z" fill="white"/>
<path d="M10.3652 10.0187C11.2758 10.0187 12.0139 9.28051 12.0139 8.36996C12.0139 7.45941 11.2758 6.72126 10.3652 6.72126C9.4547 6.72126 8.71655 7.45941 8.71655 8.36996C8.71655 9.28051 9.4547 10.0187 10.3652 10.0187Z" fill="white"/>
</symbol><symbol id="menu" viewBox="0 0 16 10">
<path d="M0.562988 4.7C0.562988 4.3134 0.876389 4 1.26299 4H14.863C15.2496 4 15.563 4.3134 15.563 4.7C15.563 5.0866 15.2496 5.4 14.863 5.4H1.26299C0.876389 5.4 0.562988 5.0866 0.562988 4.7Z" fill="white"/>
<path d="M0.562988 8.7C0.562988 8.3134 0.876389 8 1.26299 8H14.863C15.2496 8 15.563 8.3134 15.563 8.7C15.563 9.0866 15.2496 9.4 14.863 9.4H1.26299C0.876389 9.4 0.562988 9.0866 0.562988 8.7Z" fill="white"/>
<path d="M0.562988 0.7C0.562988 0.313401 0.876389 0 1.26299 0H14.863C15.2496 0 15.563 0.313401 15.563 0.7C15.563 1.0866 15.2496 1.4 14.863 1.4H1.26299C0.876389 1.4 0.562988 1.0866 0.562988 0.7Z" fill="white"/>
</symbol><symbol id="next-arrow" viewBox="0 0 15 25">
<path d="M1.41014 20.9585C1.22596 21.1692 1.08508 21.4141 0.995551 21.6792C0.906019 21.9443 0.869586 22.2245 0.888332 22.5037C0.907077 22.7829 0.980635 23.0557 1.1048 23.3065C1.22897 23.5573 1.40132 23.7812 1.61201 23.9653C2.03752 24.3373 2.59336 24.525 3.15726 24.4872C3.43647 24.4684 3.70926 24.3948 3.96005 24.2707C4.21084 24.1465 4.43471 23.9742 4.61889 23.7635L13.5864 13.4572C14.012 12.9849 14.2475 12.3717 14.2475 11.736C14.2475 11.1002 14.012 10.487 13.5864 10.0147L4.68264 0.664719C4.28449 0.268935 3.74591 0.0467834 3.18451 0.0467834C2.62312 0.0467834 2.08453 0.268935 1.68639 0.664719C1.48722 0.862265 1.32913 1.09729 1.22124 1.35624C1.11336 1.61519 1.05782 1.89294 1.05782 2.17347C1.05782 2.45399 1.11336 2.73174 1.22124 2.99069C1.32913 3.24964 1.48722 3.48467 1.68639 3.68222L9.18764 11.566C9.27281 11.6629 9.31978 11.7875 9.31978 11.9166C9.31978 12.0456 9.27281 12.1703 9.18764 12.2672L1.41014 20.9585Z" fill="white"/>
</symbol><symbol id="prev-arrow" viewBox="0 0 14 25">
<path d="M9.62861 23.8272C10.0268 24.223 10.5653 24.4452 11.1267 24.4452C11.6881 24.4452 12.2267 24.223 12.6249 23.8272C12.824 23.6297 12.9821 23.3946 13.09 23.1357C13.1979 22.8767 13.2534 22.599 13.2534 22.3185C13.2534 22.0379 13.1979 21.7602 13.09 21.5012C12.9821 21.2423 12.824 21.0073 12.6249 20.8097L5.20861 13.011C5.12344 12.914 5.07647 12.7894 5.07647 12.6603C5.07647 12.5313 5.12344 12.4067 5.20861 12.3097L12.8374 3.53347C13.2093 3.10796 13.397 2.55212 13.3592 1.98822C13.3213 1.42432 13.061 0.89856 12.6355 0.526594C12.4248 0.342415 12.1799 0.201537 11.9148 0.112006C11.6496 0.022474 11.3695 -0.0139592 11.0902 0.0047866C10.5263 0.0426455 10.0006 0.302962 9.62861 0.728468L0.661113 11.0347C0.235527 11.507 0 12.1202 0 12.756C0 13.3917 0.235527 14.0049 0.661113 14.4772L9.62861 23.8272Z" fill="white"/>
</symbol><symbol id="preview-slider-next-arrow" viewBox="0 0 18 13">
<path fill-rule="evenodd" clip-rule="evenodd" d="M13.8764 12.1728L17.7093 7.38665C17.8014 7.29528 17.8745 7.18659 17.9244 7.06682C17.9743 6.94706 18 6.81861 18 6.68887C18 6.55913 17.9743 6.43067 17.9244 6.31091C17.8745 6.19115 17.8014 6.08245 17.7093 5.99109L13.8764 1.2049C13.7074 1.02585 13.4773 0.916763 13.2318 0.899219C12.9862 0.881675 12.7429 0.956954 12.5502 1.11016C12.3574 1.26337 12.2292 1.48334 12.1909 1.72656C12.1526 1.96977 12.207 2.21851 12.3433 2.42356L14.9968 5.66676L1.31636 5.66676C1.05571 5.66676 0.805731 5.77031 0.621422 5.95462C0.437113 6.13892 0.333571 6.3889 0.333571 6.64955C0.333571 6.9102 0.437113 7.16018 0.621422 7.34449C0.805731 7.5288 1.05571 7.63234 1.31636 7.63234L14.9968 7.63234L12.3433 10.9542C12.2498 11.0531 12.178 11.1704 12.1323 11.2986C12.0866 11.4268 12.068 11.5631 12.0777 11.6988C12.0874 11.8346 12.1251 11.9668 12.1886 12.0872C12.2521 12.2076 12.3399 12.3135 12.4464 12.3981C12.5529 12.4828 12.6759 12.5444 12.8075 12.5791C12.9391 12.6138 13.0765 12.6208 13.2109 12.5996C13.3453 12.5784 13.4739 12.5295 13.5885 12.4561C13.703 12.3826 13.8011 12.2862 13.8764 12.1728Z" fill="#C8134A"/>
</symbol><symbol id="preview-slider-prev-arrow" viewBox="0 0 19 13">
<path fill-rule="evenodd" clip-rule="evenodd" d="M5.09576 1.27029L1.26287 6.05647C1.17076 6.14783 1.09765 6.25653 1.04775 6.37629C0.997855 6.49605 0.972167 6.62451 0.972167 6.75425C0.972167 6.88399 0.997855 7.01245 1.04775 7.13221C1.09765 7.25197 1.17076 7.36067 1.26287 7.45203L5.09575 12.2382C5.26476 12.4173 5.49482 12.5264 5.74041 12.5439C5.986 12.5614 6.22923 12.4862 6.42197 12.333C6.61472 12.1797 6.74293 11.9598 6.78125 11.7166C6.81957 11.4733 6.7652 11.2246 6.62891 11.0196L3.97537 7.77635L17.6558 7.77635C17.9165 7.77635 18.1664 7.67281 18.3507 7.4885C18.5351 7.30419 18.6386 7.05422 18.6386 6.79356C18.6386 6.53291 18.5351 6.28294 18.3507 6.09863C18.1664 5.91432 17.9165 5.81077 17.6558 5.81077L3.97537 5.81077L6.62891 2.48894C6.72232 2.38998 6.79417 2.27269 6.83989 2.14451C6.88561 2.01633 6.90421 1.88005 6.89451 1.74431C6.88482 1.60856 6.84703 1.47631 6.78356 1.35593C6.72008 1.23555 6.63229 1.12966 6.52576 1.04498C6.41922 0.960301 6.29626 0.898668 6.16466 0.863989C6.03307 0.829309 5.8957 0.822339 5.76127 0.843519C5.62683 0.8647 5.49826 0.913569 5.38371 0.987032C5.26915 1.06049 5.17109 1.15695 5.09576 1.27029Z" fill="#C8134A"/>
</symbol><symbol id="read-less-icon" viewBox="0 0 22 15">
<path d="M11 0.5L20.8437 7.18182L21.5 8.45455L20.5156 8.77273C18.1094 7.07576 14.15 4.31818 11 4.31818C7.85 4.31818 3.89062 7.07576 1.48437 8.77273L0.5 8.45455L1.15625 7.18182L11 0.5Z" fill="#B69953"/>
<path d="M11 6.22727L20.8437 12.9091L21.5 14.1818L20.5156 14.5C18.1094 12.803 14.15 10.0455 11 10.0455C7.85 10.0455 3.89062 12.803 1.48437 14.5L0.499999 14.1818L1.15625 12.9091L11 6.22727Z" fill="#B69953"/>
</symbol><symbol id="read-more-icon" viewBox="0 0 21 15">
<path d="M10.5 14.5L20.3437 7.81818L21 6.54545L20.0156 6.22727C17.6094 7.92424 13.65 10.6818 10.5 10.6818C7.35 10.6818 3.39062 7.92424 0.984375 6.22727L-3.47704e-07 6.54545L0.65625 7.81818L10.5 14.5Z" fill="#C8134A"/>
<path d="M10.5 8.77273L20.3437 2.09091L21 0.818181L20.0156 0.499999C17.6094 2.19697 13.65 4.95455 10.5 4.95455C7.35 4.95455 3.39062 2.19697 0.984374 0.5L-5.98051e-07 0.818182L0.656249 2.09091L10.5 8.77273Z" fill="#C8134A"/>
</symbol><symbol id="search" viewBox="0 0 14 13">
<path fill-rule="evenodd" clip-rule="evenodd" d="M5.95256 0C7.0307 3.78427e-05 8.08645 0.302706 8.99579 0.872453C9.90513 1.4422 10.6303 2.25536 11.0861 3.21643C11.5419 4.17749 11.7094 5.24654 11.569 6.29801C11.4286 7.34947 10.986 8.33969 10.2933 9.15233L12.9983 11.8061C13.0643 11.871 13.1167 11.9481 13.1524 12.033C13.1882 12.1178 13.2065 12.2088 13.2065 12.3006C13.2065 12.3925 13.1882 12.4834 13.1524 12.5683C13.1167 12.6531 13.0643 12.7302 12.9983 12.7952C12.865 12.9263 12.6841 13 12.4955 13C12.4022 13 12.3097 12.9819 12.2234 12.9468C12.1372 12.9116 12.0588 12.8601 11.9928 12.7952L9.26653 10.0926C8.30745 10.7778 7.15209 11.1461 5.96672 11.1444C4.46429 11.1444 3.0234 10.5573 1.96102 9.51233C0.898641 8.46735 0.301805 7.05004 0.301805 5.5722C0.301805 4.09436 0.898641 2.67705 1.96102 1.63206C3.0234 0.587069 4.46429 0 5.96672 0H5.95256ZM5.95256 9.75134C6.79287 9.75134 7.61431 9.50624 8.313 9.04703C9.01169 8.58782 9.55626 7.93513 9.87783 7.17149C10.1994 6.40785 10.2835 5.56756 10.1196 4.75689C9.95567 3.94621 9.55102 3.20156 8.95683 2.61709C8.36264 2.03263 7.6056 1.6346 6.78143 1.47335C5.95727 1.3121 5.103 1.39486 4.32665 1.71117C3.55031 2.02748 2.88675 2.56313 2.4199 3.25039C1.95305 3.93764 1.70387 4.74564 1.70387 5.5722C1.70387 6.68058 2.1515 7.74356 2.94828 8.5273C3.74506 9.31104 4.82573 9.75134 5.95256 9.75134Z" fill="white"/>
</symbol><symbol id="select-arrow-white" viewBox="0 0 9 5">
<path d="M3.79521 4.36893C3.95765 4.51531 4.16855 4.59631 4.3872 4.59631C4.60586 4.59631 4.81676 4.51531 4.9792 4.36893L8.19498 1.30664C8.3311 1.1697 8.40751 0.984464 8.40751 0.791381C8.40751 0.598299 8.3311 0.413061 8.19498 0.276126C8.12704 0.207624 8.0462 0.153252 7.95714 0.116147C7.86808 0.0790427 7.77255 0.0599392 7.67607 0.0599392C7.57959 0.0599392 7.48406 0.0790427 7.395 0.116147C7.30593 0.153252 7.2251 0.207624 7.15716 0.276126L4.47491 2.8049C4.44156 2.83419 4.3987 2.85034 4.35432 2.85034C4.30993 2.85034 4.26707 2.83419 4.23372 2.8049L1.21528 0.181114C1.06893 0.0531826 0.877761 -0.0113733 0.683817 0.00164762C0.489874 0.0146686 0.309046 0.1042 0.181115 0.250546C0.053183 0.396892 -0.0113733 0.588064 0.00164762 0.782008C0.0146686 0.975951 0.1042 1.15678 0.250546 1.28471L3.79521 4.36893Z" fill="white"/>
</symbol><symbol id="select-arrow" viewBox="0 0 12 8">
<path d="M5.42999 6.83999C5.65225 7.04027 5.94082 7.1511 6.23999 7.1511C6.53917 7.1511 6.82774 7.04027 7.04999 6.83999L11.45 2.64999C11.6362 2.46263 11.7408 2.20918 11.7408 1.94499C11.7408 1.68081 11.6362 1.42736 11.45 1.23999C11.357 1.14626 11.2464 1.07187 11.1246 1.0211C11.0027 0.970333 10.872 0.944195 10.74 0.944195C10.608 0.944195 10.4773 0.970333 10.3554 1.0211C10.2336 1.07187 10.123 1.14626 10.03 1.23999L6.35999 4.69999C6.31437 4.74007 6.25572 4.76218 6.19499 4.76218C6.13427 4.76218 6.07561 4.74007 6.02999 4.69999L1.89999 1.10999C1.69975 0.93495 1.43818 0.846621 1.17282 0.864437C0.907454 0.882253 0.660036 1.00475 0.484993 1.20499C0.30995 1.40523 0.221621 1.6668 0.239437 1.93217C0.257253 2.19753 0.379755 2.44495 0.579993 2.61999L5.42999 6.83999Z" fill="#C8134A"/>
</symbol><symbol id="arrow_left_white" viewBox="0 0 13 32">
<path d="M0 16L10.5 1L12.5 0L13 1.5C10.3333 5.16667 6 11.2 6 16C6 20.8 10.3333 26.8333 13 30.5L12.5 32L10.5 31L0 16Z" fill="white"/>
</symbol><symbol id="arrow_right_white" viewBox="0 0 13 32">
<path d="M13 16L2.5 31L0.5 32L1.31134e-07 30.5C2.66667 26.8333 7 20.8 7 16C7 11.2 2.66667 5.16667 2.66639e-06 1.5L0.500003 -1.09278e-06L2.5 0.999999L13 16Z" fill="white"/>
</symbol><symbol id="facebook" viewBox="0 0 22 22">
<g id="Facebook">
<path id="Combined Shape" fill-rule="evenodd" clip-rule="evenodd" d="M10.6772 0.373535C4.78034 0.373535 0 5.15388 0 11.0507C0 16.9476 4.78034 21.7279 10.6772 21.7279C16.574 21.7279 21.3544 16.9476 21.3544 11.0507C21.3544 5.15388 16.574 0.373535 10.6772 0.373535ZM11.4341 11.1639V16.9729H9.0306V11.1641H7.82983V9.16232H9.0306V7.96045C9.0306 6.32739 9.70863 5.3563 11.635 5.3563H13.2387V7.35833H12.2363C11.4864 7.35833 11.4368 7.63808 11.4368 8.16018L11.4341 9.1621H13.2501L13.0376 11.1639H11.4341Z" fill="#CFC8B7"/>
</g>
</symbol><symbol id="instagramm" viewBox="0 0 44 44">
<g id="Instagram">
<path id="Combined Shape" fill-rule="evenodd" clip-rule="evenodd" d="M22.535 0.369141C10.7413 0.369141 1.18066 9.92982 1.18066 21.7235C1.18066 33.5172 10.7413 43.0779 22.535 43.0779C34.3287 43.0779 43.8894 33.5172 43.8894 21.7235C43.8894 9.92982 34.3287 0.369141 22.535 0.369141ZM17.8401 10.403C19.055 10.3477 19.4431 10.3342 22.5362 10.3342H22.5327C25.6267 10.3342 26.0135 10.3477 27.2283 10.403C28.4408 10.4586 29.2689 10.6505 29.9949 10.9322C30.7447 11.2228 31.3782 11.6119 32.0118 12.2455C32.6453 12.8785 33.0344 13.5139 33.3262 14.263C33.6062 14.9872 33.7984 15.8148 33.8554 17.0272C33.9099 18.2421 33.9242 18.6302 33.9242 21.7233C33.9242 24.8164 33.9099 25.2037 33.8554 26.4185C33.7984 27.6305 33.6062 28.4583 33.3262 29.1827C33.0344 29.9316 32.6453 30.567 32.0118 31.2C31.3789 31.8336 30.7445 32.2236 29.9956 32.5145C29.271 32.7962 28.4424 32.9881 27.23 33.0437C26.0151 33.0989 25.6281 33.1125 22.5348 33.1125C19.442 33.1125 19.054 33.0989 17.8392 33.0437C16.6269 32.9881 15.7991 32.7962 15.0745 32.5145C14.3259 32.2236 13.6905 31.8336 13.0576 31.2C12.4244 30.567 12.0352 29.9316 11.7441 29.1825C11.4627 28.4584 11.2707 27.6307 11.215 26.4183C11.1599 25.2034 11.1462 24.8164 11.1462 21.7233C11.1462 18.6302 11.1604 18.2418 11.2147 17.027C11.2693 15.815 11.4615 14.9872 11.7439 14.2628C12.0357 13.5139 12.4248 12.8785 13.0584 12.2455C13.6914 11.6122 14.3268 11.223 15.0759 10.9322C15.8 10.6505 16.6277 10.4586 17.8401 10.403Z" fill="#CFC8B7"/>
<path id="Combined Shape_2" fill-rule="evenodd" clip-rule="evenodd" d="M21.5147 12.3866C21.7131 12.3863 21.9265 12.3864 22.1568 12.3865L22.5364 12.3866C25.5773 12.3866 25.9377 12.3976 27.1386 12.4521C28.249 12.5029 28.8517 12.6884 29.2531 12.8443C29.7846 13.0508 30.1636 13.2975 30.5619 13.6961C30.9606 14.0948 31.2073 14.4744 31.4142 15.0059C31.5701 15.4069 31.7559 16.0096 31.8064 17.12C31.861 18.3206 31.8729 18.6813 31.8729 21.7207C31.8729 24.7602 31.861 25.1209 31.8064 26.3215C31.7557 27.4319 31.5701 28.0346 31.4142 28.4356C31.2078 28.9671 30.9606 29.3455 30.5619 29.7439C30.1633 30.1425 29.7849 30.3893 29.2531 30.5957C28.8522 30.7523 28.249 30.9374 27.1386 30.9882C25.938 31.0427 25.5773 31.0546 22.5364 31.0546C19.4953 31.0546 19.1349 31.0427 17.9343 30.9882C16.8238 30.9369 16.2211 30.7514 15.8194 30.5955C15.288 30.389 14.9083 30.1423 14.5097 29.7437C14.1111 29.345 13.8643 28.9664 13.6574 28.4346C13.5015 28.0336 13.3157 27.431 13.2652 26.3205C13.2106 25.1199 13.1997 24.7593 13.1997 21.7179C13.1997 18.6765 13.2106 18.3178 13.2652 17.1172C13.316 16.0067 13.5015 15.404 13.6574 15.0026C13.8638 14.4711 14.1111 14.0914 14.5097 13.6928C14.9083 13.2942 15.288 13.0474 15.8194 12.8405C16.2209 12.6839 16.8238 12.4989 17.9343 12.4479C18.9849 12.4004 19.3921 12.3862 21.5147 12.3838V12.3866ZM28.6151 14.2771C27.8606 14.2771 27.2484 14.8885 27.2484 15.6433C27.2484 16.3978 27.8606 17.01 28.6151 17.01C29.3696 17.01 29.9818 16.3978 29.9818 15.6433C29.9818 14.8888 29.3696 14.2766 28.6151 14.2766V14.2771ZM16.6865 21.7238C16.6865 18.4939 19.3052 15.8752 22.5351 15.8751C25.7651 15.8751 28.3831 18.4938 28.3831 21.7238C28.3831 24.9538 25.7653 27.5714 22.5353 27.5714C19.3053 27.5714 16.6865 24.9538 16.6865 21.7238Z" fill="#CFC8B7"/>
<path id="Shape" fill-rule="evenodd" clip-rule="evenodd" d="M22.5361 17.9268C24.6327 17.9268 26.3325 19.6263 26.3325 21.7231C26.3325 23.8197 24.6327 25.5195 22.5361 25.5195C20.4393 25.5195 18.7397 23.8197 18.7397 21.7231C18.7397 19.6263 20.4393 17.9268 22.5361 17.9268V17.9268Z" fill="#CFC8B7"/>
</g>
</symbol><symbol id="ok" viewBox="0 0 44 44">
<g id="OK">
<path id="Combined Shape" fill-rule="evenodd" clip-rule="evenodd" d="M0 21.7235C0 9.92982 9.56068 0.369141 21.3544 0.369141C33.1481 0.369141 42.7088 9.92982 42.7088 21.7235C42.7088 33.5172 33.1481 43.0779 21.3544 43.0779C9.56068 43.0779 0 33.5172 0 21.7235ZM21.3397 22.0658C24.4887 22.0658 27.0484 19.5946 27.0484 16.5567C27.0484 13.5177 24.4887 11.0458 21.3397 11.0458C18.1915 11.0458 15.6311 13.5177 15.6311 16.5567C15.6311 19.5946 18.1915 22.0658 21.3397 22.0658ZM26.9791 25.2378C25.9469 25.8635 24.8262 26.3073 23.6642 26.5629L26.8555 29.6437C27.5092 30.2735 27.5092 31.2962 26.8555 31.9267C26.2024 32.5571 25.1439 32.5571 24.4915 31.9267L21.3538 28.8992L18.2189 31.9267C17.892 32.2415 17.4636 32.3991 17.0353 32.3991C16.6077 32.3991 16.18 32.2415 15.8531 31.9267C15.2001 31.2962 15.2001 30.2741 15.8525 29.6437L19.0441 26.5629C17.8821 26.3073 16.7614 25.8629 15.7291 25.2378C14.948 24.7623 14.7133 23.7662 15.2055 23.0115C15.6964 22.2558 16.7286 22.0283 17.5111 22.5038C19.8481 23.9229 22.8587 23.9232 25.1971 22.5038C25.9797 22.0283 27.0116 22.2558 27.5034 23.0115C27.9956 23.7656 27.7603 24.7623 26.9791 25.2378Z" fill="#CFC8B7"/>
<path id="Path" fill-rule="evenodd" clip-rule="evenodd" d="M21.3407 14.2754C22.6442 14.2754 23.7044 15.2985 23.7044 16.5567C23.7044 17.8139 22.6442 18.8376 21.3407 18.8376C20.0383 18.8376 18.9771 17.8139 18.9771 16.5567C18.9771 15.2985 20.0383 14.2754 21.3407 14.2754Z" fill="#CFC8B7"/>
</g>
</symbol><symbol id="telegram" viewBox="0 0 24 25">
      <path fill-rule="evenodd" clip-rule="evenodd" d="M11.8034 0.696838C5.28463 0.696838 0.00012207 5.98135 0.00012207 12.5001C0.00012207 19.0189 5.28463 24.3034 11.8034 24.3034C18.3222 24.3034 23.6067 19.0189 23.6067 12.5001C23.6067 5.98135 18.3222 0.696838 11.8034 0.696838ZM13.9983 17.8502L9.13795 14.2593L14.7304 9.21255C14.9758 8.99472 14.6768 8.88849 14.351 9.08607L7.44914 13.4404L4.46793 12.5099C3.82411 12.3127 3.81949 11.8703 4.61247 11.5523L16.2296 7.07277C16.7602 6.83188 17.2723 7.20021 17.0697 8.01229L15.0913 17.3352C14.9532 17.9977 14.5529 18.1562 13.9983 17.8502Z" fill="#CFC8B7"/>
    </symbol><symbol id="tm" viewBox="0 0 24 25">
<path fill-rule="evenodd" clip-rule="evenodd" d="M11.8034 0.696838C5.28463 0.696838 0.00012207 5.98135 0.00012207 12.5001C0.00012207 19.0189 5.28463 24.3034 11.8034 24.3034C18.3222 24.3034 23.6067 19.0189 23.6067 12.5001C23.6067 5.98135 18.3222 0.696838 11.8034 0.696838ZM13.9983 17.8502L9.13795 14.2593L14.7304 9.21255C14.9758 8.99472 14.6768 8.88849 14.351 9.08607L7.44914 13.4404L4.46793 12.5099C3.82411 12.3127 3.81949 11.8703 4.61247 11.5523L16.2296 7.07277C16.7602 6.83188 17.2723 7.20021 17.0697 8.01229L15.0913 17.3352C14.9532 17.9977 14.5529 18.1562 13.9983 17.8502Z" fill="#CFC8B7"/>
</symbol><symbol id="twitter" viewBox="0 0 44 46">
<g id="Twitter">
<path id="Combined Shape" fill-rule="evenodd" clip-rule="evenodd" d="M21.3544 1.99023C9.56068 1.99023 0 11.5509 0 23.3446C0 35.1383 9.56068 44.699 21.3544 44.699C33.1481 44.699 42.7088 35.1383 42.7088 23.3446C42.7088 11.5509 33.1481 1.99023 21.3544 1.99023ZM20.7594 20.0871L20.7146 19.3482C20.5802 17.4331 21.7602 15.6838 23.6273 15.0052C24.3144 14.764 25.4795 14.7338 26.2413 14.9449C26.54 15.0354 27.1076 15.337 27.5109 15.6084L28.2428 16.1061L29.0494 15.8497C29.4975 15.714 30.095 15.4878 30.3639 15.337C30.6178 15.2013 30.8418 15.1259 30.8418 15.1711C30.8418 15.4275 30.2892 16.3021 29.8261 16.7847C29.1988 17.4632 29.378 17.5236 30.6477 17.0712C31.4095 16.8148 31.4244 16.8148 31.275 17.1013C31.1854 17.2521 30.7224 17.7799 30.2294 18.2625C29.393 19.0919 29.3482 19.1823 29.3482 19.876C29.3482 20.9467 28.8403 23.1785 28.3324 24.3999C27.3914 26.6921 25.3749 29.0596 23.3584 30.2509C20.5204 31.9248 16.7414 32.347 13.5598 31.3668C12.4993 31.0351 10.677 30.1906 10.677 30.0398C10.677 29.9946 11.2296 29.9342 11.9018 29.9192C13.3059 29.889 14.7099 29.4969 15.9049 28.8032L16.7115 28.3207L15.7854 28.004C14.471 27.5516 13.2909 26.5111 12.9922 25.5309C12.9026 25.2143 12.9324 25.1992 13.7689 25.1992L14.6353 25.1841L13.9033 24.8373C13.037 24.3999 12.2453 23.661 11.857 22.907C11.5732 22.3642 11.2147 20.9919 11.3193 20.8864C11.3491 20.8411 11.6628 20.9316 12.0213 21.0522C13.0519 21.4292 13.1864 21.3388 12.5889 20.7054C11.4686 19.5593 11.1251 17.8553 11.6628 16.2418L11.9167 15.518L12.9026 16.4981C14.9191 18.4736 17.294 19.6498 20.0126 19.9966L20.7594 20.0871Z" fill="#CFC8B7"/>
</g>
</symbol><symbol id="vk" viewBox="0 0 44 44">
<g id="VK">
<path id="Combined Shape" fill-rule="evenodd" clip-rule="evenodd" d="M22.535 0.74707C10.7413 0.74707 1.18066 10.3078 1.18066 22.1015C1.18066 33.8952 10.7413 43.4558 22.535 43.4558C34.3287 43.4558 43.8894 33.8952 43.8894 22.1015C43.8894 10.3078 34.3287 0.74707 22.535 0.74707ZM24.2739 28.1301C24.0633 28.3521 23.6522 28.3969 23.6522 28.3969H22.2908C22.2908 28.3969 19.2873 28.5741 16.6414 25.8708C13.7559 22.9214 11.208 17.0697 11.208 17.0697C11.208 17.0697 11.061 16.6859 11.2203 16.501C11.3997 16.2922 11.8887 16.2791 11.8887 16.2791L15.1429 16.2583C15.1429 16.2583 15.4493 16.3075 15.6688 16.4661C15.8504 16.5973 15.9518 16.8411 15.9518 16.8411C15.9518 16.8411 16.4776 18.1469 17.1739 19.3279C18.5342 21.6343 19.167 22.1384 19.6282 21.8913C20.3011 21.5315 20.0995 18.6313 20.0995 18.6313C20.0995 18.6313 20.1117 17.5793 19.7608 17.1102C19.4889 16.7471 18.9765 16.641 18.7503 16.6115C18.5665 16.5874 18.8673 16.1697 19.2572 15.9827C19.8432 15.7016 20.8771 15.6852 22.0992 15.6973C23.0518 15.7071 23.3258 15.7651 23.6979 15.8537C24.5615 16.0582 24.5346 16.7138 24.4764 18.1287C24.459 18.5518 24.4388 19.0429 24.4388 19.6101C24.4388 19.7375 24.435 19.8734 24.4311 20.0132C24.4109 20.738 24.3878 21.5681 24.8744 21.877C25.1239 22.0345 25.7333 21.9 27.2585 19.3585C27.9815 18.1534 28.523 16.7373 28.523 16.7373C28.523 16.7373 28.6422 16.4846 28.826 16.3764C29.0143 16.2659 29.2683 16.2998 29.2683 16.2998L32.6929 16.2791C32.6929 16.2791 33.7223 16.1577 33.8883 16.6148C34.0633 17.0927 33.504 18.2103 32.1047 20.0409C30.7774 21.7779 30.1314 22.4175 30.1907 22.9831C30.2341 23.3963 30.6539 23.7701 31.4597 24.5038C33.1417 26.0367 33.5925 26.8432 33.7008 27.037C33.7098 27.053 33.7165 27.0649 33.7212 27.0726C34.4755 28.3007 32.8846 28.3969 32.8846 28.3969L29.842 28.4385C29.842 28.4385 29.1892 28.5653 28.3291 27.9857C27.8786 27.6824 27.4383 27.1869 27.019 26.715C26.3786 25.9943 25.7871 25.3285 25.2821 25.4858C24.4343 25.7505 24.4599 27.5428 24.4599 27.5428C24.4599 27.5428 24.4666 27.9267 24.2739 28.1301Z" fill="#CFC8B7"/>
</g>
</symbol></svg>