<svg width="43" height="22" fill="none" xmlns="http://www.w3.org/2000/svg"><path d="M22.898 11.995h-1.173l-.88 2.033h2.053m0-2.033V5.083m0 6.912h5.344m-5.344-6.912l-3.674 2.033v3.993m3.674-6.026l7.68-4.147m8.352 11.059h1.173l1.173 2.033H38.93m0-2.033V4.676L30.913.756l-.334.18m8.35 11.059h-5.344m5.345 2.033v7.1h-6.257m6.257-7.1h-4.676m-11.356 7.1v-7.1m0 7.1h6.256m-6.256 0l-3.674-3.005m3.674-4.095h4.676m1.58 7.1v-5.01h3.519v5.01m-3.52 0h3.52M30.913 9.44h2.672V6.433h-2.671m0 3.006h-2.672V6.433h2.672m0 3.006V6.433m-5.01 12.692v-1.67m10.02 1.67v-1.67m-8.35-3.427l.668-2.033m-.668 2.033h6.68m-6.012-2.033h5.343m0 0l.669 2.033m-15.03 4.095v-7.014m0 7.014H2.19v-7.014M30.58.936L16.218 6.767H3.526L1.188 11.11H2.19m17.034 0H2.19m3.674 4.589v-1.67m10.02 1.67v-1.67m-6.68-4.923h3.006m-2.762 8.597v-4.255h2.762v4.255H9.448z" stroke="#C8134A" stroke-width="1.102"/></svg>