<svg width="41" height="26" fill="none" xmlns="http://www.w3.org/2000/svg"><path d="M.978 22.787V9.427m0 13.36h10.876m-10.876 0v2.004h10.876M.978 9.427h1.7m-1.7 0V4.751l1.7-2.004v6.68m1.699 0v2.004h4.078V9.427m-4.078 0V4.751h4.078v4.676m-4.078 0h-1.7m5.778 0h1.7m1.699 0V5.42m0 4.008h-1.7m1.7 0V4.751l-1.7-2.004v6.68m1.7 13.36v-5.344m0 5.344h9.515m-9.515 0v2.004m9.515-2.004h10.876m-10.875 0v-5.344m0 5.344v2.004m0-15.364V5.42m0 4.008h1.699m-1.7 0V4.751l1.7-2.004v6.68m1.699 0v2.004h4.078V9.427m-4.078 0V4.751h4.078v4.676m-4.078 0h-1.7m5.778 0h1.7m1.699 0v13.36m0-13.36h-1.7m1.7 0V4.751m0 18.036v2.004m-20.391-9.352h-1.36v2.004h1.36m0-2.004h9.515m-9.515 0V5.419m0 12.024h9.515m0-2.004h1.36v2.004h-1.36m0-2.004V5.419m-7.476 9.352v-2.004m2.718 2.004v-2.004m2.72 2.004v-2.004m-5.438 8.684v-2.672m2.718 2.672v-2.672m2.72 2.672v-2.672m12.914 6.012H21.37m10.875 0h2.039m-12.915 0h-9.515m-8.837-3.34v-2.672m2.72 2.672v-2.672m2.718 2.672v-2.672m-5.438-3.34v-2.672m2.72 2.672v-2.672m2.718 2.672v-2.672m16.313 2.672v-2.672m2.719 2.672v-2.672m2.719 2.672v-2.672m-5.438 8.684v-2.672m2.719 2.672v-2.672m2.719 2.672v-2.672M11.854 5.419h9.515m9.177 4.008v-6.68l1.699 2.004m0 0h7.477l-.68 1.336v18.704h-4.758M6.416 9.427V6.755m20.391 2.672V6.755m-14.953 4.008h9.515m-7.476-1.336V6.755m2.718 2.672V6.755m2.72 2.672V6.755m14.953 18.036v-5.344l1.36-2.004 1.359 2.004v4.676m-1.36-8.684v-3.34m0-2.004v-3.34M4.377 2.747h4.078V.743H4.377v2.004zm20.391 0h4.078V.743h-4.078v2.004z" stroke="#C8134A" stroke-width="1.102"/></svg>