<svg width="66" height="21" fill="none" xmlns="http://www.w3.org/2000/svg"><path d="M29.571 5.797h-3.136l-.265.93m3.401-.93l-.427 1.859m.427-1.86l2.202 1.86m12.29-6.229h3.475l.598 2.231m-4.072-2.23l1.522 6.228m-1.522-6.229l-.68 6.229m-16.415 9.483l-.534 2.324h-3.898l.345-1.209m4.087-1.115l1.429-6.23m-1.43 6.23h7.434m13.5 0l.569 2.324h3.898l-.323-1.209m-4.143-1.115l-1.522-6.23m1.522 6.23h-6.75m4.433-9.483l.795 3.254m-.795-3.254h-2.202m-14.24 0l-.746 3.254m.747-3.254h2.628m-3.375 3.254h5.241m12.742 0h-4.436m-8.306 0l.763-3.254m-.763 3.254h.763m0-3.254h6.78m-6.78 0h-2.629m9.41 0l.762 3.254m-.763-3.254h2.202m-1.44 3.254h-.762m-6.78 0v6.229m0-6.23h6.78m-6.78 6.23h6.75m.03-6.23l-.03 6.23M25.905 7.656L9.993 9.7l-7.966 8.553M25.905 7.656l.265-.93m-.265.93L22.88 18.254m-20.854 0L9.993 7.656l16.177-.93M2.027 18.254H22.88M48.136 3.658l4.233 2.139 11.78 12.457H52.047m-3.91-14.596l3.91 14.596" stroke="#C8134A" stroke-width="1.082"/></svg>