<svg width="135" height="53" fill="none" xmlns="http://www.w3.org/2000/svg"><path d="M44.03 11.461L67.5 1l23.47 10.461m-46.94 0h5.215m-5.216 0v9.808m46.942-9.807h-5.216m5.216 0v9.807m-46.942 9.808h20.863m-20.863 0h41.726V11.46M44.029 31.077H33.598m10.431 0v-9.808m5.216 9.808V11.46m0 0h5.216m0 0v19.616h5.215V11.46m-5.215 0h5.215m0 0h5.216m0 0v19.616m0-19.616h5.216m-5.216 19.616h10.431m-5.215 0V11.46m0 0h5.215m0 0v19.616m0-19.616h5.216m-5.216 19.616h15.648v-9.808m-10.432 9.808V11.46m0 0h5.216M34.902 52V31.077h65.196V52m-65.196 0h65.196m-65.196 0h-23.47m88.666 0h23.471m-80.844-1.308v-9.154c0-3.923 7.824-3.923 7.824 0v9.154m6.52 0v-9.154c0-3.923 7.823-3.923 7.823 0v9.154m5.216 0v-9.154c0-3.923 7.823-3.923 7.823 0v9.154m6.52 0v-9.154c0-3.923 7.824-3.923 7.824 0v9.154M44.029 21.27H29.686M11.431 52V21.27h18.255M11.431 52H1V15.385h23.47l5.216 5.884M123.57 52V21.27h-18.255M123.569 52H134V15.385h-23.471l-5.215 5.884m-14.343 0h14.343M6.216 28.462v5.23m0 7.846v5.231m10.431-18.307v5.23m5.216-5.23v5.23m5.215-5.23v5.23m-10.43 7.846v5.231m5.215-5.23v5.23m5.215-5.23v5.23m80.844-18.307v5.23m5.215-5.23v5.23m5.216-5.23v5.23m10.431-5.23v5.23m-20.862 7.846v5.231m5.215-5.23v5.23m5.216-5.23v5.23m10.431-5.23v5.23" stroke="#B6B6B6" stroke-width="1.655"/></svg>