<svg width="44" height="44" viewBox="0 0 44 44" fill="none" xmlns="http://www.w3.org/2000/svg">
<g id="Instagram">
<path id="Combined Shape" fill-rule="evenodd" clip-rule="evenodd" d="M22.535 0.369141C10.7413 0.369141 1.18066 9.92982 1.18066 21.7235C1.18066 33.5172 10.7413 43.0779 22.535 43.0779C34.3287 43.0779 43.8894 33.5172 43.8894 21.7235C43.8894 9.92982 34.3287 0.369141 22.535 0.369141ZM17.8401 10.403C19.055 10.3477 19.4431 10.3342 22.5362 10.3342H22.5327C25.6267 10.3342 26.0135 10.3477 27.2283 10.403C28.4408 10.4586 29.2689 10.6505 29.9949 10.9322C30.7447 11.2228 31.3782 11.6119 32.0118 12.2455C32.6453 12.8785 33.0344 13.5139 33.3262 14.263C33.6062 14.9872 33.7984 15.8148 33.8554 17.0272C33.9099 18.2421 33.9242 18.6302 33.9242 21.7233C33.9242 24.8164 33.9099 25.2037 33.8554 26.4185C33.7984 27.6305 33.6062 28.4583 33.3262 29.1827C33.0344 29.9316 32.6453 30.567 32.0118 31.2C31.3789 31.8336 30.7445 32.2236 29.9956 32.5145C29.271 32.7962 28.4424 32.9881 27.23 33.0437C26.0151 33.0989 25.6281 33.1125 22.5348 33.1125C19.442 33.1125 19.054 33.0989 17.8392 33.0437C16.6269 32.9881 15.7991 32.7962 15.0745 32.5145C14.3259 32.2236 13.6905 31.8336 13.0576 31.2C12.4244 30.567 12.0352 29.9316 11.7441 29.1825C11.4627 28.4584 11.2707 27.6307 11.215 26.4183C11.1599 25.2034 11.1462 24.8164 11.1462 21.7233C11.1462 18.6302 11.1604 18.2418 11.2147 17.027C11.2693 15.815 11.4615 14.9872 11.7439 14.2628C12.0357 13.5139 12.4248 12.8785 13.0584 12.2455C13.6914 11.6122 14.3268 11.223 15.0759 10.9322C15.8 10.6505 16.6277 10.4586 17.8401 10.403Z" fill="currentColor"/>
<path id="Combined Shape_2" fill-rule="evenodd" clip-rule="evenodd" d="M21.5147 12.3866C21.7131 12.3863 21.9265 12.3864 22.1568 12.3865L22.5364 12.3866C25.5773 12.3866 25.9377 12.3976 27.1386 12.4521C28.249 12.5029 28.8517 12.6884 29.2531 12.8443C29.7846 13.0508 30.1636 13.2975 30.5619 13.6961C30.9606 14.0948 31.2073 14.4744 31.4142 15.0059C31.5701 15.4069 31.7559 16.0096 31.8064 17.12C31.861 18.3206 31.8729 18.6813 31.8729 21.7207C31.8729 24.7602 31.861 25.1209 31.8064 26.3215C31.7557 27.4319 31.5701 28.0346 31.4142 28.4356C31.2078 28.9671 30.9606 29.3455 30.5619 29.7439C30.1633 30.1425 29.7849 30.3893 29.2531 30.5957C28.8522 30.7523 28.249 30.9374 27.1386 30.9882C25.938 31.0427 25.5773 31.0546 22.5364 31.0546C19.4953 31.0546 19.1349 31.0427 17.9343 30.9882C16.8238 30.9369 16.2211 30.7514 15.8194 30.5955C15.288 30.389 14.9083 30.1423 14.5097 29.7437C14.1111 29.345 13.8643 28.9664 13.6574 28.4346C13.5015 28.0336 13.3157 27.431 13.2652 26.3205C13.2106 25.1199 13.1997 24.7593 13.1997 21.7179C13.1997 18.6765 13.2106 18.3178 13.2652 17.1172C13.316 16.0067 13.5015 15.404 13.6574 15.0026C13.8638 14.4711 14.1111 14.0914 14.5097 13.6928C14.9083 13.2942 15.288 13.0474 15.8194 12.8405C16.2209 12.6839 16.8238 12.4989 17.9343 12.4479C18.9849 12.4004 19.3921 12.3862 21.5147 12.3838V12.3866ZM28.6151 14.2771C27.8606 14.2771 27.2484 14.8885 27.2484 15.6433C27.2484 16.3978 27.8606 17.01 28.6151 17.01C29.3696 17.01 29.9818 16.3978 29.9818 15.6433C29.9818 14.8888 29.3696 14.2766 28.6151 14.2766V14.2771ZM16.6865 21.7238C16.6865 18.4939 19.3052 15.8752 22.5351 15.8751C25.7651 15.8751 28.3831 18.4938 28.3831 21.7238C28.3831 24.9538 25.7653 27.5714 22.5353 27.5714C19.3053 27.5714 16.6865 24.9538 16.6865 21.7238Z" fill="currentColor"/>
<path id="Shape" fill-rule="evenodd" clip-rule="evenodd" d="M22.5361 17.9268C24.6327 17.9268 26.3325 19.6263 26.3325 21.7231C26.3325 23.8197 24.6327 25.5195 22.5361 25.5195C20.4393 25.5195 18.7397 23.8197 18.7397 21.7231C18.7397 19.6263 20.4393 17.9268 22.5361 17.9268V17.9268Z" fill="currentColor"/>
</g>
</svg>
