<svg width="44" height="44" viewBox="0 0 44 44" fill="none" xmlns="http://www.w3.org/2000/svg">
<g id="OK">
<path id="Combined Shape" fill-rule="evenodd" clip-rule="evenodd" d="M0 21.7235C0 9.92982 9.56068 0.369141 21.3544 0.369141C33.1481 0.369141 42.7088 9.92982 42.7088 21.7235C42.7088 33.5172 33.1481 43.0779 21.3544 43.0779C9.56068 43.0779 0 33.5172 0 21.7235ZM21.3397 22.0658C24.4887 22.0658 27.0484 19.5946 27.0484 16.5567C27.0484 13.5177 24.4887 11.0458 21.3397 11.0458C18.1915 11.0458 15.6311 13.5177 15.6311 16.5567C15.6311 19.5946 18.1915 22.0658 21.3397 22.0658ZM26.9791 25.2378C25.9469 25.8635 24.8262 26.3073 23.6642 26.5629L26.8555 29.6437C27.5092 30.2735 27.5092 31.2962 26.8555 31.9267C26.2024 32.5571 25.1439 32.5571 24.4915 31.9267L21.3538 28.8992L18.2189 31.9267C17.892 32.2415 17.4636 32.3991 17.0353 32.3991C16.6077 32.3991 16.18 32.2415 15.8531 31.9267C15.2001 31.2962 15.2001 30.2741 15.8525 29.6437L19.0441 26.5629C17.8821 26.3073 16.7614 25.8629 15.7291 25.2378C14.948 24.7623 14.7133 23.7662 15.2055 23.0115C15.6964 22.2558 16.7286 22.0283 17.5111 22.5038C19.8481 23.9229 22.8587 23.9232 25.1971 22.5038C25.9797 22.0283 27.0116 22.2558 27.5034 23.0115C27.9956 23.7656 27.7603 24.7623 26.9791 25.2378Z" fill="currentColor"/>
<path id="Path" fill-rule="evenodd" clip-rule="evenodd" d="M21.3407 14.2754C22.6442 14.2754 23.7044 15.2985 23.7044 16.5567C23.7044 17.8139 22.6442 18.8376 21.3407 18.8376C20.0383 18.8376 18.9771 17.8139 18.9771 16.5567C18.9771 15.2985 20.0383 14.2754 21.3407 14.2754Z" fill="currentColor"/>
</g>
</svg>
