<svg width="24" height="25" viewBox="0 0 24 25" fill="none" xmlns="http://www.w3.org/2000/svg">
<path fill-rule="evenodd" clip-rule="evenodd" d="M11.8034 0.696838C5.28463 0.696838 0.00012207 5.98135 0.00012207 12.5001C0.00012207 19.0189 5.28463 24.3034 11.8034 24.3034C18.3222 24.3034 23.6067 19.0189 23.6067 12.5001C23.6067 5.98135 18.3222 0.696838 11.8034 0.696838ZM13.9983 17.8502L9.13795 14.2593L14.7304 9.21255C14.9758 8.99472 14.6768 8.88849 14.351 9.08607L7.44914 13.4404L4.46793 12.5099C3.82411 12.3127 3.81949 11.8703 4.61247 11.5523L16.2296 7.07277C16.7602 6.83188 17.2723 7.20021 17.0697 8.01229L15.0913 17.3352C14.9532 17.9977 14.5529 18.1562 13.9983 17.8502Z" fill="currentColor"/>
</svg>
