<svg width="44" height="46" viewBox="0 0 44 46" fill="none" xmlns="http://www.w3.org/2000/svg">
<g id="Twitter">
<path id="Combined Shape" fill-rule="evenodd" clip-rule="evenodd" d="M21.3544 1.99023C9.56068 1.99023 0 11.5509 0 23.3446C0 35.1383 9.56068 44.699 21.3544 44.699C33.1481 44.699 42.7088 35.1383 42.7088 23.3446C42.7088 11.5509 33.1481 1.99023 21.3544 1.99023ZM20.7594 20.0871L20.7146 19.3482C20.5802 17.4331 21.7602 15.6838 23.6273 15.0052C24.3144 14.764 25.4795 14.7338 26.2413 14.9449C26.54 15.0354 27.1076 15.337 27.5109 15.6084L28.2428 16.1061L29.0494 15.8497C29.4975 15.714 30.095 15.4878 30.3639 15.337C30.6178 15.2013 30.8418 15.1259 30.8418 15.1711C30.8418 15.4275 30.2892 16.3021 29.8261 16.7847C29.1988 17.4632 29.378 17.5236 30.6477 17.0712C31.4095 16.8148 31.4244 16.8148 31.275 17.1013C31.1854 17.2521 30.7224 17.7799 30.2294 18.2625C29.393 19.0919 29.3482 19.1823 29.3482 19.876C29.3482 20.9467 28.8403 23.1785 28.3324 24.3999C27.3914 26.6921 25.3749 29.0596 23.3584 30.2509C20.5204 31.9248 16.7414 32.347 13.5598 31.3668C12.4993 31.0351 10.677 30.1906 10.677 30.0398C10.677 29.9946 11.2296 29.9342 11.9018 29.9192C13.3059 29.889 14.7099 29.4969 15.9049 28.8032L16.7115 28.3207L15.7854 28.004C14.471 27.5516 13.2909 26.5111 12.9922 25.5309C12.9026 25.2143 12.9324 25.1992 13.7689 25.1992L14.6353 25.1841L13.9033 24.8373C13.037 24.3999 12.2453 23.661 11.857 22.907C11.5732 22.3642 11.2147 20.9919 11.3193 20.8864C11.3491 20.8411 11.6628 20.9316 12.0213 21.0522C13.0519 21.4292 13.1864 21.3388 12.5889 20.7054C11.4686 19.5593 11.1251 17.8553 11.6628 16.2418L11.9167 15.518L12.9026 16.4981C14.9191 18.4736 17.294 19.6498 20.0126 19.9966L20.7594 20.0871Z" fill="#CFC8B7"/>
</g>
</svg>
