<svg width="44" height="44" viewBox="0 0 44 44" fill="none" xmlns="http://www.w3.org/2000/svg">
<g id="VK">
<path id="Combined Shape" fill-rule="evenodd" clip-rule="evenodd" d="M22.535 0.74707C10.7413 0.74707 1.18066 10.3078 1.18066 22.1015C1.18066 33.8952 10.7413 43.4558 22.535 43.4558C34.3287 43.4558 43.8894 33.8952 43.8894 22.1015C43.8894 10.3078 34.3287 0.74707 22.535 0.74707ZM24.2739 28.1301C24.0633 28.3521 23.6522 28.3969 23.6522 28.3969H22.2908C22.2908 28.3969 19.2873 28.5741 16.6414 25.8708C13.7559 22.9214 11.208 17.0697 11.208 17.0697C11.208 17.0697 11.061 16.6859 11.2203 16.501C11.3997 16.2922 11.8887 16.2791 11.8887 16.2791L15.1429 16.2583C15.1429 16.2583 15.4493 16.3075 15.6688 16.4661C15.8504 16.5973 15.9518 16.8411 15.9518 16.8411C15.9518 16.8411 16.4776 18.1469 17.1739 19.3279C18.5342 21.6343 19.167 22.1384 19.6282 21.8913C20.3011 21.5315 20.0995 18.6313 20.0995 18.6313C20.0995 18.6313 20.1117 17.5793 19.7608 17.1102C19.4889 16.7471 18.9765 16.641 18.7503 16.6115C18.5665 16.5874 18.8673 16.1697 19.2572 15.9827C19.8432 15.7016 20.8771 15.6852 22.0992 15.6973C23.0518 15.7071 23.3258 15.7651 23.6979 15.8537C24.5615 16.0582 24.5346 16.7138 24.4764 18.1287C24.459 18.5518 24.4388 19.0429 24.4388 19.6101C24.4388 19.7375 24.435 19.8734 24.4311 20.0132C24.4109 20.738 24.3878 21.5681 24.8744 21.877C25.1239 22.0345 25.7333 21.9 27.2585 19.3585C27.9815 18.1534 28.523 16.7373 28.523 16.7373C28.523 16.7373 28.6422 16.4846 28.826 16.3764C29.0143 16.2659 29.2683 16.2998 29.2683 16.2998L32.6929 16.2791C32.6929 16.2791 33.7223 16.1577 33.8883 16.6148C34.0633 17.0927 33.504 18.2103 32.1047 20.0409C30.7774 21.7779 30.1314 22.4175 30.1907 22.9831C30.2341 23.3963 30.6539 23.7701 31.4597 24.5038C33.1417 26.0367 33.5925 26.8432 33.7008 27.037C33.7098 27.053 33.7165 27.0649 33.7212 27.0726C34.4755 28.3007 32.8846 28.3969 32.8846 28.3969L29.842 28.4385C29.842 28.4385 29.1892 28.5653 28.3291 27.9857C27.8786 27.6824 27.4383 27.1869 27.019 26.715C26.3786 25.9943 25.7871 25.3285 25.2821 25.4858C24.4343 25.7505 24.4599 27.5428 24.4599 27.5428C24.4599 27.5428 24.4666 27.9267 24.2739 28.1301Z" fill="currentColor"/>
</g>
</svg>
