<svg width="24px" height="25px" viewBox="0 0 24 25" version="1.1" xmlns="http://www.w3.org/2000/svg" xmlns:xlink="http://www.w3.org/1999/xlink">
    <g id="yt" stroke="none" stroke-width="1" fill="none" fill-rule="evenodd">
        <g id="social" transform="translate(-41.000000, -38.000000)" fill="#CFC8B7">
            <path d="M53.2,38.7 C46.7,38.7 41.4,44 41.4,50.5 C41.4,57 46.7,62.3 53.2,62.3 C59.7,62.3 65,57 65,50.5 C65,44 59.7,38.7 53.2,38.7 Z M61.3,51.2 C61.3,52.5 61.2,53.8 61.1,53.9 C61.1,54 60.9,55.2 60.4,55.8 C59.8,56.5 59,56.6 58.7,56.6 L58.6,56.6 C56.5,56.8 53.3,56.8 53.2,56.8 C53,56.8 49.2,56.8 48,56.6 C47.9,56.6 47.8,56.6 47.8,56.6 C47.4,56.5 46.6,56.5 46,55.8 C45.5,55.2 45.3,54 45.3,53.9 C45.3,53.8 45.1,52.5 45.1,51.2 L45.1,50 C45.1,48.7 45.2,47.4 45.3,47.3 C45.3,47.2 45.5,46 46,45.4 C46.7,44.7 47.4,44.6 47.8,44.6 C50,44.4 53.2,44.4 53.3,44.4 C53.3,44.4 56.6,44.4 58.7,44.6 C59.2,44.6 59.9,44.7 60.6,45.5 C61.1,46.1 61.3,47.3 61.3,47.4 L61.3,47.4 C61.3,47.5 61.5,48.8 61.5,50.1 L61.5,51.2 L61.3,51.2 Z" id="Shape"></path>
            <path d="M60.2,47.4 C60.1,47 60,46.3 59.7,46.1 C59.3,45.6 58.9,45.6 58.6,45.6 C56.4,45.4 53.3,45.4 53.2,45.4 C53.2,45.4 50,45.4 47.9,45.6 C47.5,45.6 47.1,45.7 46.7,46.1 C46.4,46.4 46.3,47.1 46.2,47.4 C46.2,47.4 46.1,48.7 46.1,50 L46.1,51.2 C46.1,52.5 46.2,53.8 46.2,53.8 C46.2,54.2 46.4,54.9 46.7,55.1 C47.1,55.5 47.5,55.6 47.9,55.6 C48,55.6 48.1,55.6 48.1,55.6 C49.2,55.7 53.2,55.8 53.2,55.8 C53.2,55.8 56.4,55.8 58.5,55.6 L58.6,55.6 C58.9,55.6 59.3,55.5 59.7,55.1 C60,54.8 60.1,54.1 60.2,53.7 C60.2,53.7 60.3,52.4 60.3,51.1 L60.3,50 C60.3,48.7 60.2,47.5 60.2,47.4 Z M51.3,53.4 L51.3,47.7 L56.1,50.6 L51.3,53.4 Z" id="Shape"></path>
        </g>
    </g>
</svg>
