<svg width="137" height="18" viewBox="0 0 137 18" fill="none" xmlns="http://www.w3.org/2000/svg">
<g clip-path="url(#clip0)">
<path fill-rule="evenodd" clip-rule="evenodd" d="M0 1.28581V16.3156H3.28232V10.0272H3.9127C5.69515 10.0272 6.36901 11.3205 6.86897 13.0153C7.21676 14.1303 7.49934 15.2898 7.9993 16.3156H11.5642C10.8686 14.8216 10.3904 13.1937 9.8687 11.5881C9.26006 9.78189 8.41231 8.44392 6.52117 7.95333L11.6294 1.28581H7.60803L3.56491 7.52965H3.28232V1.28581H0ZM12.1076 1.28581H15.8464L17.9767 6.57077C18.368 7.64114 18.6723 8.53312 18.9983 9.44739H19.0636C19.2592 8.80071 19.4983 7.79724 19.8678 6.52617L21.4546 1.28581H24.9326L22.1937 8.57772C21.3025 10.9192 20.3895 13.1937 19.3027 14.5763C18.3462 15.8027 17.1289 16.5609 15.4117 16.5609C14.6509 16.5609 14.1944 16.4717 13.7814 16.3156L14.0205 13.5951C14.2814 13.662 14.6292 13.7066 15.1074 13.7066C16.129 13.7066 16.8246 12.993 17.0855 12.3017C17.2159 12.0564 17.1507 11.8557 17.042 11.6104L12.1076 1.28581ZM27.0629 1.28581H36.9316V16.3156H33.6275V4.07324H30.3017V7.64114C30.3017 11.4989 29.8235 14.4648 27.6063 15.8027C26.8672 16.2264 25.8673 16.5386 24.6935 16.5386L24.2805 13.7958C24.9978 13.7066 25.5847 13.3944 25.9543 12.993C26.8455 12.0564 27.0629 10.1387 27.0629 7.86414V1.28581ZM39.8226 1.28581H43.1267V6.50387C43.5831 6.45927 44.2787 6.39238 44.9091 6.39238C48.061 6.39238 50.7347 7.93104 50.7347 11.2759C50.7347 12.7031 50.2782 13.7735 49.5609 14.554C48.148 16.0257 45.6917 16.4717 43.4093 16.4717C41.779 16.4717 40.5617 16.3602 39.8226 16.2487V1.28581ZM43.1049 9.0906V13.8404C43.4745 13.9073 43.8657 13.9296 44.3439 13.9296C45.9525 13.9296 47.2567 13.1268 47.2567 11.432C47.2567 9.71499 45.9742 9.00141 44.3874 9.00141C43.9092 9.00141 43.5179 9.04601 43.1049 9.0906ZM53.7562 16.3156V4.14014H49.8217V1.28581H61.0816V4.14014H57.082V16.3156H53.7562ZM62.0163 1.28581L66.9507 11.6104C67.0594 11.8557 67.1246 12.0564 66.9941 12.3017C66.7333 12.993 66.0377 13.7066 65.0161 13.7066C64.5378 13.7066 64.19 13.662 63.9292 13.5951L63.6901 16.3156C64.1031 16.4717 64.5596 16.5609 65.3204 16.5609C67.0376 16.5609 68.2549 15.8027 69.2113 14.5763C70.2982 13.1937 71.2112 10.9192 72.1024 8.57772L74.8413 1.28581H71.3633L69.7765 6.52617C69.407 7.79724 69.1679 8.80071 68.9722 9.44739H68.907C68.581 8.53312 68.2766 7.64114 67.8854 6.57077L65.7551 1.28581H62.0163ZM76.1673 16.3156V1.48651C77.1889 1.30811 78.6236 1.17432 80.6451 1.17432C82.6884 1.17432 84.1448 1.57571 85.123 2.37848C86.0577 3.13666 86.6881 4.38543 86.6881 5.85719C86.6881 7.32895 86.2099 8.57772 85.3404 9.42509C84.21 10.5178 82.5363 11.0084 80.5799 11.0084C80.1452 11.0084 79.7539 10.9861 79.4496 10.9415V16.3156H76.1673ZM79.4496 3.87254V8.31013C79.7322 8.37702 80.08 8.39932 80.5582 8.39932C82.3189 8.39932 83.4058 7.48505 83.4058 5.94639C83.4058 4.56383 82.4711 3.73875 80.819 3.73875C80.1452 3.73875 79.6887 3.80565 79.4496 3.87254ZM95.0787 12.4578H90.8834L89.84 16.3156H86.4055L90.8834 1.28581H95.2308L99.7739 16.3156H96.209L95.0787 12.4578ZM91.3616 9.91568H94.6004L93.6875 6.72687C93.4266 5.83489 93.1658 4.71992 92.9484 3.82795H92.9049C92.6876 4.71992 92.4702 5.85719 92.2311 6.72687L91.3616 9.91568ZM103.317 16.5609C104.491 16.5609 105.273 15.6912 105.273 14.5094C105.273 13.2829 104.491 12.4355 103.339 12.4355C102.187 12.4355 101.382 13.3052 101.382 14.5094C101.382 15.6912 102.187 16.5609 103.317 16.5609Z" fill="#CFC8B7"/>
<path fill-rule="evenodd" clip-rule="evenodd" d="M107.542 16.2411V1.41199C108.564 1.2336 109.999 1.0998 112.02 1.0998C114.063 1.0998 115.52 1.50119 116.498 2.30397C117.433 3.06215 118.063 4.31091 118.063 5.78267C118.063 7.25443 117.585 8.5032 116.715 9.35058C115.585 10.4432 113.911 10.9338 111.955 10.9338C111.52 10.9338 111.129 10.9115 110.825 10.8669V16.2411H107.542ZM110.825 3.79803V8.23561C111.107 8.30251 111.455 8.32481 111.933 8.32481C113.694 8.32481 114.781 7.41053 114.781 5.87187C114.781 4.48931 113.846 3.66423 112.194 3.66423C111.52 3.66423 111.064 3.73113 110.825 3.79803ZM125.715 0.586914H128.823V1.90258C131.931 2.12557 135.062 3.99872 135.062 8.6816C135.062 13.3199 132.018 15.193 128.78 15.5052V16.8655H125.671V15.5052C122.497 15.2599 119.432 13.4091 119.432 8.79309C119.432 4.04332 122.889 2.14787 125.715 1.90258V0.586914ZM125.693 13.1415V4.22172C124.41 4.40011 122.758 5.55968 122.758 8.7262C122.758 11.6697 124.389 12.9631 125.693 13.1415ZM128.801 4.22172V13.1415C130.084 12.9854 131.736 11.8704 131.736 8.6816C131.736 5.51508 130.171 4.40011 128.801 4.22172Z" fill="#CFC8B7"/>
</g>
<defs>
<clipPath id="clip0">
<rect width="136.144" height="17.6048" fill="white"/>
</clipPath>
</defs>
</svg>
