<svg width="44" height="21" viewBox="0 0 44 21" fill="none" xmlns="http://www.w3.org/2000/svg">
<g clip-path="url(#clip0)">
<path d="M8.91406 6.68848H13.053V11.0408H8.91406V6.68848Z" fill="#CFC8B7"/>
<path d="M26.2982 11.0625H22.1208V6.7392H26.2982V11.0625Z" fill="#CFC8B7"/>
<path d="M4.16737 20.2494H0.0109863V15.8972H4.16737V20.2494Z" fill="#CFC8B7"/>
<path d="M8.88257 6.36206V2.23647H13.0617V6.36206H8.88257Z" fill="#CFC8B7"/>
<path d="M22.126 2.21091H26.2929V6.35645H22.126V2.21091Z" fill="#CFC8B7"/>
<path d="M13.4165 6.71033H17.4103V11.039H13.4165V6.71033Z" fill="#CFC8B7"/>
<path d="M17.7651 6.71033H21.7712V11.0445H17.7651V6.71033Z" fill="#CFC8B7"/>
<path d="M30.6941 6.74496V11.0283H26.6653V6.74496H30.6941Z" fill="#CFC8B7"/>
<path d="M35.0198 11.0624H31.0225V6.72641H35.0198V11.0624Z" fill="#CFC8B7"/>
<path d="M4.1791 15.5564H0V11.4254H4.1791V15.5564Z" fill="#CFC8B7"/>
<path d="M4.50244 20.2077V15.9244H8.53298V20.2077H4.50244Z" fill="#CFC8B7"/>
<path d="M39.524 20.2639H35.5547V15.9116H39.524V20.2639Z" fill="#CFC8B7"/>
<path d="M39.9053 15.8955H43.9043V20.2115H39.9053V15.8955Z" fill="#CFC8B7"/>
<path d="M13.4041 6.36956V2.22946H17.4241V6.36956H13.4041Z" fill="#CFC8B7"/>
<path d="M17.7844 2.20761H21.7835V6.34771H17.7844V2.20761Z" fill="#CFC8B7"/>
<path d="M30.6695 2.2274V6.37113H26.6704V2.2274H30.6695Z" fill="#CFC8B7"/>
<path d="M35.0182 6.3713H31.0244V2.22575H35.0182V6.3713Z" fill="#CFC8B7"/>
<path d="M8.53313 15.5564H4.52881V11.4254H8.53313V15.5564Z" fill="#CFC8B7"/>
<path d="M39.5504 15.56H35.5496V11.4072H39.5504V15.56Z" fill="#CFC8B7"/>
<path d="M43.9008 15.5565H39.9087V11.4109H43.9008V15.5565Z" fill="#CFC8B7"/>
<path d="M8.48753 10.9211H4.64227C4.6108 8.82652 6.35166 7.004 8.48753 6.91151V10.9211Z" fill="#CFC8B7"/>
<path d="M35.5337 6.89172C37.7028 7.07307 39.379 8.78859 39.4017 10.8958H35.5337V6.89172Z" fill="#CFC8B7"/>
<path d="M18.4451 1.70708C19.6266 1.09414 20.5967 0.566424 21.5912 0.093114C21.8482 -0.0212567 22.1376 -0.0296871 22.4004 0.0695392C23.4082 0.538979 24.3815 1.08448 25.3124 1.70164L18.4451 1.70708Z" fill="#CFC8B7"/>
<path d="M35.0374 11.4579V14.403L32.2234 11.4579H35.0374Z" fill="#CFC8B7"/>
<path d="M9.06421 11.4563H11.8258L9.06421 14.249V11.4563Z" fill="#CFC8B7"/>
</g>
<defs>
<clipPath id="clip0">
<rect width="43.9042" height="20.2635" fill="white"/>
</clipPath>
</defs>
</svg>
