<svg width="838" height="314" viewBox="0 0 838 314" fill="none" xmlns="http://www.w3.org/2000/svg">
<path d="M122.043 189.394H245.122V313.726H122.043V189.394Z" fill="rgba(255,255,255, 10%)"/>
<path d="M638.997 314.347H514.775V190.844H638.997V314.347Z" fill="rgba(255,255,255, 10%)"/>
<path d="M121.105 180.069V62.2124H245.38V180.069H121.105Z" fill="rgba(255,255,255, 10%)"/>
<path d="M514.929 61.4869H638.84V179.913H514.929V61.4869Z" fill="rgba(255,255,255, 10%)"/>
<path d="M255.935 190.015H374.7V313.674H255.935V190.015Z" fill="rgba(255,255,255, 10%)"/>
<path d="M385.25 190.015H504.379V313.83H385.25V190.015Z" fill="rgba(255,255,255, 10%)"/>
<path d="M769.714 191V313.363H649.91V191H769.714Z" fill="rgba(255,255,255, 10%)"/>
<path d="M898.353 314.348H779.484V190.482H898.353V314.348Z" fill="rgba(255,255,255, 10%)"/>
<path d="M255.566 180.276V62.005H375.111V180.276H255.566Z" fill="rgba(255,255,255, 10%)"/>
<path d="M385.819 61.3835H504.741V179.654H385.819V61.3835Z" fill="rgba(255,255,255, 10%)"/>
<path d="M768.986 61.9533V180.328H650.065V61.9533H768.986Z" fill="rgba(255,255,255, 10%)"/>
<path d="M898.304 180.328H779.539V61.9016H898.304V180.328Z" fill="rgba(255,255,255, 10%)"/>
<path d="M114.62 310.307H0.272494C-0.663073 250.472 51.105 198.408 114.62 195.766V310.307Z" fill="rgba(255,255,255, 10%)"/>
<path d="M405.468 49.7159C440.603 32.2057 469.45 17.1305 499.024 3.60934C506.668 0.342098 515.274 0.101265 523.089 2.93588C553.058 16.3464 582 31.9298 609.681 49.5604L405.468 49.7159Z" fill="rgba(255,255,255, 10%)"/>
</svg>
