<svg width="106" height="90" viewBox="0 0 106 90" fill="none" xmlns="http://www.w3.org/2000/svg">
<g clip-path="url(#clip0)">
<path d="M12.3911 9.64404H18.1445V15.694H12.3911V9.64404Z" fill="#CFC8B7"/>
<path d="M36.5563 15.7245H30.7495V9.71484H36.5563V15.7245Z" fill="#CFC8B7"/>
<path d="M5.79305 28.4953H0.0153809V22.4453H5.79305V28.4953Z" fill="#CFC8B7"/>
<path d="M12.3474 9.19093V3.45605H18.1567V9.19093H12.3474Z" fill="#CFC8B7"/>
<path d="M30.7566 3.41992H36.5488V9.18252H30.7566V3.41992Z" fill="#CFC8B7"/>
<path d="M18.6499 9.6748H24.2016V15.692H18.6499V9.6748Z" fill="#CFC8B7"/>
<path d="M24.6948 9.6748H30.2635V15.6996H24.6948V9.6748Z" fill="#CFC8B7"/>
<path d="M42.667 9.72314V15.6773H37.0667V9.72314H42.667Z" fill="#CFC8B7"/>
<path d="M48.6801 15.7246H43.1235V9.69727H48.6801V15.7246Z" fill="#CFC8B7"/>
<path d="M5.80925 21.9719H0V16.2295H5.80925V21.9719Z" fill="#CFC8B7"/>
<path d="M6.25879 28.4376V22.4834H11.8615V28.4376H6.25879Z" fill="#CFC8B7"/>
<path d="M54.9413 28.5148H49.4236V22.4648H54.9413V28.5148Z" fill="#CFC8B7"/>
<path d="M55.4712 22.4429H61.0302V28.4424H55.4712V22.4429Z" fill="#CFC8B7"/>
<path d="M18.6326 9.20084V3.4458H24.2207V9.20084H18.6326Z" fill="#CFC8B7"/>
<path d="M24.7217 3.41602H30.2807V9.17105H24.7217V3.41602Z" fill="#CFC8B7"/>
<path d="M42.6327 3.44336V9.20344H37.0737V3.44336H42.6327Z" fill="#CFC8B7"/>
<path d="M48.6779 9.20401H43.1262V3.44141H48.6779V9.20401Z" fill="#CFC8B7"/>
<path d="M11.8617 21.9719H6.29541V16.2295H11.8617V21.9719Z" fill="#CFC8B7"/>
<path d="M54.9779 21.9763H49.4165V16.2036H54.9779V21.9763Z" fill="#CFC8B7"/>
<path d="M61.0251 21.9716H55.4758V16.209H61.0251V21.9716Z" fill="#CFC8B7"/>
<path d="M11.7982 15.5281H6.45298C6.40924 12.6166 8.82916 10.0832 11.7982 9.95459V15.5281Z" fill="#CFC8B7"/>
<path d="M49.3943 9.92725C52.4095 10.1793 54.7395 12.564 54.7711 15.4932H49.3943V9.92725Z" fill="#CFC8B7"/>
<path d="M25.6399 2.72003C27.2823 1.86799 28.6308 1.13443 30.0132 0.476498C30.3705 0.317514 30.7728 0.305796 31.1381 0.443727C32.5391 1.09628 33.8919 1.85456 35.1859 2.71247L25.6399 2.72003Z" fill="#CFC8B7"/>
<path d="M48.7044 16.2744V20.3682L44.7927 16.2744H48.7044Z" fill="#CFC8B7"/>
<path d="M12.5999 16.272H16.4387L12.5999 20.154V16.272Z" fill="#CFC8B7"/>
</g>
<path d="M4.55964 39.8001L4.61715 41.9608H4.06671L3.82846 40.2931L2.02103 40.2273V45.4114L3.45054 45.5017V45.9043H0.230036V45.5017L1.13375 45.4114V40.3177L0.254683 40.2027V39.8001H4.55964ZM5.10328 43.6122C5.10328 43.1192 5.20461 42.692 5.40726 42.3305C5.60991 41.969 5.87554 41.6952 6.20417 41.509C6.53827 41.3173 6.89427 41.2214 7.27219 41.2214C7.9623 41.2214 8.47988 41.4405 8.82493 41.8787C9.17546 42.3168 9.35073 42.8919 9.35073 43.6039C9.35073 44.1023 9.2494 44.5323 9.04675 44.8938C8.8441 45.2553 8.57573 45.5291 8.24163 45.7153C7.913 45.9016 7.55974 45.9947 7.18182 45.9947C6.49171 45.9947 5.97139 45.7756 5.62086 45.3374C5.27581 44.8993 5.10328 44.3242 5.10328 43.6122ZM7.23111 45.5264C7.60903 45.5264 7.89931 45.3703 8.10196 45.0581C8.30461 44.7459 8.40594 44.2831 8.40594 43.6697C8.40594 43.0617 8.31283 42.5797 8.12661 42.2237C7.94039 41.8677 7.64189 41.6897 7.23111 41.6897C6.8532 41.6897 6.56017 41.8458 6.35205 42.158C6.1494 42.4702 6.04807 42.933 6.04807 43.5464C6.04807 44.1544 6.14392 44.6364 6.33562 44.9924C6.52731 45.3484 6.82581 45.5264 7.23111 45.5264ZM10.003 43.6532C10.003 43.1986 10.0907 42.7879 10.2659 42.4209C10.4467 42.0539 10.7096 41.7637 11.0546 41.55C11.4052 41.331 11.8241 41.2214 12.3116 41.2214C12.5471 41.2214 12.7498 41.2433 12.9196 41.2871C13.0893 41.331 13.292 41.3912 13.5275 41.4679L13.4946 42.7331H12.9606L12.7799 41.8951C12.747 41.7417 12.5389 41.6651 12.1555 41.6651C11.7721 41.6651 11.4681 41.8212 11.2436 42.1334C11.0245 42.4401 10.915 42.8782 10.915 43.4478C10.915 44.0941 11.0382 44.5871 11.2847 44.9266C11.5366 45.2607 11.8625 45.4278 12.2623 45.4278C12.4923 45.4278 12.7087 45.3922 12.9113 45.321C13.1195 45.2498 13.2975 45.1649 13.4454 45.0663L13.6015 45.3949C13.4536 45.5483 13.2345 45.688 12.9442 45.8139C12.6594 45.9344 12.3691 45.9947 12.0734 45.9947C11.6242 45.9947 11.2436 45.8933 10.9314 45.6907C10.6247 45.488 10.3919 45.2115 10.2331 44.8609C10.0797 44.5049 10.003 44.1023 10.003 43.6532ZM14.9792 47.95C14.8861 47.95 14.7929 47.9445 14.6998 47.9335C14.6122 47.9226 14.5492 47.9062 14.5109 47.8842V47.1695C14.5437 47.1914 14.6067 47.2078 14.6998 47.2188C14.7984 47.2297 14.8915 47.2352 14.9792 47.2352C15.2421 47.2352 15.4721 47.1421 15.6693 46.9559C15.8719 46.7751 16.0664 46.4246 16.2526 45.9043H15.8582L14.2973 41.8376L13.9194 41.7308V41.3447H15.8993V41.7308L15.2667 41.8294L16.0718 44.253L16.4498 45.4524L16.803 44.2448L17.5342 41.8294L16.9838 41.7308V41.3447H18.6351V41.7308L18.2243 41.8294C17.4192 44.294 16.9454 45.6934 16.803 46.0275C16.6168 46.4986 16.447 46.8655 16.2937 47.1284C16.1403 47.3968 15.9596 47.5994 15.7514 47.7364C15.5433 47.8788 15.2859 47.95 14.9792 47.95ZM23.4269 46.3069C23.3886 46.7669 23.3503 47.1421 23.3119 47.4324H22.7944C22.7834 47.2297 22.7588 46.9312 22.7204 46.5369C22.6875 46.1425 22.6629 45.9317 22.6465 45.9043H19.541C19.5191 45.9536 19.4588 46.2521 19.3602 46.7998L19.2288 47.4324H18.6784C18.7003 46.6547 18.7249 45.9919 18.7523 45.4442H19.2206C19.4835 45.3402 19.6916 44.9842 19.845 44.3762C19.9983 43.7628 20.075 42.9248 20.075 41.8622L19.3109 41.7472V41.3447H23.5255V41.7472L22.7944 41.8622V45.4524H23.5173L23.4269 46.3069ZM20.5597 42.347C20.5597 43.0425 20.4995 43.6806 20.379 44.2612C20.2585 44.8417 20.1216 45.2388 19.9682 45.4524H21.9399V41.8294H20.5597V42.347ZM24.1499 44.672C24.1499 44.1571 24.4073 43.7792 24.9222 43.5382C25.437 43.2917 26.0888 43.1603 26.8775 43.1439V42.9138C26.8775 42.6564 26.8501 42.4538 26.7953 42.3059C26.7406 42.158 26.6447 42.0512 26.5078 41.9855C26.3763 41.9143 26.1874 41.8787 25.9409 41.8787C25.6616 41.8787 25.4096 41.9197 25.1851 42.0019C24.966 42.0786 24.7469 42.1744 24.5278 42.2894L24.3224 41.8622C24.3936 41.802 24.5251 41.7226 24.7168 41.624C24.9085 41.5254 25.1303 41.4378 25.3823 41.3611C25.6342 41.2844 25.8861 41.2461 26.1381 41.2461C26.527 41.2461 26.8337 41.3008 27.0582 41.4104C27.2883 41.5144 27.4526 41.6842 27.5512 41.9197C27.6498 42.1553 27.699 42.4702 27.699 42.8645V45.5017H28.1838V45.8632C28.0742 45.8906 27.9346 45.918 27.7648 45.9454C27.6005 45.9728 27.4553 45.9865 27.3293 45.9865C27.176 45.9865 27.0719 45.9618 27.0172 45.9125C26.9624 45.8687 26.935 45.7674 26.935 45.6085V45.3374C26.7707 45.5017 26.568 45.6524 26.327 45.7893C26.0915 45.9262 25.8232 45.9947 25.5219 45.9947C25.1276 45.9947 24.799 45.8824 24.5361 45.6578C24.2786 45.4278 24.1499 45.0992 24.1499 44.672ZM25.8752 45.436C26.0176 45.436 26.1819 45.3922 26.3681 45.3046C26.5543 45.2169 26.7241 45.1129 26.8775 44.9924V43.5793C26.2805 43.5793 25.8286 43.6724 25.5219 43.8586C25.2207 44.0394 25.0701 44.2776 25.0701 44.5734C25.0701 44.8691 25.1413 45.0882 25.2837 45.2306C25.4315 45.3675 25.6287 45.436 25.8752 45.436ZM33.1998 43.4643C33.1998 43.9298 33.1039 44.357 32.9122 44.7459C32.7205 45.1293 32.4467 45.4333 32.0907 45.6578C31.7346 45.8824 31.3184 45.9947 30.8419 45.9947C30.7104 45.9947 30.568 45.9837 30.4147 45.9618C30.2613 45.9399 30.1381 45.9125 30.045 45.8797L30.0696 46.5698V47.3995L30.924 47.4899V47.8925H28.6319V47.4899L29.2234 47.3995V41.9773L28.6237 41.8294V41.3857L29.7903 41.2379H29.8067L29.9793 41.3857V41.8705C30.1436 41.6897 30.3462 41.5364 30.5872 41.4104C30.8337 41.2844 31.1075 41.2214 31.4088 41.2214C31.7319 41.2214 32.0277 41.3008 32.296 41.4597C32.5699 41.6185 32.789 41.865 32.9533 42.1991C33.1176 42.5332 33.1998 42.9549 33.1998 43.4643ZM31.0719 41.7965C30.8638 41.7965 30.6694 41.8403 30.4886 41.928C30.3079 42.0156 30.1682 42.1114 30.0696 42.2155V45.3128C30.108 45.3785 30.2038 45.4387 30.3572 45.4935C30.516 45.5428 30.6885 45.5675 30.8747 45.5675C31.2965 45.5675 31.6361 45.4004 31.8935 45.0663C32.1564 44.7322 32.2878 44.2283 32.2878 43.5546C32.2878 42.9631 32.1728 42.5222 31.9428 42.2319C31.7182 41.9417 31.4279 41.7965 31.0719 41.7965ZM33.8153 43.6532C33.8153 43.1986 33.903 42.7879 34.0782 42.4209C34.259 42.0539 34.5219 41.7637 34.8669 41.55C35.2175 41.331 35.6365 41.2214 36.1239 41.2214C36.3594 41.2214 36.5621 41.2433 36.7319 41.2871C36.9017 41.331 37.1043 41.3912 37.3398 41.4679L37.307 42.7331H36.7729L36.5922 41.8951C36.5593 41.7417 36.3512 41.6651 35.9678 41.6651C35.5844 41.6651 35.2805 41.8212 35.0559 42.1334C34.8368 42.4401 34.7273 42.8782 34.7273 43.4478C34.7273 44.0941 34.8505 44.5871 35.097 44.9266C35.3489 45.2607 35.6748 45.4278 36.0746 45.4278C36.3047 45.4278 36.521 45.3922 36.7237 45.321C36.9318 45.2498 37.1098 45.1649 37.2577 45.0663L37.4138 45.3949C37.2659 45.5483 37.0468 45.688 36.7565 45.8139C36.4717 45.9344 36.1814 45.9947 35.8857 45.9947C35.4366 45.9947 35.0559 45.8933 34.7437 45.6907C34.437 45.488 34.2042 45.2115 34.0454 44.8609C33.892 44.5049 33.8153 44.1023 33.8153 43.6532ZM42.5706 41.3447L42.6199 43.0781H42.0777L41.8559 41.8376L40.7632 41.7965V45.4196L41.8805 45.5017V45.9043H38.7997V45.5017L39.9088 45.4196V41.7965L38.7997 41.8376L38.5779 43.0781H38.0356L38.0849 41.3447H42.5706ZM44.7638 41.3282C45.2896 41.3118 45.5635 41.3036 45.5854 41.3036C46.2755 41.3036 46.7575 41.3939 47.0313 41.5747C47.3052 41.75 47.4421 42.0129 47.4421 42.3634C47.4421 42.6263 47.3627 42.8481 47.2038 43.0288C47.0505 43.2041 46.8314 43.3328 46.5466 43.415C46.9519 43.4478 47.2641 43.5656 47.4832 43.7682C47.7022 43.9709 47.8118 44.2146 47.8118 44.4994C47.8118 44.965 47.6338 45.3237 47.2778 45.5757C46.9218 45.8221 46.3412 45.9454 45.5361 45.9454C45.3772 45.9454 45.2266 45.9426 45.0842 45.9372C44.9473 45.9317 44.8295 45.9262 44.7309 45.9207L44.1723 45.9043H43.3343V45.5017L43.9094 45.4031V41.8622L43.3425 41.7472V41.3447H44.2462L44.7638 41.3282ZM45.5443 43.2753C45.9003 43.2753 46.1605 43.1959 46.3248 43.0371C46.4946 42.8782 46.5794 42.6728 46.5794 42.4209C46.5794 42.2018 46.5 42.0375 46.3412 41.928C46.1824 41.8129 45.9058 41.7554 45.5114 41.7554H44.7474V43.2753H45.5443ZM44.7474 45.4196C44.8021 45.436 44.9089 45.4524 45.0678 45.4689C45.2266 45.4798 45.3663 45.4853 45.4868 45.4853C45.9907 45.4853 46.3467 45.4168 46.5548 45.2799C46.7629 45.143 46.867 44.9157 46.867 44.598C46.867 44.2968 46.7711 44.0722 46.5794 43.9243C46.3878 43.7765 46.0865 43.7025 45.6757 43.7025H44.7474V45.4196ZM50.5449 45.9947C49.8822 45.9947 49.3755 45.7783 49.025 45.3456C48.6799 44.913 48.5074 44.3351 48.5074 43.6122C48.5074 43.1357 48.5978 42.7167 48.7785 42.3552C48.9593 41.9937 49.2112 41.7144 49.5344 41.5172C49.863 41.32 50.2354 41.2214 50.6517 41.2214C51.161 41.2214 51.5554 41.3638 51.8347 41.6486C52.1195 41.928 52.2701 42.3305 52.2866 42.8563C52.2866 43.1904 52.2674 43.4451 52.2291 43.6204H49.4029C49.4139 44.1626 49.5398 44.6008 49.7808 44.9349C50.0218 45.2635 50.3641 45.4278 50.8078 45.4278C51.0269 45.4278 51.2542 45.3895 51.4897 45.3128C51.7307 45.2306 51.9169 45.1348 52.0483 45.0252L52.2044 45.3867C52.0456 45.551 51.8101 45.6934 51.4979 45.8139C51.1857 45.9344 50.868 45.9947 50.5449 45.9947ZM51.3829 43.1849C51.3993 43.0699 51.4075 42.9522 51.4075 42.8317C51.402 42.4757 51.3254 42.1963 51.1775 41.9937C51.0351 41.7856 50.8078 41.6815 50.4956 41.6815C50.1779 41.6815 49.9232 41.7965 49.7315 42.0265C49.5453 42.2566 49.4385 42.6427 49.4111 43.1849H51.3829ZM55.1534 41.3447V41.7472L54.4715 41.8622V43.3H56.739V41.8622L56.0489 41.7472V41.3447H58.1849V41.7472L57.5852 41.8622V45.4278L58.2178 45.5017V45.9043H56.0324V45.5017L56.739 45.4278V43.7765H54.4715V45.4278L55.178 45.5017V45.9043H53.0009V45.5017L53.6253 45.4278V41.8622L53.0091 41.7472V41.3447H55.1534ZM61.1145 41.3447V41.7472L60.4326 41.8622V43.3H62.7001V41.8622L62.01 41.7472V41.3447H64.146V41.7472L63.5463 41.8622V45.4278L64.1789 45.5017V45.9043H61.9935V45.5017L62.7001 45.4278V43.7765H60.4326V45.4278L61.1391 45.5017V45.9043H58.962V45.5017L59.5864 45.4278V41.8622L58.9702 41.7472V41.3447H61.1145ZM66.3855 43.1521C66.5772 43.1466 66.8729 43.1439 67.2727 43.1439C68.4393 43.1439 69.0227 43.6012 69.0227 44.5159C69.0227 44.9978 68.8638 45.3648 68.5461 45.6168C68.2285 45.8632 67.7794 45.9865 67.1988 45.9865C67.1276 45.9865 67.0126 45.981 66.8537 45.97C66.6949 45.9591 66.5662 45.9509 66.4676 45.9454C66.1664 45.918 65.9418 45.9043 65.7939 45.9043H64.8245V45.5182L65.5475 45.4278V41.8622L64.8656 41.7554V41.3447H67.1824V41.7719L66.3855 41.8622V43.1521ZM71.2901 41.3447V41.7554L70.7151 41.8622V45.4196L71.3394 45.5017V45.9043H69.2938V45.5017L69.8771 45.4196V41.8622L69.2609 41.7554V41.3447H71.2901ZM66.3855 45.4853C66.6484 45.5182 66.8784 45.5346 67.0756 45.5346C67.4261 45.5346 67.689 45.4579 67.8643 45.3046C68.0395 45.1457 68.1272 44.9047 68.1272 44.5816C68.1272 44.2475 68.0368 44.0038 67.856 43.8504C67.6808 43.697 67.4069 43.6204 67.0345 43.6204H66.3855V45.4853ZM74.2237 41.3447V41.7472L73.55 41.8622V44.6145L74.0429 43.9654L75.8997 42.0019V41.8622L75.2917 41.7472V41.3447H77.3456V41.7472L76.7541 41.8622V45.4278L77.3702 45.5017V45.9043H75.2424V45.5017L75.8997 45.4278V42.6345L75.3574 43.3903L73.55 45.2717V45.436L74.0922 45.5017V45.9043H72.0876V45.5017L72.7038 45.4278V41.8622L72.0958 41.7472V41.3447H74.2237ZM73.7636 38.9539C73.8512 38.9539 73.8951 39.0553 73.8951 39.2579C73.8951 39.5044 73.9608 39.7152 74.0922 39.8905C74.2292 40.0658 74.4428 40.1534 74.733 40.1534C75.0179 40.1534 75.2232 40.0658 75.3492 39.8905C75.4807 39.7152 75.5464 39.5044 75.5464 39.2579C75.5464 39.0553 75.5902 38.9539 75.6778 38.9539H76.2776C76.2831 38.9868 76.2858 39.0388 76.2858 39.11C76.2858 39.5537 76.1489 39.9097 75.875 40.178C75.6066 40.4464 75.2232 40.5806 74.7248 40.5806C74.2374 40.5806 73.854 40.4464 73.5747 40.178C73.2953 39.9042 73.1557 39.5482 73.1557 39.11L73.1639 38.9539H73.7636ZM5.66874 55.436C5.57563 56.3452 5.49895 57.0107 5.43871 57.4324H4.92113C4.91017 57.2297 4.891 56.9312 4.86362 56.5369C4.83623 56.1425 4.81432 55.9317 4.79789 55.9043H0.410778V55.5017L1.0023 55.4196V51.854L0.418994 51.7472V51.3447H2.51396V51.7472L1.8485 51.854V55.436H3.88596V51.8622L3.22872 51.7472V51.3447H5.31547V51.7472L4.74038 51.8622V55.436H5.66874ZM8.13521 55.9947C7.47249 55.9947 6.96586 55.7783 6.61533 55.3456C6.27028 54.913 6.09775 54.3351 6.09775 53.6122C6.09775 53.1357 6.18812 52.7167 6.36886 52.3552C6.54961 51.9937 6.80155 51.7144 7.1247 51.5172C7.45332 51.32 7.82576 51.2214 8.24201 51.2214C8.75138 51.2214 9.14573 51.3638 9.42505 51.6486C9.70986 51.928 9.86048 52.3305 9.87691 52.8563C9.87691 53.1904 9.85774 53.4451 9.8194 53.6204H6.99325C7.0042 54.1626 7.13017 54.6008 7.37116 54.9349C7.61215 55.2635 7.95447 55.4278 8.39811 55.4278C8.61719 55.4278 8.84449 55.3895 9.08 55.3128C9.32099 55.2306 9.50721 55.1348 9.63866 55.0252L9.79476 55.3867C9.63592 55.551 9.40041 55.6934 9.08822 55.8139C8.77602 55.9344 8.45836 55.9947 8.13521 55.9947ZM8.9732 53.1849C8.98963 53.0699 8.99785 52.9522 8.99785 52.8317C8.99237 52.4757 8.91569 52.1963 8.76781 51.9937C8.62541 51.7856 8.39811 51.6815 8.08592 51.6815C7.76825 51.6815 7.51357 51.7965 7.32187 52.0265C7.13565 52.2566 7.02885 52.6427 7.00146 53.1849H8.9732ZM12.7437 51.3447V51.7472L12.0618 51.8622V53.3H14.3293V51.8622L13.6392 51.7472V51.3447H15.7752V51.7472L15.1755 51.8622V55.4278L15.8081 55.5017V55.9043H13.6228V55.5017L14.3293 55.4278V53.7765H12.0618V55.4278L12.7683 55.5017V55.9043H10.5912V55.5017L11.2156 55.4278V51.8622L10.5994 51.7472V51.3447H12.7437ZM20.9887 51.3447L21.038 53.0781H20.4958L20.274 51.8376L19.1813 51.7965V55.4196L20.2986 55.5017V55.9043H17.2178V55.5017L18.3269 55.4196V51.7965L17.2178 51.8376L16.996 53.0781H16.4537L16.503 51.3447H20.9887ZM26.1395 53.4643C26.1395 53.9298 26.0437 54.357 25.852 54.7459C25.6603 55.1293 25.3864 55.4333 25.0304 55.6578C24.6744 55.8824 24.2581 55.9947 23.7816 55.9947C23.6502 55.9947 23.5078 55.9837 23.3544 55.9618C23.2011 55.9399 23.0778 55.9125 22.9847 55.8797L23.0094 56.5698V57.3995L23.8638 57.4899V57.8925H21.5716V57.4899L22.1632 57.3995V51.9773L21.5634 51.8294V51.3857L22.73 51.2379H22.7465L22.919 51.3857V51.8705C23.0833 51.6897 23.286 51.5364 23.5269 51.4104C23.7734 51.2844 24.0473 51.2214 24.3485 51.2214C24.6717 51.2214 24.9674 51.3008 25.2358 51.4597C25.5096 51.6185 25.7287 51.865 25.893 52.1991C26.0573 52.5332 26.1395 52.9549 26.1395 53.4643ZM24.0117 51.7965C23.8035 51.7965 23.6091 51.8403 23.4284 51.928C23.2476 52.0156 23.108 52.1114 23.0094 52.2155V55.3128C23.0477 55.3785 23.1436 55.4387 23.2969 55.4935C23.4557 55.5428 23.6283 55.5675 23.8145 55.5675C24.2362 55.5675 24.5758 55.4004 24.8332 55.0663C25.0961 54.7322 25.2276 54.2283 25.2276 53.5546C25.2276 52.9631 25.1126 52.5222 24.8825 52.2319C24.658 51.9417 24.3677 51.7965 24.0117 51.7965ZM26.8537 54.672C26.8537 54.1571 27.1111 53.7792 27.6259 53.5382C28.1408 53.2917 28.7926 53.1603 29.5812 53.1439V52.9138C29.5812 52.6564 29.5539 52.4538 29.4991 52.3059C29.4443 52.158 29.3485 52.0512 29.2115 51.9855C29.0801 51.9143 28.8911 51.8787 28.6447 51.8787C28.3653 51.8787 28.1134 51.9197 27.8888 52.0019C27.6698 52.0786 27.4507 52.1744 27.2316 52.2894L27.0262 51.8622C27.0974 51.802 27.2289 51.7226 27.4206 51.624C27.6122 51.5254 27.8341 51.4378 28.086 51.3611C28.338 51.2844 28.5899 51.2461 28.8418 51.2461C29.2307 51.2461 29.5374 51.3008 29.762 51.4104C29.992 51.5144 30.1563 51.6842 30.2549 51.9197C30.3535 52.1553 30.4028 52.4702 30.4028 52.8645V55.5017H30.8875V55.8632C30.778 55.8906 30.6383 55.918 30.4685 55.9454C30.3042 55.9728 30.1591 55.9865 30.0331 55.9865C29.8797 55.9865 29.7757 55.9618 29.7209 55.9125C29.6661 55.8687 29.6388 55.7674 29.6388 55.6085V55.3374C29.4744 55.5017 29.2718 55.6524 29.0308 55.7893C28.7953 55.9262 28.5269 55.9947 28.2257 55.9947C27.8313 55.9947 27.5027 55.8824 27.2398 55.6578C26.9824 55.4278 26.8537 55.0992 26.8537 54.672ZM28.5789 55.436C28.7213 55.436 28.8857 55.3922 29.0719 55.3046C29.2581 55.2169 29.4279 55.1129 29.5812 54.9924V53.5793C28.9842 53.5793 28.5324 53.6724 28.2257 53.8586C27.9244 54.0394 27.7738 54.2776 27.7738 54.5734C27.7738 54.8691 27.845 55.0882 27.9874 55.2306C28.1353 55.3675 28.3325 55.436 28.5789 55.436ZM32.9459 52.2648C32.9459 53.0206 32.9021 53.6697 32.8145 54.2119C32.7268 54.7486 32.62 55.143 32.494 55.3949C32.4119 55.5812 32.3051 55.7208 32.1736 55.8139C32.0422 55.907 31.8505 55.9536 31.5986 55.9536C31.5 55.9536 31.3685 55.9372 31.2042 55.9043L31.1549 55.2142C31.2809 55.2416 31.4671 55.2553 31.7136 55.2553C31.9436 55.2553 32.1271 54.9513 32.264 54.3433C32.4009 53.7354 32.4721 52.9084 32.4776 51.8622L31.73 51.7472V51.3447H35.9199V51.7554L35.2052 51.8787V55.4278L35.8953 55.5017V55.9043H33.7182V55.5017L34.359 55.4278V51.8376H32.9459V52.2648ZM38.9683 53.1439C40.1404 53.1439 40.7264 53.6012 40.7264 54.5159C40.7264 54.9978 40.5676 55.3648 40.2499 55.6168C39.9323 55.8632 39.4804 55.9865 38.8944 55.9865C38.8232 55.9865 38.7081 55.981 38.5493 55.97C38.3905 55.9591 38.2645 55.9509 38.1714 55.9454C37.8702 55.918 37.6456 55.9043 37.4977 55.9043H36.4872V55.5182L37.2102 55.4278V51.8622L36.5365 51.7554V51.3447H38.8615V51.7554L38.0482 51.8622V53.1521L38.9683 53.1439ZM38.0482 55.4771C38.2672 55.5154 38.5082 55.5346 38.7711 55.5346C39.4777 55.5346 39.8309 55.2169 39.8309 54.5816C39.8309 54.2475 39.7406 54.0038 39.5598 53.8504C39.3791 53.697 39.1025 53.6204 38.7301 53.6204H38.0482V55.4771ZM43.4237 51.3447V51.7472L42.7418 51.8622V53.3H45.0093V51.8622L44.3192 51.7472V51.3447H46.4553V51.7472L45.8555 51.8622V55.4278L46.4881 55.5017V55.9043H44.3028V55.5017L45.0093 55.4278V53.7765H42.7418V55.4278L43.4484 55.5017V55.9043H41.2712V55.5017L41.8956 55.4278V51.8622L41.2794 51.7472V51.3447H43.4237ZM48.6947 53.1521C48.8864 53.1466 49.1822 53.1439 49.582 53.1439C50.7486 53.1439 51.3319 53.6012 51.3319 54.5159C51.3319 54.9978 51.1731 55.3648 50.8554 55.6168C50.5377 55.8632 50.0886 55.9865 49.508 55.9865C49.4368 55.9865 49.3218 55.981 49.163 55.97C49.0042 55.9591 48.8754 55.9509 48.7769 55.9454C48.4756 55.918 48.2511 55.9043 48.1032 55.9043H47.1337V55.5182L47.8567 55.4278V51.8622L47.1748 51.7554V51.3447H49.4916V51.7719L48.6947 51.8622V53.1521ZM53.5994 51.3447V51.7554L53.0243 51.8622V55.4196L53.6487 55.5017V55.9043H51.603V55.5017L52.1863 55.4196V51.8622L51.5702 51.7554V51.3447H53.5994ZM48.6947 55.4853C48.9576 55.5182 49.1876 55.5346 49.3848 55.5346C49.7353 55.5346 49.9982 55.4579 50.1735 55.3046C50.3488 55.1457 50.4364 54.9047 50.4364 54.5816C50.4364 54.2475 50.346 54.0038 50.1653 53.8504C49.99 53.697 49.7162 53.6204 49.3437 53.6204H48.6947V55.4853ZM56.5329 51.3447V51.7472L55.8593 51.8622V54.6145L56.3522 53.9654L58.2089 52.0019V51.8622L57.601 51.7472V51.3447H59.6548V51.7472L59.0633 51.8622V55.4278L59.6795 55.5017V55.9043H57.5517V55.5017L58.2089 55.4278V52.6345L57.6667 53.3903L55.8593 55.2717V55.436L56.4015 55.5017V55.9043H54.3969V55.5017L55.0131 55.4278V51.8622L54.4051 51.7472V51.3447H56.5329ZM56.0729 48.9539C56.1605 48.9539 56.2043 49.0553 56.2043 49.2579C56.2043 49.5044 56.27 49.7152 56.4015 49.8905C56.5384 50.0658 56.752 50.1534 57.0423 50.1534C57.3271 50.1534 57.5325 50.0658 57.6585 49.8905C57.7899 49.7152 57.8556 49.5044 57.8556 49.2579C57.8556 49.0553 57.8995 48.9539 57.9871 48.9539H58.5868C58.5923 48.9868 58.595 49.0388 58.595 49.11C58.595 49.5537 58.4581 49.9097 58.1843 50.178C57.9159 50.4464 57.5325 50.5806 57.0341 50.5806C56.5466 50.5806 56.1632 50.4464 55.8839 50.178C55.6046 49.9042 55.4649 49.5482 55.4649 49.11L55.4731 48.9539H56.0729ZM64.3844 51.3447L65.2881 53.7518L65.6249 54.7377L65.9289 53.7518L66.8162 51.3447H68.7551V51.7472L67.9417 51.8622L68.5168 55.4278L69.1576 55.5017V55.9043H67.0134V55.5017L67.6542 55.4278L67.3584 53.0617L67.1859 51.7554L66.7669 53.0453L65.781 55.625H65.2306L64.2201 53.0371L63.7682 51.7801L63.6286 53.0453L63.3081 55.436L64.0147 55.5017V55.9043H62.084V55.5017L62.7248 55.4278L63.2753 51.8622L62.4866 51.7472V51.3447H64.3844ZM70.2577 57.95C70.1646 57.95 70.0715 57.9445 69.9784 57.9335C69.8908 57.9226 69.8278 57.9062 69.7895 57.8842V57.1695C69.8223 57.1914 69.8853 57.2078 69.9784 57.2188C70.077 57.2297 70.1701 57.2352 70.2577 57.2352C70.5206 57.2352 70.7507 57.1421 70.9478 56.9559C71.1505 56.7751 71.3449 56.4246 71.5312 55.9043H71.1368L69.5758 51.8376L69.1979 51.7308V51.3447H71.1779V51.7308L70.5453 51.8294L71.3504 54.253L71.7283 55.4524L72.0816 54.2448L72.8128 51.8294L72.2623 51.7308V51.3447H73.9137V51.7308L73.5029 51.8294C72.6978 54.294 72.224 55.6934 72.0816 56.0275C71.8954 56.4986 71.7256 56.8655 71.5722 57.1284C71.4189 57.3968 71.2381 57.5994 71.03 57.7364C70.8219 57.8788 70.5645 57.95 70.2577 57.95ZM74.4006 51.4679C74.5704 51.4679 74.7949 51.4378 75.0743 51.3775C75.4467 51.2899 75.8054 51.2461 76.1505 51.2461C76.7146 51.2461 77.1418 51.3419 77.4321 51.5336C77.7224 51.7253 77.8675 51.9964 77.8675 52.347C77.8675 52.5825 77.7799 52.7988 77.6046 52.996C77.4294 53.1932 77.1966 53.341 76.9063 53.4396C77.2897 53.4725 77.5882 53.5875 77.8018 53.7847C78.0209 53.9819 78.1304 54.2311 78.1304 54.5323C78.1304 54.9814 77.9579 55.3347 77.6129 55.5921C77.2733 55.844 76.7721 55.97 76.1094 55.97C75.726 55.97 75.3837 55.9399 75.0825 55.8797C74.7812 55.8139 74.532 55.7427 74.3349 55.666L74.417 54.6884H74.9264L75.0578 55.2799C75.1345 55.3566 75.2605 55.4168 75.4357 55.4607C75.6165 55.5045 75.8054 55.5264 76.0026 55.5264C76.3915 55.5264 76.679 55.447 76.8652 55.2881C77.0569 55.1293 77.1528 54.9102 77.1528 54.6309C77.1528 54.0339 76.7995 53.7463 76.093 53.7682C76.0382 53.7737 75.9478 53.7847 75.8219 53.8011C75.6959 53.8175 75.6247 53.8285 75.6083 53.834L75.6165 53.3164L75.9615 53.2753C76.2792 53.237 76.5257 53.1411 76.7009 52.9878C76.8762 52.8289 76.9638 52.629 76.9638 52.388C76.9638 52.158 76.8899 51.9855 76.742 51.8705C76.5996 51.75 76.3614 51.6897 76.0273 51.6897C75.7917 51.6897 75.5864 51.7198 75.4111 51.7801C75.2413 51.8403 75.1235 51.9033 75.0578 51.969L74.9346 52.6838H74.4006V51.4679ZM80.7756 55.9947C80.1129 55.9947 79.6062 55.7783 79.2557 55.3456C78.9107 54.913 78.7381 54.3351 78.7381 53.6122C78.7381 53.1357 78.8285 52.7167 79.0092 52.3552C79.19 51.9937 79.4419 51.7144 79.7651 51.5172C80.0937 51.32 80.4661 51.2214 80.8824 51.2214C81.3918 51.2214 81.7861 51.3638 82.0654 51.6486C82.3502 51.928 82.5009 52.3305 82.5173 52.8563C82.5173 53.1904 82.4981 53.4451 82.4598 53.6204H79.6336C79.6446 54.1626 79.7706 54.6008 80.0115 54.9349C80.2525 55.2635 80.5949 55.4278 81.0385 55.4278C81.2576 55.4278 81.4849 55.3895 81.7204 55.3128C81.9614 55.2306 82.1476 55.1348 82.279 55.0252L82.4351 55.3867C82.2763 55.551 82.0408 55.6934 81.7286 55.8139C81.4164 55.9344 81.0987 55.9947 80.7756 55.9947ZM81.6136 53.1849C81.63 53.0699 81.6382 52.9522 81.6382 52.8317C81.6328 52.4757 81.5561 52.1963 81.4082 51.9937C81.2658 51.7856 81.0385 51.6815 80.7263 51.6815C80.4086 51.6815 80.154 51.7965 79.9623 52.0265C79.776 52.2566 79.6692 52.6427 79.6418 53.1849H81.6136ZM85.3677 51.3447V51.7472L84.694 51.8622V54.6145L85.1869 53.9654L87.0436 52.0019V51.8622L86.4357 51.7472V51.3447H88.4896V51.7472L87.8981 51.8622V55.4278L88.5142 55.5017V55.9043H86.3864V55.5017L87.0436 55.4278V52.6345L86.5014 53.3903L84.694 55.2717V55.436L85.2362 55.5017V55.9043H83.2316V55.5017L83.8478 55.4278V51.8622L83.2398 51.7472V51.3447H85.3677ZM84.9076 48.9539C84.9952 48.9539 85.039 49.0553 85.039 49.2579C85.039 49.5044 85.1048 49.7152 85.2362 49.8905C85.3731 50.0658 85.5867 50.1534 85.877 50.1534C86.1618 50.1534 86.3672 50.0658 86.4932 49.8905C86.6246 49.7152 86.6904 49.5044 86.6904 49.2579C86.6904 49.0553 86.7342 48.9539 86.8218 48.9539H87.4215C87.427 48.9868 87.4298 49.0388 87.4298 49.11C87.4298 49.5537 87.2928 49.9097 87.019 50.178C86.7506 50.4464 86.3672 50.5806 85.8688 50.5806C85.3813 50.5806 84.998 50.4464 84.7186 50.178C84.4393 49.9042 84.2996 49.5482 84.2996 49.11L84.3078 48.9539H84.9076ZM0.271114 63.6532C0.271114 63.1986 0.358747 62.7879 0.534012 62.4209C0.714755 62.0539 0.977653 61.7637 1.32271 61.55C1.67324 61.331 2.09223 61.2214 2.57969 61.2214C2.8152 61.2214 3.01785 61.2433 3.18764 61.2871C3.35743 61.331 3.56008 61.3912 3.79559 61.4679L3.76273 62.7331H3.22872L3.04798 61.8951C3.01511 61.7417 2.80699 61.6651 2.42359 61.6651C2.0402 61.6651 1.73622 61.8212 1.51166 62.1334C1.29258 62.4401 1.18304 62.8782 1.18304 63.4478C1.18304 64.0941 1.30628 64.5871 1.55274 64.9266C1.80469 65.2607 2.13057 65.4278 2.5304 65.4278C2.76043 65.4278 2.97677 65.3922 3.17943 65.321C3.38755 65.2498 3.56556 65.1649 3.71344 65.0663L3.86953 65.3949C3.72165 65.5483 3.50257 65.688 3.21229 65.8139C2.92748 65.9344 2.6372 65.9947 2.34144 65.9947C1.89232 65.9947 1.51166 65.8933 1.19947 65.6907C0.892759 65.488 0.659984 65.2115 0.50115 64.8609C0.347792 64.5049 0.271114 64.1023 0.271114 63.6532ZM4.58178 63.6122C4.58178 63.1192 4.68311 62.692 4.88576 62.3305C5.08841 61.969 5.35405 61.6952 5.68267 61.509C6.01677 61.3173 6.37278 61.2214 6.75069 61.2214C7.4408 61.2214 7.95838 61.4405 8.30344 61.8787C8.65397 62.3168 8.82923 62.8919 8.82923 63.6039C8.82923 64.1023 8.72791 64.5323 8.52526 64.8938C8.32261 65.2553 8.05423 65.5291 7.72013 65.7153C7.39151 65.9016 7.03824 65.9947 6.66032 65.9947C5.97022 65.9947 5.4499 65.7756 5.09936 65.3374C4.75431 64.8993 4.58178 64.3242 4.58178 63.6122ZM6.70962 65.5264C7.08753 65.5264 7.37782 65.3703 7.58047 65.0581C7.78312 64.7459 7.88444 64.2831 7.88444 63.6697C7.88444 63.0617 7.79133 62.5797 7.60511 62.2237C7.41889 61.8677 7.12039 61.6897 6.70962 61.6897C6.3317 61.6897 6.03868 61.8458 5.83055 62.158C5.6279 62.4702 5.52657 62.933 5.52657 63.5464C5.52657 64.1544 5.62242 64.6364 5.81412 64.9924C6.00582 65.3484 6.30431 65.5264 6.70962 65.5264ZM11.0671 61.3282C11.5929 61.3118 11.8668 61.3036 11.8887 61.3036C12.5788 61.3036 13.0608 61.3939 13.3346 61.5747C13.6085 61.75 13.7454 62.0129 13.7454 62.3634C13.7454 62.6263 13.666 62.8481 13.5072 63.0288C13.3538 63.2041 13.1347 63.3328 12.8499 63.415C13.2552 63.4478 13.5674 63.5656 13.7865 63.7682C14.0056 63.9709 14.1151 64.2146 14.1151 64.4994C14.1151 64.965 13.9371 65.3237 13.5811 65.5757C13.2251 65.8221 12.6445 65.9454 11.8394 65.9454C11.6806 65.9454 11.53 65.9426 11.3875 65.9372C11.2506 65.9317 11.1329 65.9262 11.0343 65.9207L10.4756 65.9043H9.63763V65.5017L10.2127 65.4031V61.8622L9.64585 61.7472V61.3447H10.5496L11.0671 61.3282ZM11.8476 63.2753C12.2036 63.2753 12.4638 63.1959 12.6281 63.0371C12.7979 62.8782 12.8828 62.6728 12.8828 62.4209C12.8828 62.2018 12.8034 62.0375 12.6445 61.928C12.4857 61.8129 12.2091 61.7554 11.8148 61.7554H11.0507V63.2753H11.8476ZM11.0507 65.4196C11.1055 65.436 11.2123 65.4524 11.3711 65.4689C11.53 65.4798 11.6696 65.4853 11.7901 65.4853C12.294 65.4853 12.65 65.4168 12.8581 65.2799C13.0663 65.143 13.1703 64.9157 13.1703 64.598C13.1703 64.2968 13.0745 64.0722 12.8828 63.9243C12.6911 63.7765 12.3898 63.7025 11.9791 63.7025H11.0507V65.4196ZM19.2718 63.4643C19.2718 63.9298 19.176 64.357 18.9843 64.7459C18.7926 65.1293 18.5187 65.4333 18.1627 65.6578C17.8067 65.8824 17.3904 65.9947 16.9139 65.9947C16.7825 65.9947 16.6401 65.9837 16.4867 65.9618C16.3334 65.9399 16.2101 65.9125 16.117 65.8797L16.1417 66.5698V67.3995L16.9961 67.4899V67.8925H14.7039V67.4899L15.2955 67.3995V61.9773L14.6957 61.8294V61.3857L15.8623 61.2379H15.8788L16.0513 61.3857V61.8705C16.2156 61.6897 16.4183 61.5364 16.6592 61.4104C16.9057 61.2844 17.1796 61.2214 17.4808 61.2214C17.804 61.2214 18.0997 61.3008 18.3681 61.4597C18.6419 61.6185 18.861 61.865 19.0253 62.1991C19.1896 62.5332 19.2718 62.9549 19.2718 63.4643ZM17.144 61.7965C16.9358 61.7965 16.7414 61.8403 16.5607 61.928C16.3799 62.0156 16.2403 62.1114 16.1417 62.2155V65.3128C16.18 65.3785 16.2759 65.4387 16.4292 65.4935C16.588 65.5428 16.7606 65.5675 16.9468 65.5675C17.3685 65.5675 17.7081 65.4004 17.9655 65.0663C18.2284 64.7322 18.3599 64.2283 18.3599 63.5546C18.3599 62.9631 18.2449 62.5222 18.0148 62.2319C17.7903 61.9417 17.5 61.7965 17.144 61.7965ZM22.007 65.9947C21.3443 65.9947 20.8377 65.7783 20.4871 65.3456C20.1421 64.913 19.9695 64.3351 19.9695 63.6122C19.9695 63.1357 20.0599 62.7167 20.2407 62.3552C20.4214 61.9937 20.6733 61.7144 20.9965 61.5172C21.3251 61.32 21.6976 61.2214 22.1138 61.2214C22.6232 61.2214 23.0175 61.3638 23.2968 61.6486C23.5817 61.928 23.7323 62.3305 23.7487 62.8563C23.7487 63.1904 23.7295 63.4451 23.6912 63.6204H20.865C20.876 64.1626 21.002 64.6008 21.243 64.9349C21.4839 65.2635 21.8263 65.4278 22.2699 65.4278C22.489 65.4278 22.7163 65.3895 22.9518 65.3128C23.1928 65.2306 23.379 65.1348 23.5105 65.0252L23.6665 65.3867C23.5077 65.551 23.2722 65.6934 22.96 65.8139C22.6478 65.9344 22.3302 65.9947 22.007 65.9947ZM22.845 63.1849C22.8614 63.0699 22.8696 62.9522 22.8696 62.8317C22.8642 62.4757 22.7875 62.1963 22.6396 61.9937C22.4972 61.7856 22.2699 61.6815 21.9577 61.6815C21.64 61.6815 21.3854 61.7965 21.1937 62.0265C21.0074 62.2566 20.9006 62.6427 20.8733 63.1849H22.845ZM26.4676 61.3447L27.3713 63.7518L27.7082 64.7377L28.0121 63.7518L28.8994 61.3447H30.8383V61.7472L30.025 61.8622L30.6 65.4278L31.2409 65.5017V65.9043H29.0966V65.5017L29.7374 65.4278L29.4416 63.0617L29.2691 61.7554L28.8501 63.0453L27.8643 65.625H27.3138L26.3033 63.0371L25.8514 61.7801L25.7118 63.0453L25.3914 65.436L26.0979 65.5017V65.9043H24.1673V65.5017L24.8081 65.4278L25.3585 61.8622L24.5698 61.7472V61.3447H26.4676ZM33.6965 65.9947C33.0338 65.9947 32.5272 65.7783 32.1767 65.3456C31.8316 64.913 31.6591 64.3351 31.6591 63.6122C31.6591 63.1357 31.7494 62.7167 31.9302 62.3552C32.1109 61.9937 32.3629 61.7144 32.686 61.5172C33.0146 61.32 33.3871 61.2214 33.8033 61.2214C34.3127 61.2214 34.7071 61.3638 34.9864 61.6486C35.2712 61.928 35.4218 62.3305 35.4382 62.8563C35.4382 63.1904 35.4191 63.4451 35.3807 63.6204H32.5546C32.5655 64.1626 32.6915 64.6008 32.9325 64.9349C33.1735 65.2635 33.5158 65.4278 33.9594 65.4278C34.1785 65.4278 34.4058 65.3895 34.6413 65.3128C34.8823 65.2306 35.0685 65.1348 35.2 65.0252L35.3561 65.3867C35.1973 65.551 34.9617 65.6934 34.6495 65.8139C34.3374 65.9344 34.0197 65.9947 33.6965 65.9947ZM34.5345 63.1849C34.551 63.0699 34.5592 62.9522 34.5592 62.8317C34.5537 62.4757 34.477 62.1963 34.3291 61.9937C34.1867 61.7856 33.9594 61.6815 33.6472 61.6815C33.3296 61.6815 33.0749 61.7965 32.8832 62.0265C32.697 62.2566 32.5902 62.6427 32.5628 63.1849H34.5345ZM38.305 61.3447V61.7472L37.6231 61.8622V63.3H39.8906V61.8622L39.2005 61.7472V61.3447H41.3366V61.7472L40.7368 61.8622V65.4278L41.3694 65.5017V65.9043H39.1841V65.5017L39.8906 65.4278V63.7765H37.6231V65.4278L38.3297 65.5017V65.9043H36.1525V65.5017L36.7769 65.4278V61.8622L36.1608 61.7472V61.3447H38.305ZM44.2661 61.3447V61.7472L43.5842 61.8622V63.3H45.8517V61.8622L45.1616 61.7472V61.3447H47.2977V61.7472L46.6979 61.8622V65.4278L47.3305 65.5017V65.9043H45.1452V65.5017L45.8517 65.4278V63.7765H43.5842V65.4278L44.2908 65.5017V65.9043H42.1136V65.5017L42.738 65.4278V61.8622L42.1219 61.7472V61.3447H44.2661ZM48.0665 63.6122C48.0665 63.1192 48.1679 62.692 48.3705 62.3305C48.5732 61.969 48.8388 61.6952 49.1674 61.509C49.5015 61.3173 49.8575 61.2214 50.2354 61.2214C50.9255 61.2214 51.4431 61.4405 51.7882 61.8787C52.1387 62.3168 52.314 62.8919 52.314 63.6039C52.314 64.1023 52.2127 64.5323 52.01 64.8938C51.8074 65.2553 51.539 65.5291 51.2049 65.7153C50.8763 65.9016 50.523 65.9947 50.1451 65.9947C49.455 65.9947 48.9346 65.7756 48.5841 65.3374C48.2391 64.8993 48.0665 64.3242 48.0665 63.6122ZM50.1944 65.5264C50.5723 65.5264 50.8626 65.3703 51.0652 65.0581C51.2679 64.7459 51.3692 64.2831 51.3692 63.6697C51.3692 63.0617 51.2761 62.5797 51.0899 62.2237C50.9036 61.8677 50.6051 61.6897 50.1944 61.6897C49.8164 61.6897 49.5234 61.8458 49.3153 62.158C49.1126 62.4702 49.0113 62.933 49.0113 63.5464C49.0113 64.1544 49.1072 64.6364 49.2989 64.9924C49.4906 65.3484 49.7891 65.5264 50.1944 65.5264ZM55.2091 61.3447V61.7472L54.5355 61.8622V64.6145L55.0284 63.9654L56.8851 62.0019V61.8622L56.2772 61.7472V61.3447H58.3311V61.7472L57.7395 61.8622V65.4278L58.3557 65.5017V65.9043H56.2279V65.5017L56.8851 65.4278V62.6345L56.3429 63.3903L54.5355 65.2717V65.436L55.0777 65.5017V65.9043H53.0731V65.5017L53.6893 65.4278V61.8622L53.0813 61.7472V61.3447H55.2091ZM54.7491 58.9539C54.8367 58.9539 54.8805 59.0553 54.8805 59.2579C54.8805 59.5044 54.9462 59.7152 55.0777 59.8905C55.2146 60.0658 55.4282 60.1534 55.7185 60.1534C56.0033 60.1534 56.2087 60.0658 56.3347 59.8905C56.4661 59.7152 56.5318 59.5044 56.5318 59.2579C56.5318 59.0553 56.5757 58.9539 56.6633 58.9539H57.263C57.2685 58.9868 57.2712 59.0388 57.2712 59.11C57.2712 59.5537 57.1343 59.9097 56.8605 60.178C56.5921 60.4464 56.2087 60.5806 55.7103 60.5806C55.2228 60.5806 54.8394 60.4464 54.5601 60.178C54.2808 59.9042 54.1411 59.5482 54.1411 59.11L54.1493 58.9539H54.7491ZM63.192 61.3447V61.7472L62.5184 61.8622V64.6145L63.0113 63.9654L64.868 62.0019V61.8622L64.2601 61.7472V61.3447H66.314V61.7472L65.7224 61.8622V65.4278L66.3386 65.5017V65.9043H64.2108V65.5017L64.868 65.4278V62.6345L64.3258 63.3903L62.5184 65.2717V65.436L63.0606 65.5017V65.9043H61.056V65.5017L61.6722 65.4278V61.8622L61.0642 61.7472V61.3447H63.192ZM66.9825 63.6532C66.9825 63.1986 67.0701 62.7879 67.2454 62.4209C67.4261 62.0539 67.689 61.7637 68.0341 61.55C68.3846 61.331 68.8036 61.2214 69.2911 61.2214C69.5266 61.2214 69.7292 61.2433 69.899 61.2871C70.0688 61.331 70.2715 61.3912 70.507 61.4679L70.4741 62.7331H69.9401L69.7594 61.8951C69.7265 61.7417 69.5184 61.6651 69.135 61.6651C68.7516 61.6651 68.4476 61.8212 68.223 62.1334C68.004 62.4401 67.8944 62.8782 67.8944 63.4478C67.8944 64.0941 68.0177 64.5871 68.2641 64.9266C68.5161 65.2607 68.842 65.4278 69.2418 65.4278C69.4718 65.4278 69.6882 65.3922 69.8908 65.321C70.0989 65.2498 70.2769 65.1649 70.4248 65.0663L70.5809 65.3949C70.433 65.5483 70.214 65.688 69.9237 65.8139C69.6389 65.9344 69.3486 65.9947 69.0528 65.9947C68.6037 65.9947 68.223 65.8933 67.9109 65.6907C67.6041 65.488 67.3714 65.2115 67.2125 64.8609C67.0592 64.5049 66.9825 64.1023 66.9825 63.6532ZM75.7378 61.3447L75.7871 63.0781H75.2449L75.023 61.8376L73.9304 61.7965V65.4196L75.0477 65.5017V65.9043H71.9668V65.5017L73.0759 65.4196V61.7965L71.9668 61.8376L71.745 63.0781H71.2028L71.2521 61.3447H75.7378ZM76.4439 63.6122C76.4439 63.1192 76.5453 62.692 76.7479 62.3305C76.9506 61.969 77.2162 61.6952 77.5448 61.509C77.8789 61.3173 78.2349 61.2214 78.6129 61.2214C79.303 61.2214 79.8205 61.4405 80.1656 61.8787C80.5161 62.3168 80.6914 62.8919 80.6914 63.6039C80.6914 64.1023 80.5901 64.5323 80.3874 64.8938C80.1848 65.2553 79.9164 65.5291 79.5823 65.7153C79.2537 65.9016 78.9004 65.9947 78.5225 65.9947C77.8324 65.9947 77.3121 65.7756 76.9615 65.3374C76.6165 64.8993 76.4439 64.3242 76.4439 63.6122ZM78.5718 65.5264C78.9497 65.5264 79.24 65.3703 79.4426 65.0581C79.6453 64.7459 79.7466 64.2831 79.7466 63.6697C79.7466 63.0617 79.6535 62.5797 79.4673 62.2237C79.2811 61.8677 78.9826 61.6897 78.5718 61.6897C78.1939 61.6897 77.9008 61.8458 77.6927 62.158C77.4901 62.4702 77.3887 62.933 77.3887 63.5464C77.3887 64.1544 77.4846 64.6364 77.6763 64.9924C77.868 65.3484 78.1665 65.5264 78.5718 65.5264ZM85.8869 63.4643C85.8869 63.9298 85.7911 64.357 85.5994 64.7459C85.4077 65.1293 85.1338 65.4333 84.7778 65.6578C84.4218 65.8824 84.0055 65.9947 83.529 65.9947C83.3976 65.9947 83.2552 65.9837 83.1018 65.9618C82.9485 65.9399 82.8252 65.9125 82.7321 65.8797L82.7568 66.5698V67.3995L83.6112 67.4899V67.8925H81.319V67.4899L81.9106 67.3995V61.9773L81.3108 61.8294V61.3857L82.4774 61.2379H82.4939L82.6664 61.3857V61.8705C82.8307 61.6897 83.0334 61.5364 83.2744 61.4104C83.5208 61.2844 83.7947 61.2214 84.0959 61.2214C84.4191 61.2214 84.7148 61.3008 84.9832 61.4597C85.257 61.6185 85.4761 61.865 85.6404 62.1991C85.8047 62.5332 85.8869 62.9549 85.8869 63.4643ZM83.7591 61.7965C83.5509 61.7965 83.3565 61.8403 83.1758 61.928C82.995 62.0156 82.8554 62.1114 82.7568 62.2155V65.3128C82.7951 65.3785 82.891 65.4387 83.0443 65.4935C83.2031 65.5428 83.3757 65.5675 83.5619 65.5675C83.9836 65.5675 84.3232 65.4004 84.5806 65.0663C84.8435 64.7322 84.975 64.2283 84.975 63.5546C84.975 62.9631 84.86 62.5222 84.6299 62.2319C84.4054 61.9417 84.1151 61.7965 83.7591 61.7965ZM88.7453 61.3447V61.7472L88.0717 61.8622V64.6145L88.5646 63.9654L90.4213 62.0019V61.8622L89.8134 61.7472V61.3447H91.8673V61.7472L91.2757 61.8622V65.4278L91.8919 65.5017V65.9043H89.7641V65.5017L90.4213 65.4278V62.6345L89.8791 63.3903L88.0717 65.2717V65.436L88.6139 65.5017V65.9043H86.6093V65.5017L87.2255 65.4278V61.8622L86.6175 61.7472V61.3447H88.7453ZM94.7787 61.3447V61.7472L94.105 61.8622V64.6145L94.5979 63.9654L96.4546 62.0019V61.8622L95.8467 61.7472V61.3447H97.9006V61.7472L97.309 61.8622V65.4278L97.9252 65.5017V65.9043H95.7974V65.5017L96.4546 65.4278V62.6345L95.9124 63.3903L94.105 65.2717V65.436L94.6472 65.5017V65.9043H92.6426V65.5017L93.2588 65.4278V61.8622L92.6508 61.7472V61.3447H94.7787ZM1.07624 70.3095L0.435425 70.2109V69.8001H1.5281C1.72527 69.8001 1.9197 69.7919 2.1114 69.7755C2.40716 69.7536 2.68649 69.7426 2.94939 69.7426C3.74356 69.7481 4.30496 69.896 4.63358 70.1863C4.9622 70.4765 5.12651 70.9147 5.12651 71.5008C5.12651 71.9389 5.02519 72.3196 4.82254 72.6427C4.61989 72.9659 4.33782 73.2123 3.97634 73.3821C3.62033 73.5519 3.20955 73.6368 2.744 73.6368C2.58517 73.6368 2.42359 73.6341 2.25928 73.6286C2.09497 73.6176 1.99364 73.6094 1.95531 73.6039V75.4114L3.08084 75.5017V75.9043H0.394347V75.5017L1.07624 75.4196V70.3095ZM1.95531 73.1521C2.10866 73.1795 2.37156 73.1932 2.744 73.1932C3.17669 73.1932 3.52722 73.0617 3.79559 72.7988C4.06945 72.5359 4.20637 72.106 4.20637 71.509C4.20637 71.0379 4.08861 70.7011 3.8531 70.4985C3.61759 70.2903 3.25063 70.1863 2.75222 70.1863C2.57695 70.1863 2.39073 70.1972 2.19356 70.2191C2.07306 70.2301 1.99364 70.2356 1.95531 70.2356V73.1521ZM5.70501 73.6122C5.70501 73.1192 5.80633 72.692 6.00898 72.3305C6.21163 71.969 6.47727 71.6952 6.80589 71.509C7.13999 71.3173 7.496 71.2214 7.87392 71.2214C8.56402 71.2214 9.08161 71.4405 9.42666 71.8787C9.77719 72.3168 9.95246 72.8919 9.95246 73.6039C9.95246 74.1023 9.85113 74.5323 9.64848 74.8938C9.44583 75.2553 9.17745 75.5291 8.84335 75.7153C8.51473 75.9016 8.16146 75.9947 7.78355 75.9947C7.09344 75.9947 6.57312 75.7756 6.22259 75.3374C5.87753 74.8993 5.70501 74.3242 5.70501 73.6122ZM7.83284 75.5264C8.21075 75.5264 8.50104 75.3703 8.70369 75.0581C8.90634 74.7459 9.00767 74.2831 9.00767 73.6697C9.00767 73.0617 8.91456 72.5797 8.72834 72.2237C8.54212 71.8677 8.24362 71.6897 7.83284 71.6897C7.45492 71.6897 7.1619 71.8458 6.95377 72.158C6.75112 72.4702 6.6498 72.933 6.6498 73.5464C6.6498 74.1544 6.74565 74.6364 6.93734 74.9924C7.12904 75.3484 7.42754 75.5264 7.83284 75.5264ZM10.6048 73.6532C10.6048 73.1986 10.6924 72.7879 10.8677 72.4209C11.0484 72.0539 11.3113 71.7637 11.6564 71.55C12.0069 71.331 12.4259 71.2214 12.9133 71.2214C13.1488 71.2214 13.3515 71.2433 13.5213 71.2871C13.6911 71.331 13.8937 71.3912 14.1292 71.4679L14.0964 72.7331H13.5624L13.3816 71.8951C13.3488 71.7417 13.1406 71.6651 12.7572 71.6651C12.3738 71.6651 12.0699 71.8212 11.8453 72.1334C11.6262 72.4401 11.5167 72.8782 11.5167 73.4478C11.5167 74.0941 11.6399 74.5871 11.8864 74.9266C12.1383 75.2607 12.4642 75.4278 12.864 75.4278C13.0941 75.4278 13.3104 75.3922 13.5131 75.321C13.7212 75.2498 13.8992 75.1649 14.0471 75.0663L14.2032 75.3949C14.0553 75.5483 13.8362 75.688 13.5459 75.8139C13.2611 75.9344 12.9708 75.9947 12.6751 75.9947C12.226 75.9947 11.8453 75.8933 11.5331 75.6907C11.2264 75.488 10.9936 75.2115 10.8348 74.8609C10.6814 74.5049 10.6048 74.1023 10.6048 73.6532ZM14.8168 73.6532C14.8168 73.1986 14.9045 72.7879 15.0797 72.4209C15.2605 72.0539 15.5234 71.7637 15.8684 71.55C16.219 71.331 16.638 71.2214 17.1254 71.2214C17.3609 71.2214 17.5636 71.2433 17.7334 71.2871C17.9032 71.331 18.1058 71.3912 18.3413 71.4679L18.3085 72.7331H17.7744L17.5937 71.8951C17.5608 71.7417 17.3527 71.6651 16.9693 71.6651C16.5859 71.6651 16.282 71.8212 16.0574 72.1334C15.8383 72.4401 15.7288 72.8782 15.7288 73.4478C15.7288 74.0941 15.852 74.5871 16.0985 74.9266C16.3504 75.2607 16.6763 75.4278 17.0761 75.4278C17.3062 75.4278 17.5225 75.3922 17.7252 75.321C17.9333 75.2498 18.1113 75.1649 18.2592 75.0663L18.4153 75.3949C18.2674 75.5483 18.0483 75.688 17.758 75.8139C17.4732 75.9344 17.1829 75.9947 16.8872 75.9947C16.438 75.9947 16.0574 75.8933 15.7452 75.6907C15.4385 75.488 15.2057 75.2115 15.0469 74.8609C14.8935 74.5049 14.8168 74.1023 14.8168 73.6532ZM21.2718 71.3447V71.7472L20.5981 71.8622V74.6145L21.091 73.9654L22.9478 72.0019V71.8622L22.3398 71.7472V71.3447H24.3937V71.7472L23.8022 71.8622V75.4278L24.4183 75.5017V75.9043H22.2905V75.5017L22.9478 75.4278V72.6345L22.4055 73.3903L20.5981 75.2717V75.436L21.1403 75.5017V75.9043H19.1357V75.5017L19.7519 75.4278V71.8622L19.1439 71.7472V71.3447H21.2718ZM27.3051 71.3447V71.7472L26.6314 71.8622V74.6145L27.1243 73.9654L28.9811 72.0019V71.8622L28.3731 71.7472V71.3447H30.427V71.7472L29.8355 71.8622V75.4278L30.4516 75.5017V75.9043H28.3238V75.5017L28.9811 75.4278V72.6345L28.4388 73.3903L26.6314 75.2717V75.436L27.1736 75.5017V75.9043H25.169V75.5017L25.7852 75.4278V71.8622L25.1773 71.7472V71.3447H27.3051Z" fill="#CFC8B7"/>
<defs>
<clipPath id="clip0">
<rect y="0.347168" width="61.0299" height="28.1677" fill="white"/>
</clipPath>
</defs>
</svg>
