<svg width="838" height="314" fill="none" xmlns="http://www.w3.org/2000/svg"><path d="M122.043 189.394h123.079v124.332H122.043V189.394zm516.954 124.953H514.775V190.844h124.222v123.503zM121.105 180.069V62.212H245.38V180.07H121.105zM514.929 61.487H638.84v118.426H514.929V61.487zM255.935 190.015H374.7v123.659H255.935V190.015zm129.315 0h119.129V313.83H385.25V190.015zm384.464.985v122.363H649.91V191h119.804zm128.639 123.348H779.484V190.482h118.869v123.866zM255.566 180.276V62.005h119.545v118.271H255.566zM385.819 61.383h118.922v118.271H385.819V61.384zm383.167.57v118.375H650.065V61.953h118.921zm129.318 118.375H779.539V61.902h118.765v118.426zM114.62 310.307H.272c-.935-59.835 50.833-111.899 114.348-114.541v114.541zM405.468 49.716c35.135-17.51 63.982-32.585 93.556-46.107a32.793 32.793 0 0124.065-.673 672.512 672.512 0 0186.592 46.624l-204.213.156z" fill="rgba(255,255,255, 10%)"/></svg>