<svg width="95" height="78" fill="none" xmlns="http://www.w3.org/2000/svg"><g clip-path="url(#clip0)" fill-rule="evenodd" clip-rule="evenodd" fill="#CFC8B7"><path d="M48.492 70.865c.053-.075.07-.138.022-.158-.043-.018-.076.025-.164.113-.242.246-.492.295-.6.295-.066 0-.393.01-.436-.382-.017-.163.032-.278-.082-.278-.164 0-.29.254-.29.406 0 .218.23.448.693.45.328.002.677-.19.857-.446zm-19.852 0c.053-.075.07-.138.022-.158-.043-.018-.076.025-.164.113-.241.246-.492.295-.6.295-.066 0-.393.01-.436-.382-.017-.163.032-.278-.082-.278-.164 0-.29.254-.29.406 0 .218.23.448.693.45a1.1 1.1 0 00.857-.446zm61.77 5.403c-.029.195.066.218.142.094l.07-.094.487-.628a64.669 64.669 0 012.274-2.781c.052-.065.08-.03.08.041v1.7c0 .565 0 1.029-.028 1.276-.023.17-.052.299-.17.324a.893.893 0 01-.176.023c-.036 0-.047.018-.047.035 0 .036.03.047.094.047.176 0 .546-.018.575-.018.03 0 .4.018.723.018.065 0 .094-.018.094-.047 0-.017-.012-.035-.047-.035a2.55 2.55 0 01-.266-.023c-.175-.025-.21-.154-.228-.324-.028-.247-.028-.711-.028-1.276v-2.657c.028-.194-.065-.218-.143-.094a78.192 78.192 0 01-2.86 3.51c-.022.03-.052.023-.052-.023 0-1.94 0-2.852.011-3.04.012-.206.06-.306.218-.335a.864.864 0 01.147-.018c.024 0 .047-.012.047-.035 0-.036-.03-.048-.094-.048-.176 0-.547.019-.576.019-.028 0-.399-.019-.663-.019-.065 0-.095.012-.095.048 0 .023.025.035.048.035.053 0 .152.006.2.018.193.04.241.134.252.335.011.188 0 .353.011 1.27v2.703zm-5.677 0c-.029.195.065.218.141.094l.071-.094.487-.628a66.048 66.048 0 012.273-2.781c.053-.065.082-.03.082.041v1.7c0 .565 0 1.029-.03 1.276-.024.17-.052.299-.17.324a.9.9 0 01-.176.023c-.035 0-.047.018-.047.035 0 .036.03.047.094.047.177 0 .546-.018.576-.018.03 0 .4.018.722.018.064 0 .094-.018.094-.047 0-.017-.012-.035-.047-.035-.053 0-.182-.012-.264-.023-.176-.025-.212-.154-.23-.324-.028-.247-.028-.711-.028-1.276v-2.657c.028-.194-.066-.218-.142-.094a79.612 79.612 0 01-2.86 3.51c-.024.03-.053.023-.053-.023 0-1.94 0-2.852.012-3.04.012-.206.06-.306.218-.335.07-.012.105-.018.146-.018.024 0 .048-.012.048-.035 0-.036-.03-.048-.095-.048-.175 0-.545.019-.575.019-.03 0-.4-.019-.663-.019-.066 0-.095.012-.095.048 0 .023.023.035.048.035.053 0 .152.006.198.018.195.04.242.134.254.335.01.188 0 .353.01 1.27v2.703zm-2.613-.393c-.01.082-.017.153-.04.206a20.84 20.84 0 01-2.414 0 .499.499 0 01-.047-.206c-.029-.247-.029-.711-.029-1.276 0-1.957 0-2.116.011-2.304.013-.206.06-.306.218-.335a.885.885 0 01.147-.018c.024 0 .047-.012.047-.035 0-.036-.03-.048-.095-.048-.175 0-.546.019-.575.019-.03 0-.4-.019-.664-.019-.063 0-.094.012-.094.048 0 .023.024.035.047.035.054 0 .153.006.2.018.194.04.24.135.253.335.011.188.011.353.011 1.27v1.034c0 .565 0 1.029-.03 1.276-.022.17-.051.299-.17.324a.897.897 0 01-.176.023c-.034 0-.047.018-.047.035 0 .036.03.047.094.047.176 0 .547-.018.576-.018.024 0 .247.012.499.018h2.137c.184-.006.395-.018.418-.018h.282c.476 0 .458.2.458.383v.064c-.007.083.012.1.04.1.036 0 .048-.024.06-.076l.128-.676c.007-.036.014-.071-.016-.071-.036 0-.13.035-.306.047-.082.007-.399.111-.387-.365-.012-.264-.012-.646-.012-1.093v-1.035c0-.916 0-1.081.012-1.27.01-.205.058-.305.216-.334.072-.012.107-.018.147-.018.024 0 .047-.012.047-.035 0-.036-.029-.048-.094-.048-.176 0-.546.019-.575.019-.029 0-.4-.019-.664-.019-.064 0-.094.012-.094.048 0 .023.024.035.047.035.053 0 .153.006.2.018.193.04.241.135.252.335.012.188.012.353.012 1.27v1.034c0 .565 0 1.029-.03 1.276zm-5.654-1.558l-.558-1.587c-.018-.047-.03-.065-.047-.065-.012 0-.029.024-.04.065l-.518 1.587c-.012.03 0 .042.017.042h1.123c.028 0 .028-.018.023-.042zm1.791 1.94c0 .036-.053.047-.117.047-.088 0-.516 0-.923-.011-.111-.007-.176-.007-.176-.042 0-.023.024-.04.041-.04.013 0 .047-.03.047-.083 0-.018 0-.053-.011-.077l-.546-1.446c-.013-.023-.024-.035-.053-.035h-1.263c-.03 0-.047.017-.058.047l-.353 1.04a1.252 1.252 0 00-.082.394c0 .117.123.17.223.17h.059c.041 0 .058.012.058.036 0 .036-.035.047-.087.047-.141 0-.395-.018-.459-.018-.065 0-.387.018-.663.018-.077 0-.112-.011-.112-.047 0-.024.024-.035.053-.035.04 0 .124-.006.17-.012.27-.036.388-.259.494-.553l1.333-3.65c.07-.194.094-.23.13-.23.034 0 .057.03.129.212.087.223 1.01 2.651 1.368 3.545.211.523.38.617.504.652.089.03.177.036.236.036.035 0 .058.006.058.035zm-6.876-1.658c0 .565 0 1.029-.029 1.276-.023.17-.052.299-.17.324a.898.898 0 01-.176.023c-.036 0-.047.018-.047.035 0 .036.029.047.094.047.176 0 .546-.018.564-.018.028 0 .4.018.722.018.064 0 .094-.018.094-.047 0-.017-.012-.035-.047-.035a2.52 2.52 0 01-.264-.023c-.177-.025-.212-.154-.23-.324-.029-.247-.029-.711-.029-1.276v-2.416c0-.059.013-.1.047-.112a.744.744 0 01.252-.035c.136 0 .494-.023.805.293.311.319.33.712.33.907 0 .54-.447.957-1.016.957-.125 0-.159.007-.159.054 0 .03.034.04.064.04a.77.77 0 00.123.007c.835 0 1.445-.564 1.445-1.4a1.02 1.02 0 00-.293-.699c-.095-.089-.359-.336-1.092-.336-.27 0-.611.019-.74.019-.048 0-.4-.019-.664-.019-.064 0-.094.012-.094.048 0 .023.023.035.047.035.052 0 .152.006.199.018.195.04.242.134.253.335.011.188.011.353.011 1.27v1.034zm-3.418-2.45c0-.043.012-.054.035-.054.118 0 .646.018.681.018.347 0 .488.117.524.194a.64.64 0 01.052.223c0 .04.012.065.041.065.03 0 .04-.03.047-.06.013-.07.024-.329.03-.387.017-.165.046-.236.046-.277 0-.029-.01-.064-.034-.064s-.048.023-.083.035a3.114 3.114 0 01-.259.023 47.33 47.33 0 01-1.327.013c-.03 0-.4-.019-.664-.019-.065 0-.094.012-.094.048 0 .023.024.035.048.035a1.1 1.1 0 01.2.018c.193.04.228.129.246.27.011.1.018.346.018 1.334v1.035c0 .717-.013 1.193-.042 1.346-.034.171-.064.224-.158.254a.598.598 0 01-.176.023c-.035 0-.048.018-.048.035 0 .036.03.047.095.047.129 0 .423-.018.575-.018.17 0 .564.035 1.45.035.23 0 .277 0 .318-.153.03-.123.076-.522.076-.57 0-.04 0-.087-.035-.087-.029 0-.04.023-.053.088-.041.24-.111.358-.264.423-.153.064-.41.064-.564.064-.576 0-.68-.093-.68-.481v-1.523c0-.023.01-.04.04-.04.1 0 .681.01.84.028.228.024.282.124.306.206.023.077.023.135.023.194 0 .03.012.053.04.053.036 0 .042-.048.042-.112 0-.289.07-.681.07-.705 0-.036-.01-.047-.029-.047-.024 0-.047.03-.088.076-.053.059-.136.07-.277.083-.134.011-.856.011-.933.011-.03 0-.035-.017-.035-.059v-1.622zm-2.825 3.879c0-.006-.005-.012-.005-.018l-1.304-3.333c-.03-.089-.094-.082-.123.006l-1.022 2.933a1.26 1.26 0 00-.082.394v.018c.64.041 1.52.035 2.536 0zm1.258.017l-.136.683c-.011.053-.023.075-.058.075-.03 0-.047-.017-.041-.1v-.064c0-.183-.018-.365-.506-.365l-.892-.006H63.19l-1.01.006c-.399.006-.44.071-.48.212-.025.1-.013.2-.013.259 0 .047-.012.058-.035.058-.018 0-.036-.017-.048-.052-.03-.059-.117-.635-.123-.681 0-.036-.006-.113.018-.113.047 0 .14.077.3.071.31-.006.417-.153.516-.412l1.44-3.668c.07-.194.1-.23.134-.23.036 0 .059.03.14.212.095.223 1.064 2.657 1.434 3.563.065.135.141.276.234.394a.52.52 0 00.365.135c.182-.012.281-.047.317-.047.03 0 .024.035.018.07zm-7.153-3.897c0-.042.012-.053.035-.053.118 0 .646.018.682.018.346 0 .487.117.522.194a.636.636 0 01.053.223c0 .04.012.065.041.065s.041-.03.047-.06c.012-.07.024-.329.03-.387.017-.165.046-.236.046-.277 0-.029-.01-.064-.034-.064s-.048.023-.083.035a3.18 3.18 0 01-.258.023 47.51 47.51 0 01-1.328.013c-.029 0-.399-.019-.663-.019-.065 0-.094.012-.094.048 0 .023.024.035.047.035.052 0 .152.006.2.018.193.04.228.129.246.27.012.1.017.346.017 1.334v1.035c0 .717-.01 1.193-.04 1.346-.036.171-.064.224-.159.254a.602.602 0 01-.176.023c-.036 0-.047.018-.047.035 0 .036.03.047.093.047.13 0 .424-.018.576-.018.17 0 .565.035 1.45.035.23 0 .277 0 .319-.153.029-.123.075-.522.075-.57 0-.04 0-.087-.035-.087-.03 0-.04.023-.052.088-.042.24-.112.358-.265.423-.152.064-.411.064-.564.064-.575 0-.681-.093-.681-.481v-1.523c0-.023.012-.04.041-.04.1 0 .682.01.84.028.23.024.282.124.306.206a.613.613 0 01.023.194c0 .03.012.053.04.053.036 0 .042-.048.042-.112 0-.289.07-.681.07-.705 0-.036-.011-.047-.029-.047-.023 0-.047.03-.088.076-.053.059-.135.07-.276.083-.135.011-.857.011-.934.011-.029 0-.035-.017-.035-.059v-1.622zm-3.88 3.54c.451-.013 1.467-.36 1.467-1.6 0-.924-.599-1.517-1.315-1.687-.047-.012-.089-.024-.118-.012-.041.018-.059.03-.064.177l-.006.099v1.934c0 .441-.006.8.011 1.064 0 .012.012.024.024.024zm-.53-3.1l-.011-.194c.005-.04-.024-.04-.047-.035-.84.106-1.475.665-1.475 1.611 0 .959.64 1.534 1.463 1.705.03.012.059 0 .059-.052.011-.266.011-.6.011-1.024v-2.01zm.535 3.263l-.012.018c.024.212-.012.465.229.5.082.011.212.024.264.024.036 0 .048.016.048.034 0 .03-.03.048-.095.048-.322 0-.693-.019-.722-.019-.029 0-.4.019-.576.019-.064 0-.093-.012-.093-.047 0-.019.011-.035.047-.035a.911.911 0 00.175-.024c.177-.041.147-.294.189-.5l-.012-.018c-1.392-.099-2.032-1.005-2.032-1.81 0-.723.617-1.729 2.02-1.84l.012-.018c-.018-.17-.07-.353-.188-.382a.761.761 0 00-.182-.023c-.024 0-.047-.013-.047-.036 0-.035.03-.047.094-.047.193 0 .564.018.593.018.03 0 .4-.018.576-.018.065 0 .093.012.093.047 0 .023-.023.036-.047.036a.841.841 0 00-.147.017c-.146.03-.187.211-.205.388l.012.018c1.157.088 1.99.74 1.99 1.74 0 .982-.78 1.781-1.984 1.91zm-9.578.417c-.029.195.065.218.141.094l.07-.094c.177-.223.336-.434.488-.628a64.66 64.66 0 012.273-2.781c.053-.065.082-.03.082.041v1.7c0 .565 0 1.029-.03 1.276-.023.17-.052.299-.17.324a.902.902 0 01-.176.023c-.035 0-.047.018-.047.035 0 .036.03.047.094.047.176 0 .546-.018.575-.018.03 0 .4.018.722.018.066 0 .095-.018.095-.047 0-.017-.012-.035-.048-.035a2.81 2.81 0 01-.264-.023c-.176-.025-.211-.154-.228-.324-.03-.247-.03-.711-.03-1.276v-2.657c.03-.194-.065-.218-.14-.094a79.94 79.94 0 01-2.86 3.51c-.024.03-.053.023-.053-.023 0-1.94 0-2.852.011-3.04.012-.206.059-.306.217-.335.071-.012.106-.018.147-.018.023 0 .047-.012.047-.035 0-.036-.029-.048-.094-.048-.175 0-.546.019-.575.019-.03 0-.4-.019-.664-.019-.064 0-.094.012-.094.048 0 .023.024.035.047.035a1.1 1.1 0 01.2.018c.194.04.24.135.252.335.012.188 0 .353.012 1.27v2.703zm-1.819-2.122c0-1.41-.857-2.169-1.785-2.169-.98 0-1.715.646-1.715 1.935 0 1.369.823 2.251 1.88 2.251.528 0 1.62-.306 1.62-2.017zm.564-.164c0 1.317-.928 2.404-2.343 2.404-1.61 0-2.279-1.252-2.279-2.31 0-.952.694-2.298 2.314-2.298 1.321 0 2.308.834 2.308 2.204zm-8.367.617c0 .565 0 1.029-.03 1.276-.023.17-.053.299-.17.324a.902.902 0 01-.177.023c-.034 0-.046.018-.046.035 0 .036.029.047.094.047.176 0 .516-.018.563-.018.048 0 .388.018.676.018.064 0 .094-.018.094-.047 0-.017-.012-.035-.048-.035a2.2 2.2 0 01-.229-.023c-.176-.025-.211-.154-.228-.324-.03-.247-.03-.711-.03-1.276v-.576h.03c.281.347 1.527 1.694 1.791 1.91.253.2.399.33.71.36.129.011.24.011.406.011h.299c.1 0 .129-.018.129-.047 0-.024-.035-.035-.076-.035a1.06 1.06 0 01-.364-.077c-.283-.117-.382-.212-.876-.67a68.543 68.543 0 01-1.614-1.657c.124-.148 1.145-1.147 1.291-1.288.265-.253.395-.4.636-.506a.869.869 0 01.328-.082c.046 0 .059-.012.059-.041 0-.03-.024-.042-.089-.042-.146 0-.534.019-.563.019-.142 0-.323-.019-.44-.019-.042 0-.072.012-.072.042 0 .024.024.035.054.047.047.018.076.053.076.123 0 .1-.153.253-.317.424-.211.23-1.274 1.31-1.375 1.422h-.023v-.353c0-.916 0-1.081.012-1.27.011-.205.059-.305.217-.334a.851.851 0 01.148-.018c.022 0 .047-.012.047-.035 0-.036-.03-.048-.095-.048-.176 0-.516.019-.57.019-.035 0-.381-.019-.645-.019-.065 0-.094.012-.094.048 0 .023.023.035.047.035.053 0 .152.006.2.018.193.04.24.134.252.335.012.188.012.353.012 1.27v1.034zm-5.397-.588c0 1.358.857 2.375 2.649 2.375.376 0 .822-.04 1.057-.135.105-.047.117-.06.153-.17.058-.2.129-.712.129-.753 0-.047-.012-.088-.041-.088-.036 0-.048.023-.059.088-.018.106-.094.364-.217.493-.235.243-.582.295-1.022.295-1.257 0-2.12-1.03-2.12-2.152 0-1.04.37-1.963 1.879-1.963.734 0 1.421.246 1.421.935 0 .082.006.123.047.123.047 0 .059-.09.059-.37 0-.342.04-.624.04-.688 0-.035-.01-.065-.076-.065-.223 0-.751-.158-1.45-.158-1.868 0-2.449 1.293-2.449 2.233zm-4.967 2.257c-.03.195.064.218.14.094l.07-.094c.177-.223.335-.434.488-.628a65.034 65.034 0 012.273-2.781c.053-.065.082-.03.082.041v1.7c0 .565 0 1.029-.03 1.276-.023.17-.052.299-.17.324a.902.902 0 01-.176.023c-.035 0-.047.018-.047.035 0 .036.03.047.094.047.176 0 .546-.018.576-.018.03 0 .4.018.722.018.065 0 .094-.018.094-.047 0-.017-.011-.035-.047-.035a2.53 2.53 0 01-.264-.023c-.176-.025-.211-.154-.23-.324-.029-.247-.029-.711-.029-1.276v-2.657c.03-.194-.064-.218-.14-.094a79.56 79.56 0 01-2.86 3.51c-.024.03-.053.023-.053-.023 0-1.94 0-2.852.011-3.04.012-.206.06-.306.218-.335.07-.012.105-.018.147-.018.023 0 .047-.012.047-.035 0-.036-.03-.048-.094-.048-.177 0-.547.019-.576.019-.03 0-.4-.019-.663-.019-.065 0-.095.012-.095.048 0 .023.024.035.048.035.052 0 .152.006.2.018.193.04.24.135.251.335.013.188 0 .353.013 1.27v2.703zm-5.638 0c-.029.195.065.218.141.094l.07-.094.488-.628a65.102 65.102 0 012.273-2.781c.053-.065.082-.03.082.041v1.7c0 .565 0 1.029-.03 1.276-.023.17-.052.299-.17.324a.903.903 0 01-.175.023c-.036 0-.048.018-.048.035 0 .036.03.047.094.047.177 0 .546-.018.576-.018.029 0 .399.018.722.018.065 0 .094-.018.094-.047 0-.017-.012-.035-.047-.035-.053 0-.182-.012-.264-.023-.176-.025-.211-.154-.23-.324-.028-.247-.028-.711-.028-1.276v-2.657c.029-.194-.065-.218-.141-.094a80.198 80.198 0 01-2.86 3.51c-.024.03-.053.023-.053-.023 0-1.94 0-2.852.012-3.04.011-.206.058-.306.217-.335.07-.012.105-.018.146-.018.024 0 .047-.012.047-.035 0-.036-.029-.048-.094-.048-.175 0-.546.019-.575.019-.03 0-.4-.019-.664-.019-.064 0-.094.012-.094.048 0 .023.024.035.048.035.052 0 .152.006.199.018.194.04.241.134.253.335.011.188 0 .353.011 1.27v2.703zm-5.396-2.257c0 1.358.857 2.375 2.649 2.375.375 0 .822-.04 1.057-.135.105-.047.117-.06.152-.17.059-.2.13-.712.13-.753 0-.047-.012-.088-.042-.088-.035 0-.047.023-.058.088-.018.106-.094.364-.217.493-.235.243-.582.295-1.022.295-1.257 0-2.12-1.03-2.12-2.152 0-1.04.37-1.963 1.879-1.963.734 0 1.421.246 1.421.935 0 .082.006.123.047.123.047 0 .059-.09.059-.37 0-.342.041-.624.041-.688 0-.035-.012-.065-.077-.065-.222 0-.751-.158-1.45-.158-1.868 0-2.449 1.293-2.449 2.233zm-4.727 0c0 1.358.858 2.375 2.65 2.375.375 0 .82-.04 1.056-.135.106-.047.117-.06.153-.17.058-.2.129-.712.129-.753 0-.047-.012-.088-.041-.088-.036 0-.047.023-.059.088-.018.106-.094.364-.217.493-.235.243-.582.295-1.022.295-1.257 0-2.12-1.03-2.12-2.152 0-1.04.37-1.963 1.88-1.963.733 0 1.42.246 1.42.935 0 .082.006.123.047.123.047 0 .06-.09.06-.37 0-.342.04-.624.04-.688 0-.035-.011-.065-.076-.065-.223 0-.752-.158-1.45-.158-1.868 0-2.45 1.293-2.45 2.233zm-1.48.135c0-1.41-.857-2.169-1.785-2.169-.981 0-1.715.646-1.715 1.935 0 1.369.822 2.251 1.88 2.251.528 0 1.62-.306 1.62-2.017zm.565-.164c0 1.317-.929 2.404-2.344 2.404-1.609 0-2.278-1.252-2.278-2.31 0-.952.693-2.298 2.313-2.298 1.322 0 2.309.834 2.309 2.204zm-7.723.617c0 .565 0 1.029-.03 1.276-.023.17-.052.299-.17.324a.898.898 0 01-.175.023c-.036 0-.048.018-.048.035 0 .036.03.047.095.047.175 0 .545-.018.563-.018.03 0 .4.018.722.018.065 0 .095-.018.095-.047 0-.017-.013-.035-.048-.035-.052 0-.182-.012-.264-.023-.176-.025-.212-.154-.229-.324-.03-.247-.03-.711-.03-1.276v-2.416c0-.059.012-.1.047-.112a.738.738 0 01.253-.035c.135 0 .493-.023.804.293.312.319.33.712.33.907 0 .54-.447.957-1.016.957-.124 0-.159.007-.159.054 0 .03.035.04.064.04.03.007.095.007.124.007.834 0 1.445-.564 1.445-1.4a1.02 1.02 0 00-.294-.699c-.094-.089-.358-.336-1.092-.336-.27 0-.61.019-.74.019-.047 0-.4-.019-.664-.019-.065 0-.094.012-.094.048 0 .023.024.035.047.035.053 0 .153.006.2.018.194.04.24.134.253.335.011.188.011.353.011 1.27v1.034zm92.449-8.5c0-.917 0-1.082.011-1.27.013-.206.06-.306.218-.335.07-.011.106-.018.147-.018.023 0 .047-.012.047-.035 0-.035-.03-.047-.094-.047-.177 0-.546.018-.576.018-.029 0-.399-.018-.593-.018-.064 0-.093.012-.093.047 0 .023.023.035.047.035a.82.82 0 01.182.024c.128.03.187.13.199.329.012.188.012.353.012 1.27v1.033c0 .564 0 1.029-.03 1.275-.023.17-.053.3-.17.324a.895.895 0 01-.176.023c-.035 0-.047.018-.047.035 0 .035.03.048.094.048.176 0 .546-.018.575-.018.03 0 .4.018.723.018.064 0 .094-.018.094-.048 0-.017-.012-.035-.048-.035a2.55 2.55 0 01-.263-.023c-.177-.024-.212-.153-.23-.323-.03-.247-.03-.712-.03-1.276v-1.034zm-1.925 1.732c0-.534-.3-1.322-1.215-1.322-.3 0-.341.053-.335.206v.135c0 .453 0 1.181.006 1.27.017.287.017.37.2.458.158.076.41.088.516.088.317 0 .828-.17.828-.835zm.504-.258c0 .629-.493 1.281-1.497 1.281-.134 0-.734-.035-.78-.035-.03 0-.4.018-.575.018-.065 0-.094-.013-.094-.048 0-.017.011-.035.047-.035a.91.91 0 00.176-.023c.117-.024.147-.153.17-.323.03-.247.03-.712.03-1.276v-1.034c0-.916 0-.9-.013-1.27-.005-.199-.1-.299-.229-.328a.796.796 0 00-.181-.024c-.024 0-.047-.012-.047-.035 0-.035.03-.047.094-.047.194 0 .563.018.592.018.03 0 .4-.018.575-.018.065 0 .094.012.094.047 0 .023-.023.035-.047.035-.04 0-.076.007-.146.018-.159.03-.206.13-.217.335l-.006 1.398c0 .041.011.053.04.065.036.006.142.024.36.024h.187c.798 0 1.467.458 1.467 1.257zm-6.293-.44c0 .563 0 1.028-.03 1.275-.023.17-.053.3-.17.323a.902.902 0 01-.176.023c-.035 0-.047.018-.047.035 0 .035.03.047.094.047.176 0 .546-.017.563-.017.03 0 .4.017.722.017.065 0 .094-.017.094-.047 0-.017-.011-.035-.047-.035a2.58 2.58 0 01-.264-.023c-.176-.024-.212-.153-.229-.323-.03-.247-.03-.712-.03-1.276v-2.415c0-.059.013-.1.047-.111a.732.732 0 01.254-.036c.134 0 .493-.023.803.294.311.318.33.711.33.905 0 .54-.447.958-1.016.958-.124 0-.16.005-.16.053 0 .03.036.04.066.04.029.007.094.007.123.007.834 0 1.444-.564 1.444-1.399a1.02 1.02 0 00-.294-.699c-.094-.088-.357-.335-1.091-.335-.27 0-.61.018-.74.018-.047 0-.4-.018-.663-.018-.065 0-.094.012-.094.047 0 .023.023.035.047.035.052 0 .152.007.2.018.193.04.24.135.251.335.013.188.013.353.013 1.27v1.033zm-3.243 1.251c-.158.41-.287.693-.575.693-.229 0-.4-.27-.4-.581 0-.088 0-.112-.04-.112-.012 0-.03 0-.041.059a5.07 5.07 0 00-.036.734c0 .07.03.112.089.147.112.065.31.1.405.1.31 0 .593-.306.798-.811l1.438-3.514c.164-.405.264-.5.346-.552.112-.07.241-.07.282-.07.047 0 .07-.013.07-.042.007-.03-.029-.04-.093-.04-.17 0-.423.017-.458.017-.07 0-.34-.018-.576-.018-.093 0-.128.012-.134.047 0 .029.03.035.064.035.065 0 .153 0 .224.024.058.03.07.088.07.135l-.089.276c-.152.464-.798 2.145-1.127 2.967l-1.32-2.802c-.094-.2-.147-.382-.147-.453 0-.04.011-.088.077-.117a.685.685 0 01.222-.03c.041 0 .06-.012.06-.04 0-.03-.054-.042-.16-.042-.222 0-.487.018-.545.018-.07 0-.405-.018-.687-.018-.094 0-.153.006-.153.041 0 .024.012.041.047.041.036 0 .136 0 .223.024.206.059.265.135.423.453l1.743 3.431zm-4.334-3.737l.74.011c.564.012.699.148.722.324l.006.064c.006.082.018.1.047.1.024 0 .041-.023.041-.076 0-.065.018-.47.018-.647 0-.035 0-.07-.03-.07-.046 0-.205.059-.581.059h-2.2c-.072 0-.294-.012-.464-.03-.16-.011-.218-.07-.259-.07-.023 0-.047.076-.059.111a9.345 9.345 0 00-.129.611c0 .036.012.054.03.054.023 0 .041-.012.058-.06.018-.04.035-.082.1-.182.094-.14.235-.182.598-.188l.87-.011v2.485c0 .564 0 1.029-.03 1.275-.023.17-.052.3-.17.324a.91.91 0 01-.176.023c-.035 0-.047.018-.047.035 0 .035.03.048.094.048.176 0 .546-.018.575-.018.029 0 .4.018.722.018.064 0 .094-.018.094-.048 0-.017-.012-.035-.047-.035a2.59 2.59 0 01-.264-.023c-.176-.024-.211-.153-.229-.323-.03-.247-.03-.712-.03-1.276v-2.485zm-2.851 3.184c0-.352-.118-.875-.57-1.186-.334-.23-.533-.17-.898-.17-.064 0-.082.046-.082.087v.288c0 .453 0 1.181.006 1.27.018.287.018.37.2.458.158.076.41.088.516.088.317 0 .828-.17.828-.835zm.504-.258c0 .629-.493 1.281-1.496 1.281-.135 0-.734-.035-.781-.035-.03 0-.4.017-.575.017-.065 0-.094-.012-.094-.047 0-.017.011-.035.047-.035a.91.91 0 00.176-.023c.117-.024.147-.153.17-.323.03-.247.03-.712.03-1.276v-1.034l-.013-1.27c-.005-.199-.099-.299-.228-.328a.797.797 0 00-.182-.024c-.024 0-.047-.012-.047-.035 0-.035.03-.047.094-.047.194 0 .563.018.593.018.029 0 .4-.018.575-.018.064 0 .094.012.094.047 0 .023-.024.035-.047.035-.041 0-.076.007-.147.018-.159.03-.205.13-.217.335l-.006 1.398c0 .041.012.053.041.065.036.006.141.024.358.024.622 0 1.655.176 1.655 1.257zM69.9 66.85l.516-1.586c.03-.089.059-.089.088 0l.558 1.586.105.288.547 1.445c.035.094 0 .147-.036.16-.023.005-.04.017-.04.04 0 .036.064.036.175.041.405.013.834.013.922.013.064 0 .117-.013.117-.048 0-.029-.023-.035-.058-.035a.762.762 0 01-.235-.035c-.124-.035-.294-.13-.505-.652-.359-.894-1.28-3.32-1.368-3.544-.07-.182-.094-.211-.129-.211s-.06.035-.13.229l-1.332 3.65c-.105.293-.222.516-.493.552a1.869 1.869 0 01-.17.011c-.03 0-.053.012-.053.035 0 .035.035.047.112.047.275 0 .598-.017.663-.017.065 0 .317.017.458.017.053 0 .088-.012.088-.047 0-.023-.018-.035-.058-.035h-.06c-.1 0-.223-.053-.223-.17 0-.106.03-.247.083-.394l.458-1.34zm-3.147 1.534c-.159.41-.288.693-.575.693-.23 0-.4-.27-.4-.581 0-.088 0-.112-.04-.112-.013 0-.03 0-.042.059a5.04 5.04 0 00-.035.734c0 .07.03.112.088.147a1 1 0 00.405.1c.311 0 .593-.306.798-.811l1.438-3.514c.165-.405.265-.5.347-.552.112-.07.24-.07.282-.07.047 0 .07-.013.07-.042.006-.03-.03-.04-.093-.04-.17 0-.423.017-.458.017-.071 0-.34-.018-.576-.018-.093 0-.129.012-.135.047 0 .029.03.035.065.035.065 0 .152 0 .223.024.059.03.07.088.07.135l-.088.276c-.153.464-.798 2.145-1.127 2.967l-1.32-2.802c-.095-.2-.147-.382-.147-.453 0-.04.011-.088.075-.117a.695.695 0 01.224-.03c.04 0 .058-.012.058-.04 0-.03-.052-.042-.158-.042-.223 0-.487.018-.546.018-.07 0-.405-.018-.687-.018-.093 0-.152.006-.152.041 0 .024.012.041.047.041s.134 0 .223.024c.205.059.264.135.422.453l1.744 3.431zm-6.149-1.252c0 .564 0 1.029-.03 1.275-.023.17-.052.3-.17.324a.91.91 0 01-.176.023c-.035 0-.047.018-.047.035 0 .035.03.047.095.047.176 0 .516-.017.563-.017.047 0 .387.017.675.017.065 0 .094-.017.094-.047 0-.017-.012-.035-.047-.035-.053 0-.147-.011-.229-.023-.176-.024-.211-.153-.229-.323-.04-.34-.03-.675-.03-1.276v-.575h.03c.282.346 1.527 1.692 1.79 1.909.253.2.4.329.71.358.13.013.242.013.406.013h.3c.099 0 .129-.018.129-.048 0-.023-.036-.035-.077-.035-.04 0-.211-.011-.364-.077-.281-.117-.381-.211-.874-.669a68.416 68.416 0 01-1.615-1.657c.123-.147 1.145-1.146 1.291-1.287.264-.253.394-.4.635-.505a.865.865 0 01.328-.083c.047 0 .06-.012.06-.04 0-.03-.025-.042-.089-.042-.147 0-.534.018-.564.018-.14 0-.322-.018-.44-.018-.041 0-.07.012-.07.041 0 .024.023.035.053.048.046.017.076.052.076.123 0 .1-.152.253-.317.423-.212.229-1.273 1.31-1.374 1.422h-.023v-.353c0-.916 0-1.081.011-1.27.012-.205.06-.305.218-.334.07-.011.106-.018.147-.018.023 0 .046-.012.046-.035 0-.035-.029-.047-.093-.047-.177 0-.517.018-.57.018-.035 0-.381-.018-.645-.018-.065 0-.094.012-.094.047 0 .023.023.035.047.035.053 0 .152.007.199.018.194.04.24.135.252.335.012.188.012.353.012 1.27v1.033zm-3.893-.452c0-1.41-.857-2.168-1.785-2.168-.98 0-1.714.646-1.714 1.933 0 1.369.822 2.25 1.879 2.25.528 0 1.62-.305 1.62-2.015zm.563-.165c0 1.316-.927 2.404-2.342 2.404-1.608 0-2.278-1.252-2.278-2.31 0-.951.693-2.297 2.313-2.297 1.321 0 2.307.834 2.307 2.203zm-5.758 1.316c0-.352-.117-.875-.57-1.186a1.016 1.016 0 00-.627-.177c-.347 0-.353.006-.353.047v1.428c0 .441.024.547.206.635.158.076.41.088.517.088.316 0 .827-.17.827-.835zm-1.55-1.604c0 .041.012.053.041.065.035.006.142.024.359.024.328 0 .41-.012.534-.153a.911.911 0 00.211-.594c0-.487-.217-1.01-.792-1.01-.065 0-.188.005-.282.029-.053.012-.07.03-.07.065v1.574zm2.055 1.346c0 .629-.493 1.281-1.497 1.281-.135 0-.734-.035-.78-.035-.03 0-.4.017-.576.017-.064 0-.094-.012-.094-.047 0-.017.012-.035.047-.035a.619.619 0 00.176-.023c.094-.03.123-.083.159-.253.03-.153.04-.629.04-1.346v-1.034c0-.987-.005-1.234-.017-1.334-.017-.14-.053-.23-.246-.27a1.155 1.155 0 00-.2-.018c-.024 0-.047-.012-.047-.035 0-.035.03-.047.094-.047.264 0 .634.018.663.018.141 0 .37-.018.64-.018.963 0 1.174.588 1.174.881 0 .482-.276.77-.552 1.058.435.135 1.016.552 1.016 1.24zm-5.33-2.926l.739.011c.563.012.699.148.722.324l.005.064c.007.082.018.1.048.1.023 0 .041-.023.041-.076 0-.065.017-.47.017-.647 0-.035 0-.07-.029-.07-.047 0-.206.059-.581.059h-2.201c-.07 0-.293-.012-.464-.03-.158-.011-.217-.07-.258-.07-.024 0-.047.076-.059.111-.012.047-.13.553-.13.611 0 .036.013.054.03.054.024 0 .041-.012.06-.06.017-.04.034-.082.099-.182.094-.14.235-.182.598-.188l.87-.011v2.485c0 .564 0 1.029-.03 1.275-.024.17-.053.3-.17.324a.909.909 0 01-.176.023c-.036 0-.047.018-.047.035 0 .035.029.048.093.048.177 0 .546-.018.576-.018.03 0 .399.018.722.018.064 0 .094-.018.094-.048 0-.017-.012-.035-.047-.035-.053 0-.182-.011-.265-.023-.175-.024-.21-.153-.229-.323-.029-.247-.029-.712-.029-1.276v-2.485zm-6.646 1.898c0 1.357.857 2.374 2.647 2.374.376 0 .822-.041 1.057-.135.105-.047.117-.06.152-.171.059-.2.13-.711.13-.752 0-.047-.012-.088-.042-.088-.035 0-.047.023-.059.088-.017.106-.093.364-.216.493-.235.242-.582.294-1.022.294-1.256 0-2.119-1.028-2.119-2.15 0-1.04.37-1.963 1.879-1.963.733 0 1.42.247 1.42.934 0 .082.006.124.047.124.047 0 .059-.089.059-.37 0-.341.04-.623.04-.688 0-.035-.01-.065-.076-.065-.223 0-.751-.158-1.45-.158-1.866 0-2.447 1.292-2.447 2.233zm-3.1.587c0 .564 0 1.029-.03 1.275-.023.17-.053.3-.17.324a.908.908 0 01-.176.023c-.035 0-.047.018-.047.035 0 .035.03.047.094.047.176 0 .546-.017.564-.017.029 0 .398.017.721.017.065 0 .094-.017.094-.047 0-.017-.011-.035-.046-.035a2.48 2.48 0 01-.265-.023c-.176-.024-.21-.153-.229-.323-.03-.247-.03-.712-.03-1.276v-2.415c0-.059.013-.1.048-.111a.722.722 0 01.252-.036c.135 0 .493-.023.805.294.31.318.328.711.328.905 0 .54-.446.958-1.015.958-.124 0-.159.005-.159.053 0 .03.035.04.065.04.03.007.094.007.123.007.833 0 1.444-.564 1.444-1.399 0-.31-.164-.575-.293-.699-.094-.088-.358-.335-1.092-.335-.27 0-.61.018-.74.018-.047 0-.4-.018-.663-.018-.065 0-.094.012-.094.047 0 .023.023.035.047.035.053 0 .153.007.2.018.193.04.24.135.252.335.012.188.012.353.012 1.27v1.033zm-3.089-2.45c0-.041.012-.053.035-.053.118 0 .646.018.681.018.347 0 .488.117.523.194a.627.627 0 01.052.223c0 .041.013.064.042.064.03 0 .04-.029.047-.058.011-.07.024-.329.029-.388.018-.165.047-.235.047-.276 0-.03-.012-.065-.035-.065-.023 0-.047.024-.083.035a3.155 3.155 0 01-.258.024c-.094.006-.692.012-1.327.012-.029 0-.399-.018-.663-.018-.064 0-.093.012-.093.047 0 .023.023.035.046.035.053 0 .153.007.2.018.194.04.229.13.247.27.012.1.017.347.017 1.334v1.034c0 .717-.011 1.193-.04 1.346-.036.17-.065.223-.16.253a.617.617 0 01-.175.023c-.036 0-.048.018-.048.035 0 .035.03.047.094.047.13 0 .423-.017.575-.017.17 0 .564.035 1.45.035.23 0 .277 0 .317-.153.03-.123.077-.523.077-.57 0-.041 0-.088-.035-.088-.03 0-.042.024-.053.088-.041.241-.111.359-.264.423-.153.065-.411.065-.564.065-.575 0-.681-.094-.681-.482v-1.522c0-.023.012-.04.041-.04.1 0 .681.01.84.028.229.024.282.124.305.206a.605.605 0 01.023.194c0 .03.012.053.042.053.035 0 .04-.047.04-.112 0-.288.071-.681.071-.705 0-.035-.011-.047-.03-.047-.023 0-.046.03-.087.077-.053.058-.135.07-.276.082-.136.012-.857.012-.934.012-.029 0-.035-.018-.035-.06v-1.621zm-3.3-.035l.74.011c.564.012.699.148.722.324l.006.064c.006.082.018.1.047.1.023 0 .041-.023.041-.076 0-.065.017-.47.017-.647 0-.035 0-.07-.029-.07-.047 0-.205.059-.58.059h-2.202c-.07 0-.294-.012-.464-.03-.159-.011-.217-.07-.258-.07-.024 0-.047.076-.059.111a9.216 9.216 0 00-.129.611c0 .036.012.054.03.054.023 0 .04-.012.058-.06a1.02 1.02 0 01.1-.182c.094-.14.235-.182.599-.188l.868-.011v2.485c0 .564 0 1.029-.029 1.275-.023.17-.053.3-.17.324a.909.909 0 01-.176.023c-.036 0-.047.018-.047.035 0 .035.03.048.094.048.176 0 .546-.018.575-.018.03 0 .399.018.722.018.064 0 .094-.018.094-.048 0-.017-.012-.035-.047-.035-.053 0-.182-.011-.264-.023-.177-.024-.212-.153-.23-.323-.029-.247-.029-.712-.029-1.276v-2.485zm-6.852 1.898c0 1.357.857 2.374 2.648 2.374.375 0 .822-.041 1.056-.135.106-.047.117-.06.153-.171.059-.2.13-.711.13-.752 0-.047-.013-.088-.042-.088-.035 0-.047.023-.059.088-.017.106-.093.364-.217.493-.235.242-.581.294-1.021.294-1.257 0-2.12-1.028-2.12-2.15 0-1.04.37-1.963 1.88-1.963.733 0 1.42.247 1.42.934 0 .082.006.124.047.124.046 0 .058-.089.058-.37 0-.341.041-.623.041-.688 0-.035-.011-.065-.076-.065-.223 0-.751-.158-1.45-.158-1.867 0-2.448 1.292-2.448 2.233zm-4.76 2.256c-.03.194.064.218.14.094l.07-.094.488-.629a65.075 65.075 0 012.272-2.779c.052-.064.082-.03.082.04v1.7c0 .563 0 1.028-.03 1.275-.023.17-.052.3-.17.323a.911.911 0 01-.176.023c-.035 0-.047.018-.047.035 0 .035.03.047.094.047.176 0 .546-.017.575-.017.03 0 .4.017.722.017.065 0 .094-.017.094-.047 0-.017-.011-.035-.047-.035a2.58 2.58 0 01-.264-.023c-.176-.024-.211-.153-.229-.323-.029-.247-.029-.712-.029-1.276v-2.656c.03-.194-.065-.217-.14-.094a79.927 79.927 0 01-2.86 3.508c-.023.03-.053.024-.053-.023 0-1.94 0-2.85.012-3.038.012-.206.059-.306.218-.335.07-.011.105-.018.146-.018.024 0 .047-.012.047-.035 0-.035-.03-.047-.094-.047-.176 0-.546.018-.575.018-.03 0-.4-.018-.664-.018-.064 0-.093.012-.093.047 0 .023.023.035.047.035.052 0 .152.007.2.018.193.04.24.135.252.335.012.188 0 .353.012 1.27V68.8zm-2.091-2.703c0-.916 0-1.081.011-1.27.012-.205.06-.305.217-.334.071-.011.106-.018.147-.018.024 0 .047-.012.047-.035 0-.035-.03-.047-.094-.047-.176 0-.546.018-.575.018-.03 0-.399-.018-.663-.018-.065 0-.095.012-.095.047 0 .023.024.035.048.035.053 0 .152.007.2.018.193.04.24.135.252.335.011.188.011.417.011 1.334v.123c0 .03-.017.035-.035.035h-2.489c-.017 0-.035-.005-.035-.035v-.123c0-.917 0-1.146.012-1.334.011-.206.059-.306.217-.335.07-.011.106-.018.147-.018.023 0 .047-.012.047-.035 0-.035-.03-.047-.094-.047-.176 0-.546.018-.576.018-.029 0-.399-.018-.663-.018-.065 0-.094.012-.094.047 0 .023.024.035.047.035.053 0 .153.007.2.018.194.04.24.135.252.335.012.188.012.353.012 1.27v1.033c0 .564 0 1.029-.03 1.275-.023.17-.052.3-.17.324a.91.91 0 01-.175.023c-.036 0-.048.018-.048.035 0 .035.03.048.094.048.176 0 .546-.018.575-.018.03 0 .4.018.722.018.065 0 .095-.018.095-.048 0-.017-.012-.035-.047-.035-.053 0-.183-.011-.264-.023-.177-.024-.212-.153-.23-.323-.029-.247-.029-.712-.029-1.276v-.552c0-.03.018-.035.035-.035h2.49c.017 0 .034.012.034.035v.552c0 .564 0 1.029-.029 1.275-.023.17-.052.3-.17.324a.91.91 0 01-.176.023c-.035 0-.047.018-.047.035 0 .035.029.048.094.048.176 0 .546-.018.575-.018.03 0 .4.018.722.018.065 0 .094-.018.094-.048 0-.017-.012-.035-.047-.035-.053 0-.182-.011-.264-.023-.176-.024-.212-.153-.229-.323-.03-.247-.03-.712-.03-1.276v-1.034zM7.67 68.801c-.03.194.064.218.14.094l.07-.094.488-.629a64.981 64.981 0 012.272-2.779c.053-.064.082-.03.082.04v1.7c0 .563 0 1.028-.03 1.275-.023.17-.052.3-.17.323a.902.902 0 01-.176.023c-.035 0-.047.018-.047.035 0 .035.03.047.094.047.176 0 .546-.017.576-.017.029 0 .399.017.722.017.064 0 .094-.017.094-.047 0-.017-.012-.035-.047-.035-.053 0-.182-.011-.265-.023-.175-.024-.21-.153-.228-.323-.03-.247-.03-.712-.03-1.276v-2.656c.03-.194-.064-.217-.14-.094a79.943 79.943 0 01-2.86 3.508c-.023.03-.052.024-.052-.023 0-1.94 0-2.85.012-3.038.011-.206.058-.306.217-.335.07-.011.105-.018.147-.018.023 0 .046-.012.046-.035 0-.035-.03-.047-.093-.047-.177 0-.546.018-.576.018-.03 0-.4-.018-.663-.018-.065 0-.094.012-.094.047 0 .023.023.035.047.035.053 0 .152.007.2.018.193.04.24.135.252.335.012.188 0 .353.012 1.27V68.8zm-1.798-.723c.024.212.065.541.317.623.17.053.323.053.382.053.03 0 .047.006.047.03 0 .035-.053.052-.123.052h-.6c-.152 0-.299.006-.381 0-.135-.012-.182-.023-.182-.07 0-.023.041-.035.07-.042.03-.005.024-.128.013-.234l-.282-3.032h-.018l-1.438 3.055c-.124.259-.141.311-.194.311-.041 0-.07-.058-.182-.27a94.942 94.942 0 01-.687-1.363 96.452 96.452 0 01-.775-1.675h-.023l-.235 2.727c-.006.094-.006.2-.006.3 0 .088.065.164.153.181.1.024.188.03.223.03.023 0 .047.012.047.03 0 .04-.036.052-.106.052-.217 0-.498-.017-.546-.017-.053 0-.334.017-.493.017-.059 0-.1-.012-.1-.052 0-.018.03-.03.059-.03.047 0 .088 0 .176-.017.194-.036.212-.265.235-.488l.422-3.831c.012-.065.03-.106.065-.106s.06.023.088.088l1.797 3.696 1.725-3.69c.024-.053.047-.094.088-.094.042 0 .06.047.071.158l.393 3.608zm52.429-57.73a2.052 2.052 0 00-.271-.343l-.343.39c.102.118.17.23.27.365.087-.09.246-.291.344-.412zm-20.456-.042l-.346-.392a2.602 2.602 0 00-.268.345c.1.12.257.322.343.411.098-.133.168-.245.27-.364zm-8.69 2.104c.326-.04.73-.204.819-.542.087-.308-.374-.534-.82-1.192-.444-.655-.315-1.213.2-1.493.365-.199.961-.26 1.23-.367.264-.108.586-.381.87-.748.287-.367.504-.742.87-.885.426-.17.714.09 1.094.285.381.19.53.272.89.325.582.087.865.586.865.586s-.427-.426-1.125-.151c-.372.143-.23.1-.96.437-.729.334-1.653.334-2.223.425-.566.092-.941.138-1.333.457-.392.322-.16.913.056 1.172.211.26.267-.088.215-.455-.137-.95 1.06-.714 1.06-.714s-.247.23.065.779c.347.6.837 1.119 1.105 1.56.266.443.344.929-.196 1.301-.343.24-.865.582-.953.954-.118.521.391.672.391.672s-.401.07-.761-.13c-.604-.343-.313-.72-.126-.954.174-.215.333-.313.476-.498.142-.182-.087-.493-.087-.493s-.23.182-.498.243c-.267.06-.761-.028-1.013-.109-.665-.201-1.045.184-1.045.184s.015-.531.933-.649zm5.95-2.667c-.226.56-.34.815-.475 1.258-.137.476-.03.818.152 1.213.132.283.304.435.304.435s-.325-.088-.65-.368c-.559-.484-.867-.978-.67-1.866.117-.549.2-1.07.215-1.192.02-.124.022-.39.022-.39s.216-.16.491-.096c.452.107.826.49.611 1.006zm1.985 1.887c.002-.007.027-.212.263-.63-.084-.079-.221-.299-.311-.404-.118.245-.235.534-.235.534s-.049-.034-.106-.167c-.06-.133-.09-.225-.09-.225 0-.002.04-.073.203-.39a2.872 2.872 0 00-.158-.23s-.014-.037.05-.14a.573.573 0 01.18-.17s.06.08.145.187c.268-.37.37-.434.375-.445l.263-.04.257-.053s-.084.082-.208.216l.355.336c.02-.022.038-.046.055-.067-.042-.305-.06-.524-.06-.524l.068-.033.37-.182s0 .473.06.966c.063.55.115.866.115.866l-.314.163s-.071-.296-.168-.802c-.066.087-.192.258-.36.487.245.238.43.356.43.356l-.31.252c0-.003-.124-.096-.332-.266-.248.431-.315.86-.315.86s-.046-.146-.131-.297a10.98 10.98 0 00-.091-.158zm1.71-3.348c.17 0 .311.139.311.312a.315.315 0 01-.312.314.314.314 0 01-.312-.314.31.31 0 01.312-.312zm.716 1.117l.047.008s-.02.227-.063.542l.049.06.358-.336c-.126-.134-.208-.216-.208-.216l.256.054.263.039c.005.011.106.075.377.445l.143-.187s.115.067.176.17c.068.103.05.14.05.14-.031.048-.111.155-.153.23.16.317.2.388.201.39 0 0-.028.092-.09.225-.058.133-.104.167-.104.167s-.116-.289-.238-.534c-.088.105-.225.325-.31.405.236.417.26.622.262.629l-.09.158c-.084.151-.132.297-.132.297s-.067-.429-.315-.86c-.205.17-.331.263-.331.266l-.31-.252s.184-.118.43-.356l-.355-.484c-.091.498-.163.79-.163.79l-.27-.174s.013-.258.08-.807c.056-.494.077-.966.077-.966l.363.157zm-.46 2.798s.172-.364.375-.454c.2-.09.493 0 .493 0s-.184.328-.357.415c-.168.09-.51.04-.51.04zm-.42-.627c-.027-.258.17-.558.17-.558s.178.236.186.524a1.02 1.02 0 01-.167.544s-.153-.253-.188-.51zm.026.686s-.462-.008-.632-.098c-.168-.087-.286-.33-.286-.33s.24-.113.445-.024c.202.088.473.452.473.452zm1.556.549v.12s-.518-.154-1.394-.128c-.881.023-1.353.134-1.353.134s0-.046-.018-.151l-.015-.112s.676-.276 1.418-.26c.74.016 1.37.233 1.37.233s-.008.116-.008.164zm4.394-1.328c.682-.59.887-1.04.887-1.04l.913-.041s-.434.758-1.365 1.363c-1.008.66-2.403.976-2.403.976s1.125-.521 1.968-1.258zm.203-3.633l-.16-.16-.229-.428.006-.015-.248-.469s.098.105.27.296c.087-.154.252-.423.438-.692-.173-.186-.284-.305-.417-.462-.248.402-.37.711-.37.711l-.132-.434s.08-.213.252-.569a1.658 1.658 0 01-.147-.206l.141-.385s.056.101.203.289c.049-.07.085-.107.148-.182.105-.13.198-.236.28-.328-.137-.168-.129-.199-.129-.199l.318-.14s.02.008.07.078c.147-.148.201-.152.201-.152l.391-.105.292-.068s-.261.222-.638.617c.107.129.242.284.38.428.04.042.026.014.058.048.177-.18.333-.39.333-.39l.05.516s-.029.073-.094.139a.67.67 0 01.138.158l.096.496s-.217-.188-.474-.423a9.889 9.889 0 00-.456.526c-.016.02-.01 0-.025.02.193.195.38.387.478.48.347-.46.501-.578.501-.578l.095.416s-.293.32-.642.856c-.312.485-.657 1.357-.657 1.357l-.174-.549s.04-.094.11-.238a8.852 8.852 0 01-.257-.26zm1.676-3.755l.374-.229s.078.83.175 1.65c.106.913.174 1.397.174 1.397l-.308.16s-.132-.537-.294-1.447a17.59 17.59 0 01-.202-1.517l.081-.014zm1.088-1.772c.335 0 .604.276.604.61a.606.606 0 01-.604.611.61.61 0 110-1.221zm.868 1.527l.373.226.081.016s-.06.693-.202 1.515c-.165.912-.296 1.45-.296 1.45l-.308-.162s.07-.482.175-1.395c.095-.821.177-1.65.177-1.65zm.558 1.875s.04-.073.138-.158c-.069-.067-.095-.14-.095-.14l.052-.513s.152.207.328.387c.035-.034.022-.006.06-.045.14-.146.27-.3.38-.432a9.13 9.13 0 00-.638-.616l.292.067.389.107s.058.003.206.151c.049-.07.07-.078.07-.078l.314.142s.01.03-.127.197c.079.092.174.2.282.33.06.076.093.11.147.18.145-.187.204-.29.204-.29l.14.387s-.04.068-.148.206c.172.355.252.568.252.568l-.135.434s-.12-.308-.372-.712c-.129.157-.24.278-.413.464.188.27.35.538.44.69.169-.189.268-.294.268-.294l-.25.47a.169.169 0 01.008.012l-.23.429s-.103.106-.16.162c-.057.06-.16.161-.258.258.072.146.11.238.11.238l-.171.55s-.346-.872-.66-1.358a7.057 7.057 0 00-.642-.856l.095-.416s.153.119.501.578c.101-.092.287-.285.48-.481-.014-.02-.011 0-.023-.02a8.57 8.57 0 00-.458-.524c-.256.236-.474.42-.474.42l.098-.494zm1.588 5.758c.845.736 1.971 1.255 1.971 1.255s-1.396-.316-2.405-.975c-.932-.606-1.364-1.364-1.364-1.364l.91.043s.206.447.888 1.041zm-2.62-2.689s.353-.56.686-.709c.337-.148.846-.176.846-.176s-.307.542-.589.687c-.28.15-.943.198-.943.198zm-2.304-.787s.628-.048.962.098c.336.148.633.67.633.67s-.722.048-1.005-.099c-.282-.147-.59-.67-.59-.67zm1.956-3.187a.476.476 0 01-.48-.479c0-.265.21-.477.48-.477a.478.478 0 010 .957zm.017 1.946s.296.388.309.87c.014.481-.283.899-.283.899s-.255-.418-.31-.845c-.051-.428.284-.924.284-.924zm.201-.511a.221.221 0 11-.218-.223c.12 0 .218.1.218.223zm-.218-.531a.327.327 0 01-.328-.325.324.324 0 11.648 0 .324.324 0 01-.32.325zm.043 4.006c-1.459.04-2.29.228-2.29.228s.014-.147.014-.256c0-.105-.028-.188-.028-.188s1.127-.455 2.357-.429c1.234.027 2.28.39 2.28.39s-.013.187-.013.269v.199s-.859-.255-2.32-.213zm-.078 1.283c-.508.01-.886-.162-.886-.162l.358-.46s.235.281.543.281c.294 0 .491-.305.491-.305l.352.466s-.335.168-.858.18zm7.36-.32c-.119.244-.234.531-.234.531s-.049-.032-.109-.166a3.21 3.21 0 01-.09-.225c.002-.002.043-.072.206-.39a3.614 3.614 0 00-.158-.229s-.015-.036.05-.14a.574.574 0 01.177-.17s.063.078.144.186c.271-.369.372-.435.38-.443l.26-.04.257-.057-.207.217.355.338.05-.062c-.044-.315-.062-.54-.062-.54l.044-.01.363-.156s.022.471.08.964c.065.55.078.81.078.81l-.267.173s-.073-.29-.162-.79c-.066.09-.192.258-.356.484.243.238.428.357.428.357l-.31.252c0-.003-.122-.095-.335-.268-.246.432-.312.86-.312.862 0 0-.046-.146-.131-.299-.07-.123-.093-.158-.093-.158.004-.005.028-.209.266-.627-.087-.082-.224-.3-.312-.404zm1.781-2.316c.171 0 .314.14.314.315a.311.311 0 01-.623 0c0-.175.138-.315.31-.315zm.66 1.102l.074.035s-.019.217-.06.524c.015.02.032.044.054.067l.357-.338c-.13-.133-.207-.217-.207-.217l.253.056.264.04c.008.01.108.075.378.444.081-.108.143-.187.143-.187s.113.066.178.171c.064.104.047.14.047.14-.032.046-.112.156-.153.228.16.319.2.389.202.391 0 0-.03.09-.088.225-.06.134-.106.166-.106.166s-.118-.287-.236-.53c-.093.103-.229.321-.31.403.232.418.259.622.262.627 0 0-.024.035-.093.158a1.885 1.885 0 00-.133.299c0-.002-.065-.43-.312-.862-.207.173-.333.265-.334.268l-.31-.25s.185-.121.431-.36c-.166-.23-.295-.399-.36-.487-.093.506-.164.803-.164.803l-.32-.163s.053-.316.12-.867a9.9 9.9 0 00.057-.965l.367.18zm-.05 2.419c.206-.087.447.025.447.025s-.12.242-.29.33c-.17.09-.628.099-.628.099s.271-.364.472-.454zm-.635.276s-.176-.251-.17-.542c.008-.289.187-.524.187-.524s.201.3.169.557a1.484 1.484 0 01-.186.509zm-1.096-.335s.291-.09.493 0c.2.09.374.454.374.454s-.345.05-.514-.04c-.168-.086-.353-.414-.353-.414zm2.466 1.037c-.014.103-.014.15-.014.15s-.476-.111-1.356-.135c-.879-.024-1.392.129-1.392.129v-.122c0-.045-.009-.16-.009-.16s.63-.217 1.37-.235a3.968 3.968 0 011.418.262s-.006.046-.017.11zm2.348-3.036c-.21-.52.162-.9.617-1.007.27-.066.49.097.49.097s.002.267.02.388c.016.123.096.644.215 1.193.196.89-.11 1.381-.67 1.866-.325.28-.65.367-.65.367s.174-.152.303-.434c.184-.395.294-.739.15-1.213-.134-.443-.246-.698-.475-1.257zm.803-1.95c.358-.054.505-.135.886-.326.385-.196.669-.457 1.094-.287.367.144.588.52.872.885.284.367.604.64.873.75.264.106.865.168 1.226.367.515.277.645.837.201 1.493-.446.658-.905.882-.822 1.19.09.34.492.503.822.544.917.117.934.647.934.647s-.384-.384-1.047-.182c-.253.078-.746.168-1.013.109-.266-.062-.496-.244-.496-.244s-.229.311-.09.493c.145.185.305.282.477.499.189.233.478.612-.13.952-.359.2-.757.133-.757.133s.512-.155.39-.673c-.087-.373-.609-.715-.953-.956-.539-.372-.46-.857-.194-1.298.267-.444.758-.962 1.103-1.562.313-.549.064-.781.064-.781s1.2-.233 1.062.717c-.053.364.004.714.218.454.212-.26.444-.85.055-1.171-.392-.32-.769-.367-1.337-.457-.567-.092-1.496-.092-2.222-.426-.727-.339-.586-.294-.957-.437-.701-.274-1.128.15-1.128.15s.283-.497.87-.584zM28.456 13.3c.396-.146.624-.098 1.02 0 .394.095.904-.05.904-.05s-.48.268-.621.707c-.143.435.044 1.105.649 1.204.614.104.82.038 1.106.089.285.047.65.064.65.064s-.257-.291-.457-.46c-.194-.173-.513-.321-.407-.624.084-.244.622-.635 1.033-1.003.456-.412.397-1.057.08-1.48-.35-.473-.602-.838-.957-1.31-.385-.513.023-1.072.023-1.072s.652-.071 1.19-.166c.537-.098.822-.268.822-.268s-.028.559-.114 1.069c-.065.386-.366 1.286.142 2.062.409.627 1.662 1.036 2.064 1.116.481.1.863.133 1.357.171l.077.005c.42.03.912.05 2.242.033 1.345-.02 2.396-.11 3.183-.215.788-.107 1.32-.233 1.627-.323 1.528-.452 2.384-1.523 2.384-1.523s.56.245 1.185.241c.506-.004 1.118-.234 1.118-.234s.99 1.02 1.849 1.342c.736.278 1.505.45 2.345.553l.097.023c.79.106 1.777.186 3.127.206 1.327.017 1.82-.003 2.24-.034l.077-.004a10.28 10.28 0 001.357-.172c.398-.082 1.653-.488 2.065-1.115.508-.776.205-1.675.141-2.063A10.002 10.002 0 0161.942 9s.28.17.818.267c.537.095 1.189.17 1.189.17s.41.555.028 1.068c-.357.474-.609.84-.96 1.311-.318.423-.377 1.069.082 1.482.412.367.95.76 1.03 1 .108.304-.208.454-.408.623-.199.171-.45.464-.45.464s.363-.02.647-.066c.28-.052.491.016 1.103-.085.607-.104.794-.773.653-1.209-.141-.436-.624-.705-.624-.705s.51.147.907.05c.397-.097.621-.147 1.017 0 .397.147.424.376.424.376s.225-.448.14-.91c-.084-.463-.67-.717-1.292-.765-.622-.048-.28-.46-.025-.703.253-.244.917-.737.753-1.542-.158-.783-.89-1.03-1.823-1.27-.932-.241-1.034-1.048-1.514-1.432-.846-.67-1.584-.16-1.869.056-.283.221-.734.2-1.046.297-.31.097-.596.297-.93.89-.495.872.198 1.8.538 2.722.336.92-.093 1.635-1.197 1.867-.412.087-.808.097-.846.087.017-.087.034-.188.054-.284.026-.125.145-.54.365-.953.222-.411.453-1.199.453-1.199.043-.556-.334-.942-.532-1.043-.198-.1-.49-.18-.912-.308-.325-.096-.492-.227-.554-.283a.607.607 0 00-.03-.642h.105l.006-.056-.397-.619.63.137-.01-.699-.658.147.156-.689-.726-.02.177.752-.641-.194-.01.684.59-.177-.342.674.002.052h.118l-.023.042a.612.612 0 00-.086.308.58.58 0 00.077.291c-.063.056-.233.188-.564.286-.417.129-.712.207-.91.311-.195.1-.574.485-.531 1.04.051.557.23.79.452 1.201.226.412.343.83.366.953l.04.224a4.75 4.75 0 01-.348-.023c-.36-.045-.986-.126-1.515-.355l-.02-.015c-1.149-.512-2.101-1.397-2.451-1.946-.382-.608-.343-.923-.304-1.177.03-.252.16-.616.16-.616.096-.306.261-.65.494-1.084.362-.662.622-1.093.622-1.782 0-.9-.33-1.34-.782-1.643-.297-.2-.714-.262-1.39-.467-.528-.16-.911-.42-1.008-.506.077-.14.148-.258.148-.426a.96.96 0 00-.137-.494.917.917 0 00-.04-.07h.108l.006-.085-.603-.83.886.117-.035-.905-.81.19L48.2 0h-1.117l.217.84-.884-.176v.973l.926-.177-.667.836.005.09h.084a.968.968 0 00-.166.553.94.94 0 00.147.546c-.104.09-.385.266-.967.422-.681.182-1.08.22-1.47.452-.427.258-.746.81-.706 1.707.037.768.543 1.478.879 2.159.345.686.366 1.011.401 1.21.028.158.021.405 0 .573-.04.287-.074.4-.298.716-.463.647-1.12 1.144-2.247 1.709-.648.326-1.278.456-1.513.455-.041 0-.301.023-.349.02.022-.106.028-.15.042-.223.025-.124.143-.538.368-.951.22-.412.401-.645.45-1.2.044-.556-.334-.942-.532-1.043-.196-.104-.493-.182-.912-.308-.33-.101-.499-.234-.559-.289a.596.596 0 00.074-.291.62.62 0 00-.106-.347h.112l.006-.054-.342-.675.59.18-.013-.684-.639.19.18-.75-.728.02.157.688-.656-.144-.013.7.63-.14-.396.62.005.054h.105a.584.584 0 00-.026.645 1.55 1.55 0 01-.556.283c-.418.126-.716.204-.912.305-.201.102-.576.487-.532 1.045.048.556.227.787.45 1.197.223.415.342.828.368.953.016.1.039.199.051.284-.035.008-.43 0-.843-.085-1.103-.234-1.537-.946-1.198-1.867.341-.922 1.03-1.85.539-2.72-.337-.597-.62-.796-.933-.891-.308-.099-.759-.079-1.042-.297-.286-.219-1.023-.729-1.868-.056-.482.38-.583 1.19-1.517 1.431-.932.241-1.662.485-1.823 1.27-.162.803.502 1.296.754 1.54.255.244.599.655-.025.703-.621.05-1.21.305-1.293.768-.085.46.143.907.143.907s.026-.23.42-.375zm27.299-2.905l-.346-.39c-.12.128-.216.247-.27.342.098.12.259.322.341.412.1-.134.171-.247.275-.364zM45.644 7.118a9.591 9.591 0 01-.487-.468 6.78 6.78 0 00-.429.717c.056.06.161.169.203.21.097.088.193.174.277.253.117-.216.262-.468.436-.712zm-5.253 3.14a2.277 2.277 0 00-.27-.344l-.343.392c.101.12.171.231.27.364.086-.09.248-.29.343-.411zm4.762-4.248c.114-.15.262-.315.405-.466-.09-.09-.137-.122-.24-.224-.08-.09-.153-.165-.213-.235-.077.085-.153.17-.228.261-.086.103-.142.164-.212.26.14.164.248.285.427.471.026-.034.032-.032.06-.067zm4.98.048c.178-.19.287-.31.423-.473-.068-.097-.124-.159-.21-.26-.08-.09-.15-.176-.225-.262l-.217.236c-.103.102-.148.136-.24.224.142.15.292.317.407.466.026.034.033.033.061.07zm-.552 1.036c.17.246.318.5.432.715l.279-.254a9.09 9.09 0 00.203-.21c-.1-.188-.25-.454-.427-.717-.19.19-.383.381-.487.466zm10.357 10.667c.358.098.394.23.394.23s.015-.085-.083-.442c-.098-.36-.46-.654-.46-.654s.018.163.018.294c0 .128-.01.22-.01.22s-.15-.038-.396-.021c-.243.017-.396.106-.396.106l.098.2s.475-.03.835.067zm-24.305-.352s-.01-.092-.01-.22c0-.131.016-.294.016-.294s-.361.294-.458.654c-.096.357-.08.441-.08.441s.03-.131.394-.23c.358-.096.83-.067.83-.067l.1-.199s-.152-.09-.396-.106a1.381 1.381 0 00-.396.021zM61.51 28.77l1.194.093.255-.347-.3-.269-1.176.154.027.369zm10.306-.47c-2.02.275-3.153.17-3.613.065.074-.058.257-.196.269-.248 0 0-.174-.32-.47-.531-.572-.406-.96-.457-.96-.457.602.023 1.517.079 2.54.026.662-.037 1.28-.05 2.193-.346.399.02 1.133-.019 1.801.112.505.1.81.246.975.297-.35.273-1.16.867-2.736 1.081zm1.155 1.545c.613.324 1.025.576 1.085.654-.37.278-1.002.64-3.392.527-1.22-.053-2.029-.167-2.773-.428 0 0 .49-.216.59-.383-.027-.055-.11-.295-.479-.643-.309-.288-.76-.442-1.021-.506.12-.036.36-.183.36-.183.215.073.685.21 1.51.356a10.61 10.61 0 002.504.148c.42.038 1.216.241 1.616.458zm-.358 3.01c.528.48.749.874.764.975-.856.217-1.727.376-3.954-.52-2.411-.973-3.291-1.883-3.706-2.046.12-.016.524-.062 1.154-.27.135.094.437.256 1.108.506.81.296 1.92.627 3.637.677.19.07.702.41.997.678zm-1.091 3.673s-.778.056-2.322-.626c-1.427-.632-3.218-2.27-3.674-2.688.339-.003 1.083.011 1.428-.134.143.106.181.086.303.175.688.479 2.176 1.34 3.421 1.613.766.94.844 1.66.844 1.66zm-2.264 2.059s-.903-.118-2.005-.898c-1.232-.873-2.206-2.31-2.512-2.703.137-.004.23-.038.23-.038s.05-.476-.019-.979c-.056-.377-.158-.674-.2-.803.097.011.196.024.287.031.203.269.64.813.755.962.538.697 1.859 2.198 3.183 2.795 0 0 .148.333.249.95.06.386.032.683.032.683zm-2.662 1.33s-.887-.002-1.86-.946a7.707 7.707 0 01-1.782-2.615c.047-.174.147-.527.175-.776.039-.359.02-.66.007-.803.384.156.77.212 1.086.224.397.828 1.118 2.2 2.19 3.163.02.084.153.698.186 1.013.036.368-.002.74-.002.74zm-3.186.785s-.907-.297-1.734-1.37c-.535-.697-.913-1.429-1.305-2.586.036-.061.221-.347.253-.417a4.66 4.66 0 00.248-.672c.446.442.993.664 1.402.772.295.847.697 1.872 1.377 2.748.011 1.308-.241 1.525-.241 1.525zm-3.354.005s-.655-.111-1.089-1.196c-.287-.701-.432-1.364-.508-2.507.126-.224.322-.687.343-.742.347.413.773.664 1.044.79.183.779.302 1.21.586 1.877-.042 1.074-.376 1.779-.376 1.779zm-1.896-4.214c-.221.345-.384.466-.384.466s-.62-.445-1.007-1.291a3.85 3.85 0 01-.355-1.639l.664-.52s.224.17.582.397c.353.227.54.31.542.31-.03.32.036.701.127 1.102.05.211.157.454.174.493a3.696 3.696 0 01-.343.682zm-1.258 8.611c.17-.06.078-.362.078-.362s.256.166.301.06c.042-.102-.21-.301-.287-.453-.074-.151-.152-.347-.044-.392.107-.045.273.378.433.575.168.196.217.376.107.677-.107.303-.841.107-1.19.362-.345.257-.573.454-.964.274-.392-.182-.15-.663-.15-.663l.44-.107s.252.303.482.27c.226-.03.373-.39.483-.39.104 0 .147.208.311.15zm-.016 1.148c-.237.33-.54.179-.875.271-.328.09-.632.377-1.008.33-.375-.044-.345-.314-.103-.617.239-.302.544.016.71.046.163.028.498-.121.616-.166.12-.044.105.12.196.088.088-.03.013-.193.059-.255.048-.062.12.09.228.046.106-.043.03-.18.12-.197.091-.014.301.123.057.454zm-1.37 1.204c-.072.11-.24.153-.313.035-.076-.123.028-.212.298-.349.272-.134.424-.15.377.12-.048.274-.285.09-.361.194zm-1.204.395c-.303 0-.467-.104-.467-.409 0-.3.27-.272.541-.224.272.045.287-.134.35.224.059.367-.125.41-.424.41zm-.682-.965c.034-.273.139-.273.227-.182.092.09.139.212-.03.332-.166.12-.224.12-.197-.15zm1.012-.787c-.211.276-.256.075-.33-.224-.073-.304.272-.06.272-.06s.272.013.058.284zm.723-1.297a.22.22 0 01-.226.152c-.074-.013-.059-.166.018-.347.074-.18.119-.017.119-.017s.123.11.09.212zm-2.035 2.074a8.176 8.176 0 01-.557.28l-.315.126c-.767.3-.85 1.162-1 2.236-.15 1.074-.379.9-.75.9-.078 0-.29-.01-.66-.01l-.825-.816c.178-.045.287-.108.38-.175.326-.24.082-.54.082-.54s.632-.092 1.134-.398c.505-.309.21-.645.21-.645s.694-.228 1.124-.517c.543-.364.148-.757.148-.757s.567-.076.879-.412c.607-.642-.11-.752-.11-.752s.509-.171.815-.455c.497-.463-.036-.645-.036-.645s.89-.608.89-1.148c0-.412-.544-.364-.916-.236-.453.157-1.2.524-2.233 1.25-.881.619-2.697 2.182-4.158 3.627l-1.48-1.51-2.042-2.182-.204-.078-1.293-1.563-1.496 1.68 1.637 1.188.045.149 2.345 1.822 1.563 1.448a30.963 30.963 0 01-1.675 1.677l-.17-.001c-.369 0-.595.173-.746-.901-.153-1.074-.227-1.944-1-2.236a6.938 6.938 0 01-.87-.406c.084-.406-.172-.678-.319-.641-.057.014-.246.036-.382.246-.059-.036-.037-.015-.096-.056.004-.011.088-.19.096-.201.14-.258.143-.76-.198-.84-.258-.061-.37.073-.37.073s-.047.08-.098-.061a.58.58 0 01-.036-.335c.013-.139-.014-.353-.124-.7-.118-.35-.433-.384-.617-.223-.171.147-.041.337-.221.506-.006.005-.054.005-.06.01-.182-.27-.278-.404-.427-.743-1.043-2.336-.367-5.388-.044-6.659.326-1.27 1.356-3.52 1.865-4.64.241-.527.504-1.101.689-2l1.773-.471c-.123.938-.391 2.03-.637 2.852-.37 1.252-1.051 3.196-1.292 4.196-.238.997-.457 3.258.489 4.617a5.973 5.973 0 002.784 2.158V30.482l.45-.356v13.987c.312.087.594.16.87.219v-13.85l.453-.356v14.281c.274.038.562.062.867.073V30.482l.45-.356V44.48c.31-.011.593-.035.87-.073V30.482l.45-.356v14.206c.279-.06.56-.132.866-.219V30.482l.455-.356v13.836a5.946 5.946 0 002.783-2.157c.946-1.359.726-3.62.488-4.617-.239-1-.92-2.944-1.291-4.196-.211-.72-.44-1.404-.576-2.398l1.653-.41c.02.134.045.262.07.387l-.005.04a7.78 7.78 0 00.562 1.72c.04.097.083.193.122.28.51 1.12 1.534 3.37 1.868 4.64.322 1.27.997 4.323-.047 6.66a4.887 4.887 0 01-.139.294c-.084.155-.164.272-.281.449-.006-.006-.055-.006-.06-.011-.18-.169-.05-.359-.224-.506-.185-.161-.497-.126-.614.223-.114.347-.138.561-.123.7.012.144.01.19-.04.335-.05.141-.096.061-.096.061s-.112-.134-.368-.073c-.342.08-.339.582-.2.84.007.01.09.19.096.201-.059.04-.039.02-.097.056-.134-.21-.323-.232-.382-.246-.15-.037-.4.235-.321.641zm-1.018 4.638c.163.126.363.294.587.508.377.314 1.334 1.052 1.982 1.188.846.175 1.517-.063 1.727-.407.156-.251.123-.508.123-.508s.161.113.221.298c.125.366-.158.753-.49.925-.41.209-.941.26-1.432.173-.493 0-.093.194.193.386.746.507 1.689.661 1.745 1.381.034.514-.014.533-.118 1.097-.08.443-.193.197-.193.197s-.026-.253-.147-.432c-.29-.442-.706-.521-.977-.977-.245-.414-.674-1.145-.871-.924-.151.05 1.085 1.827.197 3.006-.99 1.316-1.795.336-2.324.361-.277.011-.747.297-.747.297s.13-.703.309-.871c.18-.168.417-.202.838-.264.406-.058 1.19-.142 1.254-1.215.024-.4-.308-.936-.426-1.11l.219-.266-3.353-3.395c.087 0 .085.022.161.022.25.026.993.13 1.522.53zm-.818 6.101c-.424 1.258-1.737 1.292-2.09 1.28-.019 0 .941-.366 1.225-1.352.242-.85.26-1.6-.396-3.026-.554-1.213-1.286-2.986-1.477-3.53.087 0 .08-.003.173-.003l.076.068c.145.26.565 1.003 1.068 2.003.623 1.252.927 1.728 1.187 2.31.424.955.427 1.68.234 2.25zm-3.396-6.63c.119 0 .148.027.225.027.003.005 0-.025 0-.025s1.238 3.166 1.486 3.792c.252.629.51 1.382.502 1.85-.016 1.393-1.244 2-1.244 2s.414-.829.408-1.96c-.007-1.205-1.183-4.95-1.377-5.685zm-.353 8.384l-.03-1.58c-.01-.644-.048-2.272-.047-2.692 0 0 .78.583.73 2.233-.036 1.155-.397 1.631-.653 2.04zm-.04.95l-.171-.173s-.27-.326-.408-.505c-.247-.321-.309-.556-.309-.556l.286-.11s.131.313.34.633c.066.103.207.288.269.332l-.008.379zm-1.121-1.71c-.146-.07-.192-1.63-.135-2.302.086-1.049.359-2.233.665-3.678.113-.555.208-1.143.297-1.617.098 0 .082-.028.173-.028.021.977.042 2.414.025 3.584-.029.016-.36.7-.434.913-.072.215-.299.885-.331 1.735a4.388 4.388 0 00.123 1.307s-.236.16-.383.087zm-.308-4.064c-.115.48-.265 1.244-.305 2.098-.047.967.109 1.625.109 1.625s-.92-.473-.947-1.563c-.014-.65.253-1.394.502-2.02a308.03 308.03 0 001.345-3.647l.134-.026c-.158.823-.745 3.155-.838 3.533zm-2.04 4.348c-.6-.174-.993-.7-.993-.7s.244-.078.519-.064c.278.016.576.181.576.181s.01-.095-.034-.39c-.03-.22-.06-.434-.36-.807-.403-.5-.909-.43-1.035-.538-.023-.021-.08-.147-.109-.366a.601.601 0 01.147-.496c.101-.113.48-.228.73-.507.244-.274.432-.577.432-.577h-.275s.631-.797 1.418-1.654a6.212 6.212 0 001.197-1.988c.11 0 .044-.003.152-.003-.068.247-.22.77-.395 1.15-.232.509-.656 1.155-1.056 1.943-.493.964-.875 1.772-.837 2.502.095 1.654 2.016 2.3 2.016 2.3-.01-.003-.988.332-2.093.014zm-.944-4.387s-.385-.03-.482-.512l3.124-2.977s.034-.003.089-.011a2.53 2.53 0 01-.217.455c-.494.846-1 1.29-1.391 1.71-.396.424-1.123 1.335-1.123 1.335zm-1.047.752c-.189-.027-.365-.139-.494-.223l.494-.505c.085.07.204.144.377.214.37.149.794.097.794.097s-.26.55-1.17.417zm.098 1.234s-.34.027-.553-.188c-.338-.336-.22-.896-.22-.896s.173.139.486.18c.133.015.386.015.386.015s-.11.201-.123.407c-.017.206.024.482.024.482zm5.47-6.538a.283.283 0 01-.043.078c-.207.248-2.145.63-2.145.63l-3.807 3.64s.048-.43.648-1.08c1.019-1.1 2.978-2.834 4.339-4.2l1.008.931zm4.862 6.264c.32-.404.196-.667.196-.667s.184.057.512.02c.136-.016.317-.104.317-.104s.136.347-.089.679c-.23.349-.476.296-.896.383-.316.067-.411-.024-.411-.024s.207-.08.37-.287zm-.73-1.58s-.394-.394-.927-1.144c-.322-.446-.586-.79-.92-1.322l2.307 2.272c-.22.196-.46.194-.46.194zm.718.064l.384.371c-.02.01-.025.013-.024.016h-.004c-.837.134-.837-.14-.837-.14s.182-.023.481-.247zm.602-10.201c.37 0 .421.095.102.353-.323.257-1.79.665-1.79.665s.605.059.951.088c.358.031.459.11.246.356-.246.283-1.921.507-1.921.507s.56.084.891.202c.154.059.329.17-.043.428-.373.257-1.577.541-1.577.541s.756.273.296.544c-.463.271-1.542.483-1.542.483s.654.22.517.435c-.048.073-.258.127-.494.197l-1.162-1.194c2.162-2.073 3.944-3.653 5.288-4.345 1.355-.697 1.492-.56.94-.032-.552.53-1.551.766-1.551.766s.513.006.85.006zm-7.382 2.18l7.57 7.755-.157.16-7.808-7.484.395-.432zm-.357-.309l.096.085-.439.556-.144-.09.487-.55zm-1.494-1.507l1.199 1.26-.41.456-1.33-1.1.54-.616zm-.361-.54l.193.057-.862.987-.076-.137.745-.908zm-.833.428l-.163.185-1.167-.796.152-.172.065-.108 1.113.89zm-.814-1.22l.481-.5.846 1.185-.204.227-1.123-.912zm.7 14.483a2.11 2.11 0 01-1.663.34c-.699-.147-.937-.53-1.092-.917-.203-.512-.107-1.398-.094-1.76.004-.097.29-1.138.337-1.358.031-.165.084-.322-.064-.288-.265.056.028.266-.751.703-.585.322-.906.971-.825 1.71.081.735.037.884.037.884a3.18 3.18 0 00-.16-.517c-.063-.161-.15-.321-.299-.901-.144-.583.165-.958.47-1.395.306-.437.753-.79.753-.79s-.356-.074-.59-.21c-.264-.151-.458-.375-.458-.74 0-.313.29-.574.29-.574s-.05.367.153.66c.144.208.633.423 1.097.409.468-.019 1.313-.54 1.651-.965.344-.42.8-.76 1.15-.975.474-.289.676-.32 1.06-.394.195.013.272.003.43.024-.814.405-2.156 1.545-2.995 3.062-.585 1.048-.613 1.951-.396 2.47.225.555.622.816 1.017.86.434.048.754-.03 1.087-.103a.913.913 0 01.789.19c.24.21.232.35.232.35s-.63-.155-1.166.225zm-1.174-10.98c-.168-.12-.12-.241-.031-.332.09-.091.197-.091.227.182.03.27-.03.27-.196.15zm-.483.815c-.298 0-.484-.042-.421-.409.062-.358.074-.18.347-.224.268-.047.541-.076.541.224 0 .305-.165.41-.467.41zm-.273-2.036s.346-.244.273.06c-.074.3-.117.5-.331.224-.213-.27.058-.284.058-.284zm-.42 1.039c-.376.046-.68-.241-1.007-.33-.334-.093-.634.058-.874-.273-.24-.33-.035-.467.059-.453.088.017.014.154.117.197.11.045.182-.108.228-.046.048.062-.03.224.059.255.09.032.077-.132.197-.088.122.045.452.194.62.166.163-.03.467-.348.705-.046.242.303.271.573-.104.618zm-.512.602c-.075-.105-.316.08-.362-.193-.045-.27.105-.255.378-.12.27.136.376.225.298.348-.072.118-.24.074-.314-.035zm.151-2.654c-.032-.102.092-.212.092-.212s.043-.163.118.017c.076.18.09.334.017.347-.075.013-.199-.044-.227-.152zm-2.125.407c-.106-.3-.06-.481.105-.677.165-.197.33-.62.437-.575.106.045.028.241-.045.392-.076.152-.33.35-.285.453.042.106.3-.06.3-.06s-.09.302.075.362c.165.06.21-.15.316-.15.106 0 .253.362.484.391.225.032.48-.27.48-.27l.437.107s.241.481-.15.663c-.392.18-.619-.017-.963-.274-.346-.255-1.086-.059-1.19-.362zm-.285-8.25s-.164-.121-.385-.466c-.16-.25-.294-.54-.338-.682.015-.04.12-.282.17-.493.09-.4.157-.782.128-1.102.004 0 .191-.083.543-.31.358-.227.58-.396.58-.396l.666.52c.003.226-.017.904-.355 1.638a3.515 3.515 0 01-1.009 1.291zm-1.188 2.553c-.438 1.084-1.09 1.195-1.09 1.195s-.335-.704-.379-1.778c.284-.667.404-1.098.588-1.877a3.098 3.098 0 001.044-.79c.02.055.215.518.34.742-.072 1.143-.217 1.806-.503 2.508zm-2.714-.18c-.824 1.073-1.729 1.37-1.729 1.37s-.255-.217-.244-1.525c.682-.876 1.08-1.901 1.377-2.748.411-.108.954-.33 1.403-.772.035.123.107.365.248.672.033.07.218.356.252.417-.392 1.157-.77 1.889-1.307 2.586zm-3.058-.361c-.971.944-1.86.947-1.86.947s-.037-.373-.001-.741c.034-.316.166-.929.187-1.013 1.075-.962 1.791-2.335 2.19-3.163.315-.012.7-.068 1.086-.224-.014.143-.033.444.007.803.027.25.125.602.176.776a7.78 7.78 0 01-1.785 2.615zm-2.513-1.282c-1.103.78-2.01.898-2.01.898s-.026-.297.036-.684c.1-.616.247-.95.247-.95 1.324-.596 2.645-2.097 3.182-2.794.115-.15.555-.693.756-.962.093-.007.19-.02.29-.03-.044.128-.148.425-.2.802-.073.503-.023.98-.023.98s.095.033.232.037c-.308.393-1.279 1.83-2.51 2.703zm-4.272-1.16s.081-.72.844-1.66c1.245-.274 2.731-1.135 3.42-1.614.124-.089.162-.07.303-.175.347.145 1.09.131 1.429.134-.456.419-2.25 2.056-3.675 2.688-1.54.682-2.321.626-2.321.626zM22 33.828c.018-.1.238-.495.767-.975.294-.268.806-.608.997-.678 1.716-.05 2.826-.38 3.637-.677.67-.25.974-.412 1.106-.506.632.209 1.038.254 1.157.27-.416.163-1.297 1.073-3.708 2.047-2.23.895-3.095.736-3.956.52zm-.677-3.33c.064-.079.471-.331 1.086-.655.401-.217 1.195-.42 1.614-.458a10.64 10.64 0 002.505-.148c.826-.146 1.293-.283 1.511-.356 0 0 .24.147.361.183-.263.064-.71.218-1.024.506-.37.348-.45.588-.481.643.103.167.593.383.593.383-.743.261-1.553.375-2.773.428-2.389.112-3.023-.25-3.392-.527zm-.494-3.282c.16-.05.47-.198.975-.297.666-.13 1.402-.091 1.8-.112.913.297 1.53.31 2.194.346 1.024.053 1.939-.003 2.54-.026 0 0-.39.05-.962.457-.295.21-.467.53-.467.53.011.053.194.191.271.249-.465.105-1.6.21-3.616-.066-1.578-.214-2.387-.808-2.735-1.081zm-.085-3.248c.099-.02.454-.099 1.122-.099.752 0 2.037.114 2.205.135.43.188.683.274 1.08.408.58.189 1.355.385 1.746.49-.425.162-.446.264-.446.264s.295.48 1.483 1.258c-.508-.052-1.879.04-4.175-.65-1.77-.535-2.428-1.098-3.015-1.806zm.37-3.701c.083-.024.338-.098.962-.017a5.8 5.8 0 011.097.279c.022.02.07.052.092.073 1.677 1.657 3.865 2.553 4.548 2.816.201.303.48.656.861 1.017 0 0-.492.003-1.001.102-.458-.155-1.553-.548-3.39-1.557-1.954-1.073-2.831-2.093-3.169-2.713zm1.48-1.96c-.381-.629-.812-1.632-.693-2.374 0 0 .464.2.895.596 1.003.917 2.599 2.116 3.002 2.511 1.631 1.706 3.64 3.036 3.64 3.036s.031.104.124.202c-1.122-.409-2.15-.014-2.197-.014-.34-.162-.505-.174-2.596-1.661-.67-.473-1.617-1.381-2.176-2.296zm.97-6.021c.012-.962.655-1.23.966-.597.656 1.33 1.674 3.482 2.459 4.718a26.408 26.408 0 001.75 2.423c-.173.787.095 1.431.1 1.517-.69-.468-1.536-.976-3.316-3.233-.898-1.139-1.973-3.425-1.959-4.828zm5.986 6.736c.12.222.395.76.918 1.491.388.538.84.886 1.016 1.027-.244.5-.1 1.164-.038 1.326-.282-.145-.796-.453-1.33-1.131-.596-.757-1.048-1.695-1.064-2.6-.01-.504.24-.602.498-.113zm2.779 5.38c.483.468.744.738.744.738s-.461.03-.954.244a15.795 15.795 0 01-1.982-.964c-1.04-.581-2.02-1.439-2.389-1.78.174-.065.627-.19 1.302-.082.43.07.705.132.873.174.954 1.078 1.937 1.474 2.406 1.67zm3 9.656c.007-.006.01-.013.01-.013s-.006.003-.008.007c.055-.21.09-.395.11-.523.367-.107.59-.28.59-.28s.134.38.36.607c.092.093.23.219.366.33-.013.322 0 .883-.253 1.362-.388.729-1.083.871-1.083.871s-.201-.15-.406-.492a2.052 2.052 0 01-.225-.646c.176-.327.463-.926.54-1.223zm-2.65.513c1.004-.62 1.11-.877 1.3-1.057.05.057.202.255.288.328.15 0 .358-.049.649-.145-.115.326-.24.958-.9 1.636-.538.556-1.2.678-1.2.678s-.081-.244-.126-.64c-.038-.344-.034-.683-.011-.8zm-1.714-.778c.056-.279.131-.561.185-.69 1.003-.264 2.168-.99 2.168-.99s-.022.44.217.925c.028.056.064.107.095.157-.179.14-.375.454-1.235.836-.872.386-1.504.43-1.504.43s-.014-.224.074-.668zm-.578-2.494c.653.039.944-.062 1.32-.126-.08.095-.106.24-.106.24s.289.342.816.529c-.141.064-.502.236-.698.312-1.107.431-2.173.458-2.848.479.036-.151.14-.443.496-.815.294-.317.74-.507.845-.608.007 0 .17-.009.175-.011zm-1.41-1.994c1.052.37 2.33.344 2.913.316.172.21.45.358.554.431-.174.123-.291.291-.382.396-.416.052-.827.133-1.653.153-1.186.027-2.6-.291-2.952-.49.093-.123.328-.39.798-.608.235-.11.428-.193.575-.254.05.022.096.038.147.056zm-1.871-4.104c.153-.102.474-.304 1.155-.362.41-.037.68-.048.86-.048.869.62 2.075 1.09 2.569 1.272.135.423.323.695.446.837-.318 0-1.016-.027-2.402-.404-1.147-.313-2.184-.789-2.628-1.294zm2.502 2.016c.97.26 2.024.39 2.433.431-.031.026-.065.05-.095.073-.415.332-.636.544-.7.734.097.268.205.433.205.433-.22.066-.795.046-1.365-.015-1.238-.13-2.103-.605-2.511-.793.09-.096.308-.336 1.05-.62.595-.229.858-.229.983-.243zm2.792-5.992s.755.594 2.73 2.768c1.978 2.174 1.58 2.406.84 3.442-.728 1.02-.808 1.819-.378 2.55.42.714 1.625 1.616 3.349 1.277.54-.105 1.704-.437 2.29-.823-.102.406-.315 1.025-.793 2.025a.695.695 0 01-.03.067c-.598 1.065-1.053 1.227-1.053 1.227l-1.058-.746s-.302.278-.487.388c-.324.196-.671.344-.671.344s-.256-.113-.497-.344c-.197-.192-.516-.809-.516-.809s-.358.314-.714.494c-.306.15-.996.214-.996.214s-.35-.238-.523-.622c-.163-.361-.14-.964-.14-.964s-.117.011-.29.003l.002-.003-.005.003a2.316 2.316 0 01-.562-.092c-.418-.13-.738-.381-.738-.381s.051-.264.27-.538c.3-.383.783-.698.783-.698s-.54-.291-.898-.582c-.355-.293-.558-.876-.558-.876s.178-.263.494-.56c.366-.349.874-.54.874-.54s-.382-.414-.607-.672c-.227-.262-.38-.923-.38-.923s.257-.189.717-.267c.652-.112 1.145-.093 1.145-.093s-.314-.314-.675-.694c-.35-.374-1.52-1.547-1.582-2.237-.097-1.07.657-1.338.657-1.338zm6.317 7.334c-.784-1.444.356-3.107 1.766-3.14 1.411-.031 2.715 1.1 3.006 2.728.036.194.036.235.05.437l-1.652.024c-.036-.39-.09-.615-.285-.845-.817-.965-1.712-.117-1.712-.117s-.208.333-.083.442c.124.112.368.068.368.068s.464-.35.885-.045c.424.305.52.829.215 1.273-.306.447-1.78.62-2.558-.825zm4.43-3.19c.307-.62.464-1.987-.613-3.654-1.08-1.667-2.12-1.95-2.12-1.95l-.396-.041s-.269-.204-.66-.466c-.347-.23-.974-.972-1.366-1.536-.358-.52-.887-1.268-1.095-1.514a9.332 9.332 0 00-.525-.541s.097-.064.164-.098c.064-.03.186-.013.186-.013s.469.646.974 1.414c.253.382.702.804 1.154 1.155h-.002c.015.01.51.458 1.246.738l.204.09c.853.326 1.833.441 1.84.443l.426.068-1.325-2.17.056.019c.322.103.75.262 1.17.479.42.216 1.224.847 1.226.847l.386.305-.067-.49c0-.007-.105-.795-.202-1.114a2.098 2.098 0 00-.06-.174c.228.131.722.406 1.101.526.505.166 1.03.311 1.03.311s-.23.069-.393.069c-.167 0-.754.196-.754.196s.46.497.754.982c.047.078.095.16.141.24a4.626 4.626 0 00-.618-.461l-.42-.25.124.471c0 .003.098.367.194.838.039.176.057.373.07.559a5.563 5.563 0 00-.34-.45 4.722 4.722 0 00-1.337-1.096l-.477-.246.202.499s.08.204.174.463c.09.26.19.576.221.778.047.297.064.59.064.837 0 .053 0 .105-.003.152-.195-.241-.44-.547-.647-.768-.747-.79-1.624-1.308-1.632-1.314l-.203.345c.007.003.211.126.508.341.299.219.688.531 1.035.902.38.405.942 1.152.944 1.152l.29.39.067-.483c.002-.005.038-.298.038-.717 0-.263-.013-.577-.066-.9a5.095 5.095 0 00-.207-.755c.218.162.483.39.724.678.362.425.675.994.677.994l.336.61.037-.695c0-.003.006-.123.006-.306a5.464 5.464 0 00-.158-1.382 6.37 6.37 0 011.182 1.272c.206.424.403.873.595 1.361.109.283.212.62.299.938l-.234-.397c-.39-.654-.832-1.098-.84-1.107l-.317-.315-.023.447s-.026.46-.136 1.081a6.508 6.508 0 01-.126.57 4.816 4.816 0 00-.204-.34 8.679 8.679 0 00-.645-.859l-.314-.367-.036.485a8.592 8.592 0 01-.385 2.066 4.951 4.951 0 01-.642 1.277 5.57 5.57 0 01-.286.387c-.082-.11-.17-.235-.248-.32.1-.167.223-.383.276-.487zm-5.353-5.514c-.571.359-.715.745-.715.745s-.055-.207.04-.503c.101-.292.266-.44.725-.654.456-.21.784.082.784.082s-.262-.031-.834.33zm-1.08-.277c-.342.21-1.135.6-1.875.717-1.097.174-1.41-.615-1.41-.615s.8.482 1.706.128c.365-.143 1.32-.52 1.812-.69.312-.112.761.06.761.06s-.456.075-.994.4zm-.683-1.62c-.866.029-1.321.438-1.321.438s-.235-.112-.364-.603c-.131-.487.067-.806.559-1.23.49-.428 1.208-.462 1.208-.462s.363.34.676.698c.308.361.456.564.802 1.038.23.32.348.402.492.567.07.076-.011.182-.109.098-.463-.465-1.498-.563-1.943-.545zm2.736-1.576l-.278.074-.274-.344.253-.044s.036.08.173.235a.32.32 0 00.126.079zm1.123-.43s.033.015-.278.127c-.307.118-.33.12-.33.12s-.036-.196-.042-.203c.038-.005.093-.049.382-.075.31-.033.268.032.268.032zm-2.765-1.456c.58-.788 2.637.193 4.614.538 1.627.277 2.079.151 2.079.151s-.186.289-1.135.436c-.947.147-1.915.052-2.782-.074-.865-.132-1.553.137-1.797.184-.246.05-.457-.03-.457-.03s.08.308.31.586c.227.276.57.557.57.557s.484-.174 1.353-.519c.866-.341 1.386-.179 1.884-.179.497 0 .947.07 1.37.118.436.047.897.023.897.023s-.277.167-.652.262c-.27.073-.457.108-.538.124l.149.08c.057.043.124.093.156.123.055.06.192.287.282.581.032.112.078.348.112.569a7.86 7.86 0 00-.889-.589c-.898-.462-1.793-.662-1.802-.665l-.462-.102 1.374 2.245a9.39 9.39 0 01-1.32-.377c-.455-.156-1.107-.572-1.304-.701a9.717 9.717 0 01-.938-.867c-.459-.477-.91-1.317-1.025-1.597-.115-.276-.221-.64-.049-.877zM47.721 24.83a.588.588 0 01.216 1.133v2.62h-.452v-2.631a.587.587 0 01.236-1.122zm.7-2.52c.19-.487.39-.937.596-1.361a6.345 6.345 0 011.182-1.272c-.022.104-.049.215-.07.333a5.39 5.39 0 00-.092 1.05c0 .181.006.302.006.305l.039.696.338-.61c.002 0 .314-.57.676-.995a4.29 4.29 0 01.724-.678 5.333 5.333 0 00-.209.755 5.92 5.92 0 00-.066.9c0 .42.038.712.041.717l.063.482.292-.39c.002 0 .563-.746.945-1.15a7.54 7.54 0 011.036-.902c.295-.216.502-.34.509-.342l-.205-.345c-.01.006-.888.524-1.632 1.314a14.28 14.28 0 00-.648.768 5.178 5.178 0 01.06-.989 4.98 4.98 0 01.225-.778c.09-.259.17-.463.17-.463l.201-.499-.477.246c-.013.006-.722.37-1.334 1.096-.123.145-.24.302-.343.45a4.84 4.84 0 01.07-.56c.098-.47.196-.834.196-.837l.126-.47-.42.249a4.39 4.39 0 00-.622.462c.05-.081.098-.163.148-.241.291-.485.749-.982.749-.982s-.59-.196-.749-.196c-.166 0-.396-.069-.396-.069s.523-.145 1.027-.31c.38-.121.875-.396 1.103-.527-.023.053-.042.112-.063.173-.097.32-.199 1.108-.202 1.115l-.066.49.39-.305c.002 0 .801-.631 1.223-.847a7.698 7.698 0 011.17-.48c.017-.005.037-.012.058-.017l-1.326 2.17.43-.07c.006 0 .982-.116 1.84-.442l.2-.09c.731-.28 1.232-.728 1.247-.738.45-.351.9-.773 1.15-1.155.509-.768.973-1.414.973-1.414s.125-.018.188.013c.066.034.162.098.162.098s-.31.297-.52.54c-.213.247-.74.995-1.1 1.515-.39.564-1.017 1.307-1.366 1.536-.387.262-.659.465-.659.465l-.396.042s-1.043.283-2.12 1.95c-1.075 1.667-.92 3.034-.609 3.653.056.112.185.334.287.496-.098.087-.188.182-.284.282a4.968 4.968 0 01-.263-.358c-.228-.333-.495-.792-.642-1.277a8.472 8.472 0 01-.385-2.066l-.036-.485-.316.367a9.005 9.005 0 00-.642.859 4.841 4.841 0 00-.206.34 8.355 8.355 0 01-.128-.57c-.11-.622-.131-1.081-.131-1.081l-.025-.447-.318.315c-.005.009-.45.453-.84 1.107-.078.136-.16.269-.235.397a9.28 9.28 0 01.3-.938zm8.239-5.927s.074-.024.126-.079a1.02 1.02 0 00.175-.235l.252.044-.273.344-.28-.075zm-.854-.461c.293.026.347.07.38.075-.003.007-.038.203-.038.203s-.023-.002-.332-.12c-.31-.112-.281-.126-.281-.126s-.038-.065.271-.032zm-4.409.366s.463.024.897-.023c.423-.048.873-.118 1.37-.118.497 0 1.019-.162 1.884.18.867.344 1.35.518 1.35.518s.344-.28.575-.556c.228-.28.31-.587.31-.587s-.215.08-.458.03c-.247-.047-.934-.316-1.801-.184-.86.126-1.835.22-2.78.074-.948-.147-1.135-.436-1.135-.436s.451.126 2.077-.151c1.98-.345 4.039-1.326 4.618-.538.174.237.066.6-.047.877-.115.28-.57 1.12-1.03 1.597-.36.375-.677.66-.935.867-.195.129-.848.545-1.307.701-.458.177-.967.3-1.318.377l1.371-2.245-.457.102c-.01.003-.908.203-1.803.665a8.05 8.05 0 00-.892.589c.037-.222.078-.457.113-.569.09-.294.232-.52.285-.581.026-.03.094-.08.151-.122l.153-.081a6.085 6.085 0 01-.537-.124c-.375-.095-.654-.262-.654-.262zm7.919-.186s.72.034 1.21.462c.488.424.687.743.554 1.23-.127.49-.365.603-.365.603s-.449-.41-1.315-.439c-.448-.018-1.485.08-1.948.545-.095.084-.174-.022-.106-.098.142-.165.263-.247.494-.567.345-.474.49-.677.801-1.038.311-.359.675-.698.675-.698zm-.83 3.017c.49.17 1.444.547 1.805.69.907.354 1.711-.128 1.711-.128s-.32.789-1.41.615c-.74-.118-1.538-.507-1.877-.717-.54-.325-.994-.4-.994-.4s.446-.172.765-.06zm-.133 1.482s-.147-.386-.718-.745c-.57-.361-.832-.33-.832-.33s.327-.292.782-.082c.459.213.624.362.724.654.096.296.044.503.044.503zm-9.879 5.082a.585.585 0 11.778.555v2.344h-.449V26.21a.583.583 0 01-.329-.526zm1.28.832a.587.587 0 11.816.54v1.527h-.449v-1.524a.59.59 0 01-.367-.543zm.349-1.08c-.078-.305-.224-.61-.712-.797-.489-.185-.924.076-.924.076s-.082-.182-.326-.32c.03-.112.08-.288.12-.399a5.69 5.69 0 01.44-.94c.163-.274.338-.512.48-.689.02.184.053.409.097.661a6.98 6.98 0 00.285 1.102l.17.453.2-.44c.002 0 .171-.385.404-.737.1-.154.21-.306.306-.434.069.586.179 1.082.357 1.661.268.866.816 1.575 1.033 1.835a4.536 4.536 0 00-.636 1.56h-.383v-.669a1.09 1.09 0 00.407-.849c0-.606-.431-1.143-1.318-1.074zm3.398 3.56l.051.646-11.66.023.023-.67H53.5zm-9.019-2.48a.587.587 0 11.811.542v1.525h-.45v-1.528a.59.59 0 01-.36-.54zm2.352-1.776a1.066 1.066 0 00-.804-.042c-.34.112-.615.392-.711.746a1.325 1.325 0 00-.263-.032c-.232-.005-.52.072-.79.34a1.094 1.094 0 00.092 1.604v.673h-.382c-.06-.314-.245-.974-.608-1.524.18-.21.771-.947 1.058-1.872.18-.58.29-1.075.357-1.66.1.127.209.28.31.433.227.352.4.737.4.737l.2.44.172-.453c.002-.006.167-.452.285-1.102.045-.252.076-.477.098-.661.141.177.32.415.481.69.206.348.382.774.44.94.036.099.08.253.11.366-.16.077-.312.195-.445.377zm-1.024.998a.587.587 0 11.805.548v2.297h-.453v-2.305a.596.596 0 01-.352-.54zm9.118-.316c1.414.032 2.553 1.695 1.773 3.139-.782 1.445-2.259 1.272-2.561.825-.307-.444-.208-1.108.214-1.41.425-.306 1.079.015 1.079.015l-.037-.05s-.627-.932-1.532-.115c-.218.2-.332.365-.366.757h-1.642c.012-.201.032-.24.069-.434.29-1.629 1.596-2.76 3.003-2.727zm1.508 5.842c1.725.34 2.931-.563 3.35-1.277.432-.731.35-1.53-.38-2.55-.737-1.036-1.138-1.268.84-3.442 1.977-2.174 2.733-2.768 2.733-2.768s.754.268.658 1.338c-.06.69-1.232 1.863-1.583 2.237-.362.38-.673.694-.673.694s.494-.02 1.14.093c.462.078.72.267.72.267s-.151.661-.38.923c-.227.258-.605.673-.605.673s.504.19.874.539c.315.297.496.56.496.56s-.207.583-.564.875c-.354.292-.899.583-.899.583s.486.315.788.698c.215.274.27.538.27.538s-.32.252-.74.38a2.327 2.327 0 01-.561.093l-.004-.003.001.003c-.172.008-.292-.003-.292-.003s.025.603-.139.964c-.173.384-.526.622-.526.622s-.69-.065-.992-.214c-.359-.18-.718-.493-.718-.493s-.319.616-.514.808c-.237.23-.498.344-.498.344s-.345-.148-.67-.344c-.188-.11-.487-.388-.487-.388l-1.062.746s-.45-.162-1.05-1.227l-.03-.067c-.48-1-.687-1.62-.792-2.025.589.386 1.748.718 2.289.823zm9.02-8.53c.168-.042.446-.104.873-.174.677-.109 1.128.017 1.303.081-.37.342-1.35 1.2-2.387 1.78-.946.536-1.653.834-1.985.964-.494-.214-.955-.243-.955-.243s.261-.27.745-.738c.47-.196 1.453-.591 2.406-1.67zm-.547-2.219c.526-.73.8-1.269.92-1.491.258-.49.51-.391.497.113-.012.905-.469 1.843-1.062 2.6-.536.678-1.05.986-1.33 1.131.063-.162.202-.826-.043-1.326.18-.141.631-.489 1.018-1.027zm4.673-1.473c.403-.395 2-1.594 3.003-2.511a3.52 3.52 0 01.897-.596c.116.742-.315 1.745-.697 2.374-.557.915-1.504 1.823-2.171 2.296-2.092 1.488-2.257 1.499-2.6 1.661-.046 0-1.076-.395-2.193.014.088-.098.118-.202.118-.202s2.008-1.33 3.643-3.036zm-2.941-.21s.847-1.011 1.75-2.423c.788-1.236 1.803-3.387 2.46-4.718.311-.633.952-.365.965.597.012 1.403-1.063 3.69-1.96 4.828-1.782 2.257-2.625 2.765-3.317 3.233.006-.086.274-.73.102-1.517zm6.665 1.42c.621-.081.877-.007.96.017-.339.62-1.215 1.64-3.167 2.713-1.841 1.009-2.931 1.402-3.39 1.557a6.174 6.174 0 00-1.004-.102 5.87 5.87 0 00.862-1.017c.68-.263 2.872-1.16 4.55-2.816.02-.021.066-.052.089-.073a5.883 5.883 0 011.1-.279zm-7.662 6.246c-1.383.377-2.082.404-2.4.404.123-.142.308-.414.445-.837.493-.182 1.698-.653 2.571-1.272.178 0 .45.011.855.048.683.058 1.005.26 1.159.363-.444.505-1.48.981-2.63 1.294zm-.348 2.377c-.575.061-1.147.081-1.366.015 0 0 .104-.165.2-.433-.06-.19-.283-.402-.696-.734-.03-.024-.063-.047-.094-.073.407-.042 1.465-.17 2.435-.43.12.013.383.013.982.243.74.283.96.523 1.048.619-.408.188-1.277.664-2.509.793zm-.327 1.728c-.824-.02-1.236-.1-1.651-.153-.091-.105-.213-.273-.384-.396.105-.073.384-.221.556-.431.582.028 1.86.054 2.912-.316.049-.018.099-.034.148-.056.146.06.339.145.574.254.47.217.706.485.799.608-.353.199-1.766.517-2.954.49zm-1.31 1.653c-.194-.076-.557-.248-.7-.312.53-.187.819-.529.819-.529s-.024-.145-.104-.24c.374.064.667.165 1.32.126.004.002.165.01.174.01.105.102.552.292.846.609.354.372.46.664.496.815-.675-.021-1.741-.048-2.85-.48zm-1.911.941c.032-.05.07-.1.096-.157.24-.486.217-.924.217-.924s1.166.725 2.168.989c.056.129.13.411.187.69.085.444.071.667.071.667s-.63-.044-1.504-.429c-.86-.382-1.055-.696-1.235-.836zm-1.285.502c.29.096.498.145.65.145.084-.073.236-.271.286-.328.19.18.297.438 1.3 1.057.024.117.031.456-.01.8-.046.396-.124.64-.124.64s-.66-.122-1.2-.678c-.66-.678-.787-1.31-.902-1.636zm-.413.36c.073.298.364.897.54 1.224-.035.16-.085.405-.228.646a1.775 1.775 0 01-.404.492s-.695-.142-1.084-.87c-.253-.48-.241-1.041-.253-1.362.132-.112.273-.238.367-.33.227-.229.359-.607.359-.607s.223.172.591.279c.02.128.058.313.111.523a.021.021 0 00-.007-.007s.003.007.008.013zM73.513 23.87c.669 0 1.022.079 1.122.098-.59.71-1.245 1.272-3.013 1.807-2.3.69-3.67.599-4.176.65 1.185-.779 1.48-1.258 1.48-1.258s-.02-.102-.448-.264c.396-.105 1.172-.301 1.752-.49.396-.134.644-.22 1.078-.408.168-.021 1.455-.135 2.205-.135zm1.882 3.123s-.666-.346-1.145-.43a6.522 6.522 0 00-1.356-.101 5.71 5.71 0 00.897-.412c1.465-.891 1.645-2.584 1.645-2.584s-.87-.086-1.356-.08c-.82.011-1.43.075-1.639.126.631-.297.901-.493 1.349-.927 1.137-1.11.961-2.723.961-2.723s-.414-.146-1.069-.087c-.539.046-.729.108-.984.246.984-1.109 1.116-1.792 1.223-2.53.164-1.12-.23-1.924-.32-1.98 0 0-.469.098-1.14.614-.732.563-1.758 1.512-1.758 1.512s.272-.31.57-.918c1.276-2.603 1.129-4.654.792-5.267-.366-.675-1.075-.714-1.4-.221-.249.367-.978 1.941-1.571 3.064-.94 1.799-2.152 3.49-2.659 4.11-.278-.594-.548-.176-.548-.176s-.415.701-.878 1.47c-.434.723-.98 1.26-1.306 1.562-.427-.508-.847-.693-.847-.693l-.13.13s-3.044 3.186-3.983 4.419c-.941 1.233-.235 1.827.447 2.834.68 1.005.386 2.175-1.027 2.732-1.216.48-2.067.042-2.411-.554.895-.37 1.8-1.275 1.805-2.519 0-.208-.021-.423-.067-.647-.283-1.357-1.38-2.165-2.606-2.16a3.03 3.03 0 00-1.284.292c-.276.123-.385.227-.596.39 0 0-.05.038-.118.1-.572-1.047-.532-1.863.168-3.216.751-1.454 2.05-2.104 2.05-2.104l.29.235s0-.106.618-.392c.625-.286 1.275-.207 1.769.366.442.514.415 1.194.415 1.194s.413-.363.544-.806c.13-.441-.036-.796-.036-.796s.508.194 1.06.42c.509.205 1.418.531 2.222-.168.807-.703.65-1.69.65-1.69s-.442.701-1.378.884c-.683.133-1.426-.261-1.974-.496-.544-.23-1.271-.336-1.271-.336s.65-.552 1.773-.21c.827.252.928.574.928.574s.44-.322.703-.936c.286-.675.103-1.273-.389-1.742-.484-.457-1.455-.729-1.455-.729s.164-.255-.17-.363c-.29-.096-.584-.175-.584-.175s.232-.788-.553-1.14c-1.277-.58-3.317.493-5.535.81-1.498.211-2.135-.244-2.135-.244s.1.332.415.653c.565.581.98.773.98.773s-.443.076-.81.025c-.36-.05-1.008-.207-1.008-.207s.207.338.597.622c.39.288.804.47.804.47s-.832.415-1.506.624c-.676.208-1.82.232-1.82.232s.364.364.91.573c.545.207.781.233.781.233s-.466.6-.985 1.585c-.364.686-.93 1.995-1.241 2.72-.308-.725-.876-2.034-1.236-2.72-.52-.986-.988-1.585-.988-1.585s.237-.026.78-.233c.545-.209.908-.573.908-.573s-1.14-.024-1.816-.232c-.674-.209-1.504-.624-1.504-.624s.414-.182.8-.47c.396-.284.6-.622.6-.622s-.649.157-1.013.207c-.365.05-.804-.025-.804-.025s.411-.192.978-.773c.312-.321.411-.653.411-.653s-.638.455-2.132.244c-2.219-.317-4.255-1.39-5.537-.81-.781.352-.549 1.14-.549 1.14s-.297.079-.585.175c-.334.108-.166.363-.166.363s-.975.272-1.456.729c-.493.469-.676 1.067-.39 1.742.26.614.7.936.7.936s.1-.322.928-.575c1.124-.341 1.776.21 1.776.21s-.728.107-1.274.337c-.546.235-1.286.629-1.973.496-.936-.183-1.377-.884-1.377-.884s-.155.987.65 1.69c.806.7 1.715.373 2.221.168.554-.227 1.058-.42 1.058-.42s-.165.355-.033.796c.13.443.545.806.545.806s-.03-.68.414-1.194c.493-.573 1.146-.652 1.769-.366.62.286.62.392.62.392l.286-.235s1.299.65 2.053 2.104c.703 1.359.769 2.137.186 3.188-.016-.013-.042-.042-.056-.053-.196-.157-.435-.275-.73-.41a3.08 3.08 0 00-1.29-.29c-1.222-.006-2.326.802-2.6 2.156-.05.227-.07.442-.07.65.003 1.303.869 2.185 1.812 2.521-.342.597-1.19 1.034-2.414.552-1.411-.557-1.704-1.727-1.024-2.732.68-1.007 1.386-1.601.445-2.834-.939-1.233-3.98-4.42-3.98-4.42l-.13-.13s-.42.186-.85.694c-.325-.301-.87-.839-1.306-1.562-.46-.769-.877-1.47-.877-1.47s-.269-.418-.549.176c-.506-.62-1.715-2.311-2.658-4.11-.594-1.123-1.321-2.697-1.57-3.064-.328-.493-1.036-.454-1.4.22-.335.614-.484 2.665.792 5.268.297.607.569.918.569.918s-1.025-.95-1.754-1.512c-.674-.516-1.142-.614-1.142-.614-.093.056-.485.86-.323 1.98.11.738.238 1.421 1.225 2.53-.254-.138-.447-.2-.987-.246-.652-.059-1.07.087-1.07.087s-.173 1.613.966 2.723c.445.434.714.63 1.347.927-.206-.05-.818-.115-1.637-.126-.488-.006-1.356.08-1.356.08s.177 1.693 1.644 2.584c.252.154.585.294.893.412-.408-.006-.776 0-1.354.1-.477.085-1.142.43-1.142.43s.584 1.54 2.076 2.08c.277.099.411.181.736.225-.14.018-.675.189-1.303.486-.438.208-.928.643-.928.643s.761 1.4 2.165 1.651c.011.001.125.021.23.045a6.642 6.642 0 00-1.023.816c-.349.342-.699.998-.699.998s1.177 1.228 2.878 1.03a3.388 3.388 0 00-.416.576c-.356.593-.468 1.363-.468 1.363s1.288.692 2.722.234c-.08.147-.155.324-.211.525-.127.471-.15 1.432-.15 1.432s1.557.462 2.912-.528c-.095.197-.147.452-.182.788-.05.484.073 1.435.073 1.435s1.688.199 2.878-1.037l.093-.102a2.41 2.41 0 00-.02.434c.017.486.278 1.41.278 1.41s1.698-.046 2.697-1.442a3.55 3.55 0 00.246-.39c-.016.197.076.625.185.964.129.4.487.944.487.944s1.399-.43 1.908-1.82c.228-.614.31-1.406.322-2.13.084.087.139.138.139.138s.458-.12.907-.586c-.321 1.132-.54 2.352-.542 3.622 0 .311.014.628.043.947.063.712.102 1.048.273 1.586 0 0-.238.45-.484.758-.097.117-.47.481-.42 1.072.038.447.492.509.492.509s-.05.52.129.762c.182.24.435.342.556.372.118.031.401.099.401.099s.08.578.277.712c.24.177.823.348.828.35.146.05.41.239.582.321.269.13.65.073 1.013-.123.238-.135.28-.501.269-.594.118.053.136.056.246.101.385.151.681.32.697.387.18.297.288 1.04.368 1.561.039.227.014.538.168.852l.044.073c-.033.014-.072.028-.123.048a5.49 5.49 0 00-1.37.697c-.489.35-1.082 1.306-1.832 1.482-.658.155-1.145-.147-1.202-.558-.057-.409-.043-.619-.043-.619s-.901.533-.968 1.177c-.09.84.645 1.188.645 1.188s-1.197 1.148-.822 2.143c.323.851.546 1.221.602 1.54.059.323-.085.53-.085.53s.601.07.74-.752c.09-.514.224-.76.341-.906.117-.149.129-.216.129-.216s-.05.74.123 1.294c.179.558.813 1.107 1.714 1.183.813.068 1.561-.396 1.561-.396s.681.922 1.631 1.054c.988.134 1.58-.087 1.898-.174 0 0 .261.472.496.766.12.153.32.38.578.593l.304.17s.358-.347.596-.64c.232-.292.568-1.012.568-1.012s1.069.392 2.008.189c.935-.206 1.578-.85 1.578-.85s.584.614 1.486.554c.906-.057 1.556-.877 1.733-1.435.177-.555.102-1.262.102-1.262s.059.047.21.178c.145.12.26.183.366.787.153.82.59.864.59.864s-.037-.42.127-.825c.126-.304.392-.65.589-1.41.357-1.37-.828-1.932-.828-1.932s.663-.369.605-1.103c-.07-.952-1.083-1.283-1.083-1.283s.082.104.02.513c-.058.41-.458.83-1.245.608-.422-.12-1.177-1.046-1.667-1.395-.498-.353-1.223-.674-1.489-.793a1.11 1.11 0 00-.105-.042c.006-.009.011-.018.019-.028.156-.314.131-.625.173-.852.065-.452.158-1.074.298-1.425.084-.212.39-.375.771-.523.109-.045.123-.048.244-.1-.012.092.032.459.273.593.36.196.737.252 1.011.123.17-.082.435-.27.58-.32.005-.003.587-.174.832-.35.193-.135.274-.713.274-.713s.283-.068.403-.099c.12-.03.373-.131.554-.372.18-.241.129-.762.129-.762s.458-.062.494-.509c.05-.59-.323-.955-.421-1.072a5.873 5.873 0 01-.484-.758c.17-.538.21-.874.273-1.586.026-.32.041-.636.041-.947-.001-1.27-.219-2.49-.542-3.622.451.465.908.586.908.586s.056-.05.14-.138c.01.724.095 1.516.32 2.13.511 1.39 1.909 1.82 1.909 1.82s.36-.544.49-.944c.106-.339.2-.767.18-.964.088.149.151.261.25.39.998 1.396 2.698 1.441 2.698 1.441s.258-.923.276-1.409a2.438 2.438 0 00-.02-.434c.031.035.063.069.095.102 1.191 1.236 2.878 1.037 2.878 1.037s.123-.951.07-1.435c-.034-.336-.085-.59-.182-.788 1.36.99 2.914.528 2.914.528s-.023-.961-.15-1.432a2.69 2.69 0 00-.208-.525c1.43.458 2.717-.234 2.717-.234s-.112-.77-.466-1.363a3.366 3.366 0 00-.417-.575c1.7.197 2.88-1.031 2.88-1.031s-.351-.656-.698-.998a6.62 6.62 0 00-1.026-.816c.108-.024.22-.044.231-.045 1.4-.25 2.165-1.651 2.165-1.651s-.489-.434-.93-.643c-.626-.297-1.164-.468-1.3-.486.323-.044.46-.126.734-.224 1.492-.541 2.078-2.08 2.078-2.08zm-12.981-.485l.088-.423-.384-.122-1.008.628.176.323 1.128-.406zM33.16 30.669l-.123.386.393.172.986-.678-.159-.335-1.097.455zm.736-2.269l-1.178-.154-.3.269.258.347 1.192-.093.028-.369zm-1.019-2.315l.09.423 1.125.406.175-.323-1.008-.628-.382.122zm29.463 4.97l-.122-.386-1.097-.455-.162.335.99.678.39-.172zm-1.595 1.666l.087-.39-.697-.894-.322.148.5 1.086.432.05zm-2.599.468l.238-.32-.259-1.012-.37.048.02 1.06.371.224zm-20.607-.224l.02-1.06-.37-.048-.259 1.011.241.321.368-.224zM35 32.671l.507-1.086-.326-.148-.697.894.084.39.431-.05z"/></g><defs><clipPath id="clip0"><path fill="#fff" d="M.754 0h93.892v77.461H.754z"/></clipPath></defs></svg>