<svg width="106" height="90" fill="none" xmlns="http://www.w3.org/2000/svg"><g clip-path="url(#clip0)" fill="#CFC8B7"><path d="M12.391 9.644h5.754v6.05H12.39v-6.05zm24.165 6.081H30.75v-6.01h5.806v6.01zM5.793 28.495H.015v-6.05h5.778v6.05zM12.347 9.19V3.457h5.81v5.735h-5.81zm18.41-5.77h5.792v5.763h-5.792V3.42zM18.65 9.675h5.552v6.017H18.65V9.675zm6.045 0h5.569V15.7h-5.57V9.675zm17.972.048v5.954h-5.6V9.723h5.6zm6.013 6.002h-5.556V9.697h5.556v6.028zM5.81 21.972H0V16.23h5.81v5.742zm.449 6.466v-5.955h5.602v5.955H6.26zm48.682.077h-5.517v-6.05h5.517v6.05zm.53-6.072h5.56v6h-5.56v-6zM18.633 9.2V3.447h5.588V9.2h-5.588zm6.089-5.784h5.559v5.755h-5.56V3.416zm17.911.027v5.76h-5.56v-5.76h5.56zm6.045 5.761h-5.552V3.441h5.552v5.763zM11.862 21.972H6.295V16.23h5.567v5.742zm43.116.004h-5.562v-5.772h5.562v5.772zm6.047-.004h-5.55v-5.763h5.55v5.763zm-49.227-6.444H6.453c-.044-2.911 2.376-5.445 5.345-5.573v5.573zm37.596-5.601c3.016.252 5.346 2.637 5.377 5.566h-5.377V9.927zM25.64 2.72c1.642-.852 2.99-1.586 4.373-2.244.357-.158.76-.17 1.125-.032a31.053 31.053 0 014.048 2.268l-9.546.008zm23.064 13.554v4.094l-3.911-4.094h3.911zM12.6 16.272h3.839l-3.84 3.882v-3.882z"/></g><path d="M4.56 39.8l.057 2.16h-.55l-.239-1.667-1.807-.066v5.184l1.43.09v.403H.23v-.402l.904-.09v-5.094l-.88-.115V39.8H4.56zm.543 3.812c0-.493.102-.92.304-1.282a2.112 2.112 0 011.865-1.11c.69.001 1.208.22 1.553.659.35.438.526 1.013.526 1.725 0 .498-.102.928-.304 1.29a2.114 2.114 0 01-1.865 1.1c-.69 0-1.21-.218-1.561-.657-.345-.438-.518-1.013-.518-1.725zm2.128 1.914a.977.977 0 00.871-.468c.203-.312.304-.775.304-1.388 0-.608-.093-1.09-.28-1.446-.186-.356-.484-.534-.895-.534a.997.997 0 00-.879.468c-.203.312-.304.775-.304 1.388 0 .608.096 1.09.288 1.446a.95.95 0 00.895.534zm2.772-1.873c0-.454.088-.865.263-1.232a2.09 2.09 0 01.789-.871c.35-.219.77-.329 1.257-.329.235 0 .438.022.608.066.17.044.372.104.607.18l-.032 1.266h-.534l-.181-.838c-.033-.153-.241-.23-.624-.23-.384 0-.688.156-.912.468-.22.307-.329.745-.329 1.315 0 .646.123 1.14.37 1.479.252.334.578.5.977.5.23 0 .447-.035.65-.106.207-.071.385-.156.533-.255l.156.329c-.147.153-.367.293-.657.419-.285.12-.575.18-.87.18-.45 0-.83-.1-1.143-.303a1.92 1.92 0 01-.698-.83 3.024 3.024 0 01-.23-1.208zm4.976 4.297a2.38 2.38 0 01-.28-.017.536.536 0 01-.188-.049v-.715a.476.476 0 00.189.05c.098.01.192.016.28.016a.974.974 0 00.69-.28c.202-.18.396-.53.583-1.05h-.395l-1.56-4.067-.379-.107v-.386h1.98v.386l-.632.098.805 2.424.378 1.2.353-1.208.731-2.416-.55-.098v-.386h1.651v.386l-.41.098c-.806 2.465-1.28 3.864-1.422 4.199a8.398 8.398 0 01-.51 1.1 1.742 1.742 0 01-.542.608c-.208.143-.465.214-.772.214zm8.448-1.643c-.038.46-.077.835-.115 1.125h-.518a22.742 22.742 0 00-.074-.895c-.032-.395-.057-.605-.073-.633H19.54c-.022.05-.082.348-.18.896l-.132.632h-.55c.021-.777.046-1.44.073-1.988h.469c.262-.104.47-.46.624-1.068.153-.613.23-1.451.23-2.514l-.764-.115v-.402h4.215v.402l-.732.115v3.59h.723l-.09.855zm-2.867-3.96c0 .695-.06 1.334-.181 1.914-.12.58-.257.978-.41 1.191h1.97V41.83h-1.38v.518zm3.59 2.325c0-.515.257-.893.772-1.134.515-.246 1.167-.378 1.956-.394v-.23c0-.258-.028-.46-.083-.608a.554.554 0 00-.287-.32c-.132-.072-.32-.107-.567-.107-.28 0-.531.04-.756.123a4.926 4.926 0 00-.657.287l-.206-.427c.072-.06.203-.14.395-.238.192-.099.413-.186.665-.263.252-.077.504-.115.756-.115.389 0 .696.055.92.164.23.104.395.274.493.51.099.235.148.55.148.944v2.638h.485v.361a5.19 5.19 0 01-.42.082 2.6 2.6 0 01-.435.041c-.153 0-.257-.024-.312-.073-.055-.044-.082-.146-.082-.304v-.272a2.83 2.83 0 01-.608.452 1.572 1.572 0 01-.805.206c-.394 0-.723-.113-.986-.337-.257-.23-.386-.559-.386-.986zm1.725.764c.143 0 .307-.044.493-.131.186-.088.356-.192.51-.313V43.58c-.598 0-1.05.093-1.356.28-.301.18-.452.419-.452.714 0 .296.071.515.214.658.148.136.345.205.591.205zm7.325-1.972c0 .466-.096.893-.288 1.282a2.241 2.241 0 01-.821.912c-.356.224-.773.337-1.25.337-.13 0-.273-.011-.426-.033a1.995 1.995 0 01-.37-.082l.025.69v.83l.854.09v.402h-2.292v-.402l.591-.09v-5.423l-.6-.148v-.443l1.167-.148h.017l.172.148v.484c.165-.18.367-.334.608-.46a1.78 1.78 0 01.822-.189c.323 0 .619.08.887.239.274.158.493.405.657.74.165.333.247.755.247 1.264zm-2.128-1.667a1.31 1.31 0 00-.583.131c-.181.088-.32.183-.42.288v3.097c.039.066.135.126.288.18.159.05.332.075.518.075.422 0 .761-.168 1.018-.502.263-.334.395-.838.395-1.511 0-.592-.115-1.033-.345-1.323a1.052 1.052 0 00-.871-.435zm2.743 1.856c0-.454.088-.865.263-1.232a2.09 2.09 0 01.789-.871c.35-.219.77-.329 1.257-.329.235 0 .438.022.608.066.17.044.372.104.608.18l-.033 1.266h-.534l-.18-.838c-.034-.153-.242-.23-.625-.23-.384 0-.688.156-.912.468-.22.307-.329.745-.329 1.315 0 .646.123 1.14.37 1.479.252.334.578.5.978.5.23 0 .446-.035.649-.106.208-.071.386-.156.534-.255l.156.329c-.148.153-.367.293-.657.419-.285.12-.576.18-.871.18-.45 0-.83-.1-1.142-.303a1.92 1.92 0 01-.699-.83 3.024 3.024 0 01-.23-1.208zm8.756-2.308l.049 1.733h-.542l-.222-1.24-1.093-.041v3.623l1.117.082v.402H38.8v-.402l1.109-.082v-3.623l-1.11.04-.221 1.241h-.542l.049-1.733h4.486zm2.193-.017l.821-.024c.69 0 1.172.09 1.446.27.274.176.411.439.411.79 0 .262-.08.484-.238.665-.154.175-.373.304-.657.386.405.033.717.15.936.353a.961.961 0 01.329.731c0 .466-.178.825-.534 1.077-.356.246-.937.37-1.742.37a11.942 11.942 0 01-.805-.025l-.559-.017h-.838v-.402l.575-.099v-3.54l-.566-.116v-.402h.903l.518-.017zm.78 1.947c.356 0 .617-.08.78-.238a.806.806 0 00.255-.616c0-.22-.079-.383-.238-.493-.159-.115-.435-.173-.83-.173h-.764v1.52h.797zm-.797 2.145c.055.016.162.032.32.049.16.01.3.016.42.016.504 0 .86-.068 1.068-.205.208-.137.312-.364.312-.682 0-.301-.096-.526-.288-.674-.191-.148-.492-.221-.903-.221h-.929v1.717zm5.798.575c-.663 0-1.17-.217-1.52-.65-.345-.432-.518-1.01-.518-1.733 0-.476.09-.895.272-1.257.18-.361.432-.64.755-.838a2.129 2.129 0 011.118-.296c.509 0 .903.143 1.183.428.285.279.435.681.452 1.207 0 .334-.02.59-.058.764h-2.826c.01.543.137.98.378 1.315.24.328.583.493 1.027.493.219 0 .446-.038.682-.115.24-.082.427-.178.558-.288l.156.362c-.158.164-.394.306-.706.427-.312.12-.63.18-.953.18zm.838-2.81c.016-.115.024-.233.024-.353-.005-.356-.082-.636-.23-.838-.142-.208-.37-.313-.681-.313a.945.945 0 00-.765.346c-.186.23-.293.616-.32 1.158h1.972zm3.77-1.84v.402l-.681.115V43.3h2.267v-1.438l-.69-.115v-.402h2.136v.402l-.6.115v3.566l.633.074v.402h-2.186v-.402l.707-.074v-1.651h-2.267v1.65l.706.075v.402h-2.177v-.402l.624-.074v-3.566l-.616-.115v-.402h2.144zm5.962 0v.402l-.682.115V43.3H62.7v-1.438l-.69-.115v-.402h2.136v.402l-.6.115v3.566l.633.074v.402h-2.186v-.402l.707-.074v-1.651h-2.267v1.65l.706.075v.402h-2.177v-.402l.624-.074v-3.566l-.616-.115v-.402h2.145zm5.27 1.807c.192-.005.488-.008.888-.008 1.166 0 1.75.457 1.75 1.372 0 .482-.16.849-.477 1.1-.318.247-.767.37-1.347.37a5.64 5.64 0 01-.345-.016c-.16-.01-.288-.02-.386-.025a8.184 8.184 0 00-.674-.04h-.97v-.387l.724-.09v-3.566l-.682-.107v-.41h2.316v.427l-.797.09v1.29zm4.905-1.807v.41l-.575.107v3.558l.624.082v.402h-2.045v-.402l.583-.082v-3.558l-.616-.107v-.41h2.03zm-4.905 4.14c.263.033.493.05.69.05.351 0 .614-.077.79-.23.175-.16.262-.4.262-.723 0-.334-.09-.578-.271-.732-.175-.153-.45-.23-.822-.23h-.649v1.865zm7.839-4.14v.402l-.674.115v2.752l.493-.649 1.857-1.963v-.14l-.608-.115v-.402h2.054v.402l-.592.115v3.566l.616.074v.402h-2.128v-.402l.658-.074v-2.793l-.543.755-1.807 1.882v.164l.542.066v.402h-2.004v-.402l.616-.074v-3.566l-.608-.115v-.402h2.128zm-.46-2.391c.087 0 .131.101.131.304 0 .246.066.457.197.633.137.175.35.262.641.262.285 0 .49-.087.616-.262.132-.176.197-.387.197-.633 0-.203.044-.304.132-.304h.6c.005.033.008.085.008.156 0 .444-.137.8-.411 1.068-.268.268-.652.403-1.15.403-.488 0-.871-.135-1.15-.403-.28-.274-.42-.63-.42-1.068l.009-.156h.6zM5.669 55.436a56.23 56.23 0 01-.23 1.996H4.92a63.67 63.67 0 00-.057-.895c-.028-.395-.05-.605-.066-.633H.41v-.402l.591-.082v-3.566l-.583-.107v-.402h2.095v.402l-.665.107v3.582h2.037v-3.574l-.657-.115v-.402h2.086v.402l-.575.115v3.574h.929zm2.466.559c-.663 0-1.17-.217-1.52-.65-.345-.432-.517-1.01-.517-1.733 0-.476.09-.895.27-1.257.182-.361.434-.64.757-.838a2.129 2.129 0 011.117-.296c.51 0 .904.143 1.183.428.285.279.435.681.452 1.207 0 .334-.02.59-.058.764H6.993c.011.543.137.98.378 1.315.241.328.583.493 1.027.493.22 0 .446-.038.682-.115.241-.082.427-.178.559-.288l.156.362c-.16.164-.395.306-.707.427-.312.12-.63.18-.953.18zm.838-2.81c.017-.115.025-.233.025-.353-.006-.356-.082-.636-.23-.838-.143-.208-.37-.313-.682-.313a.945.945 0 00-.764.346c-.186.23-.293.616-.32 1.158h1.971zm3.77-1.84v.402l-.681.115V53.3h2.267v-1.438l-.69-.115v-.402h2.136v.402l-.6.115v3.566l.633.074v.402h-2.185v-.402l.706-.074v-1.651h-2.267v1.65l.706.075v.402h-2.177v-.402l.625-.074v-3.566l-.617-.115v-.402h2.145zm8.246 0l.049 1.733h-.542l-.222-1.24-1.093-.041v3.623l1.118.082v.402h-3.081v-.402l1.109-.082v-3.623l-1.11.04-.221 1.241h-.542l.049-1.733h4.486zm5.15 2.12c0 .465-.095.892-.287 1.28a2.241 2.241 0 01-.822.913c-.356.224-.772.337-1.248.337-.132 0-.274-.011-.428-.033a1.997 1.997 0 01-.37-.082l.025.69v.83l.855.09v.402h-2.292v-.402l.591-.09v-5.423l-.6-.148v-.443l1.167-.148h.017l.172.148v.484a2.17 2.17 0 01.608-.46c.246-.126.52-.189.822-.189.323 0 .618.08.887.239.274.158.493.405.657.74.164.333.247.755.247 1.264zm-2.127-1.669c-.209 0-.403.044-.584.132a1.44 1.44 0 00-.419.288v3.097c.039.066.135.126.288.18.159.05.331.075.517.075.422 0 .762-.168 1.02-.502.262-.334.394-.838.394-1.511 0-.592-.115-1.033-.346-1.323a1.052 1.052 0 00-.87-.435zm2.842 2.876c0-.515.257-.893.772-1.134.515-.246 1.167-.378 1.955-.394v-.23c0-.258-.027-.46-.082-.608a.554.554 0 00-.287-.32c-.132-.072-.32-.107-.567-.107-.28 0-.532.04-.756.123a4.9 4.9 0 00-.657.287l-.206-.427c.071-.06.203-.14.395-.238a4.01 4.01 0 01.665-.263c.252-.077.504-.115.756-.115.389 0 .695.055.92.164.23.104.394.274.493.51.099.235.148.55.148.944v2.638h.485v.361a5.18 5.18 0 01-.42.082 2.61 2.61 0 01-.435.041c-.153 0-.257-.024-.312-.073-.055-.044-.082-.146-.082-.304v-.272a2.833 2.833 0 01-.608.452 1.572 1.572 0 01-.805.206c-.395 0-.723-.113-.986-.337-.258-.23-.386-.559-.386-.986zm1.725.764c.142 0 .307-.044.493-.131.186-.088.356-.192.51-.313V53.58c-.598 0-1.05.093-1.356.28-.302.18-.452.419-.452.714 0 .296.071.515.213.658.148.136.346.205.592.205zm4.367-3.171c0 .756-.044 1.405-.131 1.947-.088.537-.195.931-.321 1.183a.982.982 0 01-.32.419c-.132.093-.323.14-.575.14-.099 0-.23-.017-.395-.05l-.05-.69c.127.028.313.041.56.041.23 0 .413-.304.55-.912.137-.608.208-1.435.214-2.48l-.748-.116v-.402h4.19v.41l-.715.124v3.549l.69.074v.402h-2.177v-.402l.641-.074v-3.59h-1.413v.427zm6.022.879c1.172 0 1.758.457 1.758 1.372 0 .482-.158.849-.476 1.1-.318.247-.77.37-1.356.37-.07 0-.186-.005-.345-.016-.158-.01-.285-.02-.378-.025a8.184 8.184 0 00-.673-.04h-1.01v-.387l.722-.09v-3.566l-.674-.107v-.41h2.325v.41l-.813.107v1.29l.92-.008zm-.92 2.333c.22.038.46.058.723.058.707 0 1.06-.318 1.06-.953 0-.334-.09-.578-.271-.732-.18-.153-.458-.23-.83-.23h-.682v1.857zm5.376-4.132v.402l-.682.115V53.3h2.267v-1.438l-.69-.115v-.402h2.136v.402l-.6.115v3.566l.633.074v.402h-2.185v-.402l.706-.074v-1.651h-2.267v1.65l.706.075v.402h-2.177v-.402l.625-.074v-3.566l-.617-.115v-.402h2.145zm5.27 1.807c.192-.005.488-.008.888-.008 1.167 0 1.75.457 1.75 1.372 0 .482-.159.849-.477 1.1-.317.247-.766.37-1.347.37-.071 0-.186-.005-.345-.016-.159-.01-.288-.02-.386-.025a8.187 8.187 0 00-.674-.04h-.97v-.387l.724-.09v-3.566l-.682-.107v-.41h2.317v.427l-.797.09v1.29zm4.905-1.807v.41l-.575.107v3.558l.625.082v.402h-2.046v-.402l.583-.082v-3.558l-.616-.107v-.41h2.03zm-4.904 4.14c.263.033.493.05.69.05.35 0 .613-.077.788-.23.176-.16.263-.4.263-.723 0-.334-.09-.578-.27-.732-.176-.153-.45-.23-.822-.23h-.65v1.865zm7.838-4.14v.402l-.674.115v2.752l.493-.649 1.857-1.963v-.14l-.608-.115v-.402h2.054v.402l-.592.115v3.566l.616.074v.402h-2.127v-.402l.657-.074v-2.793l-.542.755-1.808 1.882v.164l.542.066v.402h-2.004v-.402l.616-.074v-3.566l-.608-.115v-.402h2.128zm-.46-2.391c.087 0 .131.101.131.304 0 .246.066.457.197.633.137.175.351.262.641.262.285 0 .49-.087.616-.262.132-.176.198-.387.198-.633 0-.203.044-.304.131-.304h.6c.005.033.008.085.008.156 0 .444-.137.8-.41 1.068-.27.268-.653.403-1.15.403-.488 0-.872-.135-1.151-.403-.28-.274-.42-.63-.42-1.068l.01-.156h.599zm8.311 2.39l.904 2.408.337.986.304-.986.887-2.407h1.94v.402l-.814.115.575 3.566.64.074v.402h-2.144v-.402l.641-.074-.296-2.366-.172-1.307-.42 1.29-.985 2.58h-.55l-1.01-2.588-.453-1.257-.14 1.265-.32 2.391.707.066v.402h-1.931v-.402l.64-.074.551-3.566-.788-.115v-.402h1.897zm5.874 6.606c-.093 0-.186-.006-.28-.017a.536.536 0 01-.188-.049v-.715a.476.476 0 00.188.05c.099.01.192.016.28.016a.973.973 0 00.69-.28c.203-.18.397-.53.583-1.05h-.394l-1.561-4.067-.378-.107v-.386h1.98v.386l-.633.098.805 2.424.378 1.2.354-1.208.73-2.416-.55-.098v-.386h1.652v.386l-.411.098c-.805 2.465-1.279 3.864-1.421 4.199a8.384 8.384 0 01-.51 1.1 1.742 1.742 0 01-.542.608c-.208.143-.466.214-.772.214zm4.143-6.482c.17 0 .394-.03.673-.09a4.697 4.697 0 011.076-.132c.565 0 .992.096 1.282.288a.92.92 0 01.436.813.956.956 0 01-.263.649 1.599 1.599 0 01-.699.444c.384.032.682.148.896.345a.96.96 0 01.328.747c0 .45-.172.803-.517 1.06-.34.252-.84.378-1.504.378a5.27 5.27 0 01-1.026-.09 5.114 5.114 0 01-.748-.214l.082-.978h.51l.13.592c.078.077.203.137.379.18.18.044.37.066.567.066.388 0 .676-.079.862-.238.192-.159.288-.378.288-.657 0-.597-.354-.885-1.06-.863a10.595 10.595 0 00-.485.066l.008-.518.346-.04c.317-.039.564-.135.739-.288a.775.775 0 00.263-.6c0-.23-.074-.402-.222-.517-.142-.121-.38-.181-.715-.181-.235 0-.44.03-.616.09-.17.06-.287.123-.353.189l-.123.715H74.4v-1.216zm6.375 4.527c-.663 0-1.17-.217-1.52-.65-.345-.432-.518-1.01-.518-1.733 0-.476.09-.895.271-1.257.181-.361.433-.64.756-.838a2.129 2.129 0 011.117-.296c.51 0 .904.143 1.183.428.285.279.436.681.452 1.207 0 .334-.019.59-.057.764h-2.826c.01.543.137.98.377 1.315.242.328.584.493 1.028.493.219 0 .446-.038.681-.115.241-.082.428-.178.559-.288l.156.362c-.159.164-.394.306-.706.427-.313.12-.63.18-.953.18zm.838-2.81c.016-.115.024-.233.024-.353-.005-.356-.082-.636-.23-.838-.142-.208-.37-.313-.682-.313a.945.945 0 00-.764.346c-.186.23-.293.616-.32 1.158h1.972zm3.754-1.84v.402l-.674.115v2.752l.493-.649 1.857-1.963v-.14l-.608-.115v-.402h2.054v.402l-.592.115v3.566l.616.074v.402h-2.128v-.402l.658-.074v-2.793l-.543.755-1.807 1.882v.164l.542.066v.402h-2.004v-.402l.616-.074v-3.566l-.608-.115v-.402h2.128zm-.46-2.391c.087 0 .131.101.131.304 0 .246.066.457.197.633.137.175.35.262.641.262.285 0 .49-.087.616-.262.132-.176.197-.387.197-.633 0-.203.044-.304.132-.304h.6c.005.033.008.085.008.156 0 .444-.137.8-.411 1.068-.268.268-.652.403-1.15.403-.488 0-.871-.135-1.15-.403-.28-.274-.42-.63-.42-1.068l.009-.156h.6zM.27 63.654c0-.455.088-.866.263-1.233a2.09 2.09 0 01.789-.871c.35-.219.77-.329 1.257-.329.235 0 .438.022.608.066.17.044.372.104.608.18l-.033 1.266h-.534l-.181-.838c-.033-.153-.241-.23-.624-.23-.384 0-.688.156-.912.468-.22.307-.329.745-.329 1.315 0 .646.123 1.14.37 1.479.252.334.578.5.977.5.23 0 .447-.035.65-.106.208-.071.386-.156.533-.255l.157.329c-.148.153-.367.293-.658.419-.285.12-.575.18-.87.18-.45 0-.83-.1-1.143-.303a1.92 1.92 0 01-.698-.83 3.025 3.025 0 01-.23-1.208zm4.31-.042c0-.493.102-.92.305-1.282a2.112 2.112 0 011.865-1.11c.69.001 1.207.22 1.552.659.351.438.526 1.013.526 1.725 0 .498-.101.928-.304 1.29a2.114 2.114 0 01-1.865 1.1c-.69 0-1.21-.218-1.56-.657-.346-.438-.518-1.013-.518-1.725zm2.129 1.914a.977.977 0 00.87-.468c.203-.312.304-.775.304-1.388 0-.608-.093-1.09-.279-1.446-.186-.356-.485-.534-.895-.534a.997.997 0 00-.88.468c-.202.312-.303.775-.303 1.388 0 .608.095 1.09.287 1.446a.95.95 0 00.896.534zm4.357-4.198l.822-.024c.69 0 1.172.09 1.446.27.273.176.41.439.41.79a.972.972 0 01-.238.665c-.153.175-.372.304-.657.386.405.033.717.15.937.353a.962.962 0 01.328.731c0 .466-.178.825-.534 1.077-.356.246-.936.37-1.742.37a11.95 11.95 0 01-.805-.025l-.558-.017h-.838v-.402l.575-.099v-3.54l-.567-.116v-.402h.904l.517-.017zm.78 1.947c.357 0 .617-.08.781-.238a.806.806 0 00.255-.616c0-.22-.08-.383-.238-.493-.16-.115-.436-.173-.83-.173h-.764v1.52h.797zm-.796 2.145c.054.016.161.032.32.049.159.01.299.016.42.016.503 0 .859-.068 1.067-.205.208-.137.312-.364.312-.682 0-.301-.095-.526-.287-.674-.192-.148-.493-.221-.904-.221h-.928v1.717zm8.22-1.956c0 .466-.095.893-.287 1.282a2.241 2.241 0 01-.821.912c-.356.224-.773.337-1.25.337-.13 0-.273-.011-.426-.033a1.997 1.997 0 01-.37-.082l.025.69v.83l.854.09v.403h-2.292v-.403l.591-.09v-5.423l-.6-.148v-.443l1.167-.148h.017l.172.148v.484a2.17 2.17 0 01.608-.46 1.78 1.78 0 01.822-.189c.323 0 .619.08.887.239.274.158.493.405.657.74.165.333.247.755.247 1.264zm-2.127-1.667a1.31 1.31 0 00-.583.131c-.181.088-.32.183-.42.288v3.097c.039.066.135.126.288.18.159.05.332.075.518.075.422 0 .761-.168 1.018-.502.263-.334.395-.838.395-1.511 0-.592-.115-1.033-.345-1.323a1.052 1.052 0 00-.871-.435zm4.863 4.198c-.663 0-1.17-.217-1.52-.65-.345-.432-.517-1.01-.517-1.733 0-.476.09-.895.27-1.257.181-.361.433-.64.757-.838a2.129 2.129 0 011.117-.296c.51 0 .903.143 1.183.428.285.279.435.681.452 1.207 0 .334-.02.59-.058.764h-2.826c.011.543.137.98.378 1.315.24.328.583.493 1.027.493.219 0 .446-.038.682-.115.24-.082.427-.178.558-.288l.156.362c-.158.164-.394.306-.706.427-.312.12-.63.18-.953.18zm.838-2.81c.016-.115.025-.233.025-.353-.006-.356-.082-.636-.23-.838-.143-.208-.37-.313-.682-.313a.945.945 0 00-.764.346c-.187.23-.293.616-.32 1.158h1.971zm3.623-1.84l.903 2.407.337.986.304-.986.887-2.407h1.94v.402l-.814.115.575 3.566.64.074v.402h-2.143v-.402l.64-.074-.295-2.366-.173-1.307-.419 1.29-.986 2.58h-.55l-1.01-2.588-.453-1.257-.14 1.265-.32 2.391.707.066v.402h-1.93v-.402l.64-.074.55-3.566-.788-.115v-.402h1.898zm7.229 4.65c-.663 0-1.17-.217-1.52-.65-.345-.432-.518-1.01-.518-1.733 0-.476.09-.895.271-1.257.18-.361.433-.64.756-.838a2.129 2.129 0 011.117-.296c.51 0 .904.143 1.183.428.285.279.436.681.452 1.207 0 .334-.019.59-.057.764h-2.826c.01.543.136.98.377 1.315.241.328.584.493 1.027.493.22 0 .447-.038.682-.115.241-.082.428-.178.559-.288l.156.362c-.159.164-.394.306-.706.427-.313.12-.63.18-.953.18zm.837-2.81c.017-.115.025-.233.025-.353-.005-.356-.082-.636-.23-.838-.142-.208-.37-.313-.682-.313a.945.945 0 00-.764.346c-.186.23-.293.616-.32 1.158h1.971zm3.771-1.84v.402l-.682.115V63.3h2.268v-1.438l-.69-.115v-.402h2.136v.402l-.6.115v3.566l.632.074v.402h-2.185v-.402l.707-.074v-1.651h-2.268v1.65l.707.075v.402h-2.177v-.402l.624-.074v-3.566l-.616-.115v-.402h2.144zm5.961 0v.402l-.682.115V63.3h2.268v-1.438l-.69-.115v-.402h2.136v.402l-.6.115v3.566l.633.074v.402h-2.186v-.402l.707-.074v-1.651h-2.268v1.65l.707.075v.402h-2.177v-.402l.624-.074v-3.566l-.616-.115v-.402h2.144zm3.8 2.267c0-.493.102-.92.304-1.282a2.112 2.112 0 011.865-1.11c.69.001 1.208.22 1.553.659.35.438.526 1.013.526 1.725 0 .498-.101.928-.304 1.29a2.114 2.114 0 01-1.865 1.1c-.69 0-1.21-.218-1.56-.657-.346-.438-.519-1.013-.519-1.725zm2.128 1.914a.977.977 0 00.871-.468c.203-.312.304-.775.304-1.388 0-.608-.093-1.09-.28-1.446-.185-.356-.484-.534-.895-.534a.997.997 0 00-.879.468c-.202.312-.304.775-.304 1.388 0 .608.096 1.09.288 1.446a.95.95 0 00.895.534zm5.015-4.181v.402l-.674.115v2.753l.493-.65 1.857-1.963v-.14l-.608-.115v-.402h2.054v.402l-.592.115v3.566l.617.074v.402h-2.128v-.402l.657-.074v-2.793l-.542.755-1.808 1.882v.164l.543.066v.402h-2.005v-.402l.616-.074v-3.566l-.608-.115v-.402h2.128zm-.46-2.391c.088 0 .131.101.131.304 0 .246.066.457.198.633.137.175.35.262.64.262.285 0 .49-.087.617-.262a1.03 1.03 0 00.197-.633c0-.203.044-.304.131-.304h.6a.993.993 0 01.008.156c0 .444-.137.8-.41 1.068-.269.268-.652.403-1.15.403-.488 0-.872-.135-1.15-.403-.28-.274-.42-.63-.42-1.068l.008-.156h.6zm8.443 2.39v.403l-.674.115v2.753l.493-.65 1.857-1.963v-.14l-.608-.115v-.402h2.054v.402l-.592.115v3.566l.617.074v.402H64.21v-.402l.657-.074v-2.793l-.542.755-1.808 1.882v.164l.543.066v.402h-2.005v-.402l.616-.074v-3.566l-.608-.115v-.402h2.128zm3.79 2.31c0-.455.088-.866.263-1.233a2.09 2.09 0 01.79-.871c.35-.219.769-.329 1.256-.329.236 0 .438.022.608.066.17.044.373.104.608.18l-.033 1.266h-.534l-.18-.838c-.034-.153-.242-.23-.625-.23s-.687.156-.912.468c-.219.307-.329.745-.329 1.315 0 .646.124 1.14.37 1.479.252.334.578.5.978.5.23 0 .446-.035.649-.106.208-.071.386-.156.534-.255l.156.329c-.148.153-.367.293-.657.419-.285.12-.575.18-.871.18-.45 0-.83-.1-1.142-.303a1.92 1.92 0 01-.698-.83 3.026 3.026 0 01-.23-1.208zm8.756-2.31l.05 1.734h-.543l-.222-1.24-1.093-.041v3.623l1.118.082v.402h-3.081v-.402l1.109-.082v-3.623l-1.11.04-.221 1.241h-.542l.05-1.733h4.485zm.706 2.268c0-.493.101-.92.304-1.282a2.112 2.112 0 011.865-1.11c.69.001 1.207.22 1.553.659.35.438.525 1.013.525 1.725 0 .498-.1.928-.304 1.29a2.114 2.114 0 01-1.865 1.1c-.69 0-1.21-.218-1.56-.657-.346-.438-.518-1.013-.518-1.725zm2.128 1.914a.977.977 0 00.87-.468c.203-.312.305-.775.305-1.388 0-.608-.094-1.09-.28-1.446-.186-.356-.484-.534-.895-.534a.997.997 0 00-.88.468c-.202.312-.303.775-.303 1.388 0 .608.096 1.09.287 1.446a.95.95 0 00.896.534zm7.315-2.062c0 .466-.096.893-.288 1.282a2.241 2.241 0 01-.821.912c-.356.224-.773.337-1.249.337a3.02 3.02 0 01-.427-.033 1.997 1.997 0 01-.37-.082l.025.69v.83l.854.09v.403h-2.29v-.403l.592-.09v-5.423l-.6-.148v-.443l1.166-.148h.017l.172.148v.484c.165-.18.367-.334.608-.46a1.78 1.78 0 01.822-.189c.323 0 .619.08.887.239.274.158.493.405.657.74.165.333.247.755.247 1.264zm-2.128-1.667a1.31 1.31 0 00-.583.131c-.181.088-.32.183-.42.288v3.097c.04.066.135.126.288.18.16.05.332.075.518.075.422 0 .761-.168 1.019-.502.263-.334.394-.838.394-1.511 0-.592-.115-1.033-.345-1.323a1.052 1.052 0 00-.87-.435zm4.986-.452v.402l-.673.115v2.753l.493-.65 1.856-1.963v-.14l-.608-.115v-.402h2.054v.402l-.591.115v3.566l.616.074v.402h-2.128v-.402l.657-.074v-2.793l-.542.755-1.807 1.882v.164l.542.066v.402h-2.005v-.402l.617-.074v-3.566l-.608-.115v-.402h2.127zm6.034 0v.402l-.674.115v2.753l.493-.65 1.857-1.963v-.14l-.608-.115v-.402H97.9v.402l-.592.115v3.566l.616.074v.402h-2.128v-.402l.658-.074v-2.793l-.543.755-1.807 1.882v.164l.542.066v.402h-2.004v-.402l.616-.074v-3.566l-.608-.115v-.402h2.128zM1.076 70.31l-.64-.1v-.41h1.092c.197 0 .392-.008.583-.025.296-.021.575-.032.838-.032.795.005 1.356.153 1.685.443.328.29.493.729.493 1.315 0 .438-.102.819-.304 1.142a1.96 1.96 0 01-.847.74 2.84 2.84 0 01-1.232.254c-.159 0-.32-.003-.485-.008a5.937 5.937 0 01-.304-.025v1.807l1.126.09v.403H.394v-.402l.682-.082v-5.11zm.88 2.842c.153.028.416.041.788.041.433 0 .783-.131 1.052-.394.273-.263.41-.693.41-1.29 0-.471-.117-.808-.353-1.01-.235-.209-.602-.313-1.1-.313-.176 0-.362.011-.56.033-.12.011-.2.017-.238.017v2.916zm3.749.46c0-.493.101-.92.304-1.281a2.112 2.112 0 011.865-1.11c.69 0 1.208.22 1.553.658.35.438.525 1.013.525 1.725 0 .498-.1.928-.304 1.29a2.114 2.114 0 01-1.865 1.1c-.69 0-1.21-.218-1.56-.657-.345-.438-.518-1.013-.518-1.725zm2.128 1.914a.977.977 0 00.87-.468c.203-.312.305-.775.305-1.388 0-.608-.093-1.09-.28-1.446-.186-.356-.484-.534-.895-.534a.997.997 0 00-.88.468c-.202.312-.303.775-.303 1.388 0 .608.096 1.09.287 1.446a.95.95 0 00.896.534zm2.772-1.873c0-.454.087-.865.263-1.232a2.09 2.09 0 01.788-.871c.35-.219.77-.329 1.257-.329.236 0 .438.022.608.066.17.044.373.104.608.18l-.033 1.266h-.534l-.18-.838c-.033-.153-.241-.23-.625-.23-.383 0-.687.156-.912.468-.219.307-.328.745-.328 1.315 0 .646.123 1.14.37 1.479.251.334.577.5.977.5.23 0 .446-.035.65-.106.207-.071.385-.156.533-.255l.156.329c-.148.153-.367.293-.657.419-.285.12-.575.18-.87.18-.45 0-.83-.1-1.143-.303a1.92 1.92 0 01-.698-.83 3.024 3.024 0 01-.23-1.208zm4.212 0c0-.454.088-.865.263-1.232a2.09 2.09 0 01.788-.871c.351-.219.77-.329 1.257-.329.236 0 .439.022.608.066.17.044.373.104.608.18l-.033 1.266h-.534l-.18-.838c-.033-.153-.241-.23-.625-.23-.383 0-.687.156-.912.468-.219.307-.328.745-.328 1.315 0 .646.123 1.14.37 1.479.251.334.577.5.977.5.23 0 .447-.035.65-.106.207-.071.385-.156.533-.255l.156.329c-.148.153-.367.293-.657.419-.285.12-.575.18-.87.18-.45 0-.83-.1-1.143-.303a1.92 1.92 0 01-.698-.83 3.024 3.024 0 01-.23-1.208zm6.455-2.308v.402l-.674.115v2.753l.493-.65 1.857-1.963v-.14l-.608-.115v-.402h2.054v.402l-.592.115v3.566l.616.074v.402h-2.127v-.402l.657-.074v-2.793l-.543.755-1.807 1.882v.164l.542.066v.402h-2.004v-.402l.616-.074v-3.566l-.608-.115v-.402h2.128zm6.033 0v.402l-.674.115v2.753l.493-.65 1.857-1.963v-.14l-.608-.115v-.402h2.054v.402l-.591.115v3.566l.616.074v.402h-2.128v-.402l.657-.074v-2.793l-.542.755-1.808 1.882v.164l.543.066v.402h-2.005v-.402l.616-.074v-3.566l-.608-.115v-.402h2.128z" fill="#CFC8B7"/><defs><clipPath id="clip0"><path fill="#fff" d="M0 .347h61.03v28.168H0z"/></clipPath></defs></svg>