<svg width="43" height="44" xmlns="http://www.w3.org/2000/svg"><g fill="none" fill-rule="evenodd"><path d="M21.535.747C9.741.747.181 10.307.181 22.102c0 11.793 9.56 21.354 21.354 21.354 11.794 0 21.354-9.56 21.354-21.355C42.89 10.309 33.33.748 21.535.748z" fill="#CFC8B7"/><path d="M19.633 24.863l-.364 5.026c.52 0 .746-.22 1.016-.484l2.441-2.29 5.059 3.637c.927.507 1.581.24 1.831-.838l3.32-15.275h.001c.295-1.347-.495-1.874-1.4-1.543l-19.516 7.336c-1.332.507-1.311 1.236-.226 1.567l4.99 1.523 11.59-7.12c.545-.354 1.04-.158.633.197l-9.375 8.264z" fill="#000" fill-rule="nonzero"/></g></svg>